/* XPM */
static char *result[] = {
/* columns rows colors chars-per-pixel */
"64 64 256 2 ",
"   c black",
".  c #010101",
"X  c #020202",
"o  c gray1",
"O  c #040404",
"+  c gray2",
"@  c #060606",
"#  c #070707",
"$  c gray3",
"%  c #090909",
"&  c gray4",
"*  c #0B0B0B",
"=  c #0C0C0C",
"-  c gray5",
";  c #0E0E0E",
":  c gray6",
">  c #101010",
",  c #111111",
"<  c gray7",
"1  c #131313",
"2  c gray8",
"3  c #151515",
"4  c #161616",
"5  c gray9",
"6  c #181818",
"7  c #191919",
"8  c gray10",
"9  c #1B1B1B",
"0  c gray11",
"q  c #1D1D1D",
"w  c #1E1E1E",
"e  c gray12",
"r  c #202020",
"t  c gray13",
"y  c #222222",
"u  c #232323",
"i  c gray14",
"p  c #252525",
"a  c gray15",
"s  c #272727",
"d  c #282828",
"f  c gray16",
"g  c #2A2A2A",
"h  c gray17",
"j  c #2C2C2C",
"k  c #2D2D2D",
"l  c gray18",
"z  c #2F2F2F",
"x  c gray19",
"c  c #313131",
"v  c #323232",
"b  c gray20",
"n  c #343434",
"m  c #353535",
"M  c gray21",
"N  c #373737",
"B  c gray22",
"V  c #393939",
"C  c #3A3A3A",
"Z  c gray23",
"A  c #3C3C3C",
"S  c gray24",
"D  c #3E3E3E",
"F  c #3F3F3F",
"G  c gray25",
"H  c #414141",
"J  c gray26",
"K  c #434343",
"L  c #444444",
"P  c gray27",
"I  c #464646",
"U  c gray28",
"Y  c #484848",
"T  c #494949",
"R  c gray29",
"E  c #4B4B4B",
"W  c #4C4C4C",
"Q  c gray30",
"!  c #4E4E4E",
"~  c gray31",
"^  c #505050",
"/  c #515151",
"(  c gray32",
")  c #535353",
"_  c gray33",
"`  c #555555",
"'  c #565656",
"]  c gray34",
"[  c #585858",
"{  c gray35",
"}  c #5A5A5A",
"|  c #5B5B5B",
" . c gray36",
".. c #5D5D5D",
"X. c gray37",
"o. c #5F5F5F",
"O. c #606060",
"+. c gray38",
"@. c #626262",
"#. c gray39",
"$. c #646464",
"%. c #656565",
"&. c gray40",
"*. c #676767",
"=. c #686868",
"-. c DimGray",
";. c #6A6A6A",
":. c gray42",
">. c #6C6C6C",
",. c #6D6D6D",
"<. c gray43",
"1. c #6F6F6F",
"2. c gray44",
"3. c #717171",
"4. c #727272",
"5. c gray45",
"6. c #747474",
"7. c gray46",
"8. c #767676",
"9. c #777777",
"0. c gray47",
"q. c #797979",
"w. c gray48",
"e. c #7B7B7B",
"r. c #7C7C7C",
"t. c gray49",
"y. c #7E7E7E",
"u. c gray50",
"i. c #808080",
"p. c #818181",
"a. c gray51",
"s. c #838383",
"d. c #848484",
"f. c gray52",
"g. c #868686",
"h. c gray53",
"j. c #888888",
"k. c #898989",
"l. c gray54",
"z. c #8B8B8B",
"x. c gray55",
"c. c #8D8D8D",
"v. c #8E8E8E",
"b. c gray56",
"n. c #909090",
"m. c gray57",
"M. c #929292",
"N. c #939393",
"B. c gray58",
"V. c #959595",
"C. c gray59",
"Z. c #979797",
"A. c #989898",
"S. c gray60",
"D. c #9A9A9A",
"F. c #9B9B9B",
"G. c gray61",
"H. c #9D9D9D",
"J. c gray62",
"K. c #9F9F9F",
"L. c #A0A0A0",
"P. c gray63",
"I. c #A2A2A2",
"U. c gray64",
"Y. c #A4A4A4",
"T. c #A5A5A5",
"R. c gray65",
"E. c #A7A7A7",
"W. c gray66",
"Q. c #A9A9A9",
"!. c #AAAAAA",
"~. c gray67",
"^. c #ACACAC",
"/. c gray68",
"(. c #AEAEAE",
"). c #AFAFAF",
"_. c gray69",
"`. c #B1B1B1",
"'. c #B2B2B2",
"]. c gray70",
"[. c #B4B4B4",
"{. c gray71",
"}. c #B6B6B6",
"|. c #B7B7B7",
" X c gray72",
".X c #B9B9B9",
"XX c gray73",
"oX c #BBBBBB",
"OX c #BCBCBC",
"+X c gray74",
"@X c gray",
"#X c gray75",
"$X c #C0C0C0",
"%X c #C1C1C1",
"&X c gray76",
"*X c #C3C3C3",
"=X c gray77",
"-X c #C5C5C5",
";X c #C6C6C6",
":X c gray78",
">X c #C8C8C8",
",X c gray79",
"<X c #CACACA",
"1X c #CBCBCB",
"2X c gray80",
"3X c #CDCDCD",
"4X c #CECECE",
"5X c gray81",
"6X c #D0D0D0",
"7X c gray82",
"8X c #D2D2D2",
"9X c LightGray",
"0X c gray83",
"qX c #D5D5D5",
"wX c gray84",
"eX c #D7D7D7",
"rX c #D8D8D8",
"tX c gray85",
"yX c #DADADA",
"uX c gray86",
"iX c gainsboro",
"pX c #DDDDDD",
"aX c gray87",
"sX c #DFDFDF",
"dX c gray88",
"fX c #E1E1E1",
"gX c #E2E2E2",
"hX c gray89",
"jX c #E4E4E4",
"kX c gray90",
"lX c #E6E6E6",
"zX c #E7E7E7",
"xX c gray91",
"cX c #E9E9E9",
"vX c #EAEAEA",
"bX c gray92",
"nX c #ECECEC",
"mX c gray93",
"MX c #EEEEEE",
"NX c #EFEFEF",
"BX c gray94",
"VX c #F1F1F1",
"CX c gray95",
"ZX c #F3F3F3",
"AX c #F4F4F4",
"SX c gray96",
"DX c #F6F6F6",
"FX c gray97",
"GX c #F8F8F8",
"HX c #F9F9F9",
"JX c gray98",
"KX c #FBFBFB",
"LX c gray99",
"PX c #FDFDFD",
"IX c #FEFEFE",
"UX c white",
/* pixels */
"n n h p h p p p j j j n n n n n Z Z Z Z n n A L E E E L L L L E W | | ) _ _ _ _ _ | | | _ W E E E L L L E E L L E E L L L A Z Z ",
"Z n j p i u i p p h j j n n j j n n n n n n Z K L E E E E L L L E ) | | | | | | | | | | ) E E L L L E W E E L L L E E E E L K A ",
"n j h p i e u p p p p h j n j j j n n n n n n A K L E E E L K A K W ) | | | | | | | | _ _ W E E L L E E E E L L L E E E E E L A ",
"n j h p p i p p p p j j j j j j h j j n n j n n A A K L E L A A A L E W _ _ | | | #.| | | _ ) E L L E E E W E E E E L L E L A Z ",
"n n j h p p p p p h j j j j j h j j j j j n n n n Z A L E L A A A A L E W ) | | #.| | | | | ) W L L L L E W W E E L L K K A Z Z ",
"Z n n h p p h j h h h j j j j h p p p j n n n n n Z K L E E L K A K L L E ) | | #.| | | _ _ ) E L A A K E W E W E L K A K K A Z ",
"Z n n j j j j j h h j n n n j j h h h j n n n n Z A L W ) _ ) W E L L L E ) | | | | _ ) ) _ W E K A A A L L E W E L K A A A A A ",
"n n n n n n j j j n n n n n n n j j j n Z Z Z n A K L ) | | | _ W W W E ) ) | | | | ) W W W W E K A A A A K L E L K L K L K L A ",
"n n Z Z n n j n n n Z A A n Z Z Z Z n Z A A K K L W ) _ | | | _ ) _ _ _ _ _ _ _ _ | ) E E E W E E L K A A K L L L K K L L E E A ",
"Z Z A A Z n j n n Z A A A A A L L K A K K L E W ) _ | | | | | | | | | | | | _ ) W ) W E E W W W W E L A A A L E L K E W E W W L ",
"A K A K Z n n n Z K L L L K A L L L L L L E E W _ | | | | | #.| | | #.| | _ _ ) ) W L E E W ) W ) ) E K Z A L L L L W ) ) E L K ",
"L L K A A Z Z A K L E W E E K K L L L E W W E E ) | | | #.#.| _ _ | | | _ _ _ _ ) E L L E L L E W ) E K A Z K K L L W ) W E L L ",
"E E L K K K L L L E E W W W L L L E L E E E L E _ _ _ | #.| _ ) ) ) ) ) _ | _ ) ) E E K K L L L L E L A Z Z A K L L W W E L L L ",
"E E E K K E W E E W W W E W W E E W L L K L L E E E W | | | _ ) W E W W ) _ _ _ ) W E L K L L K L K A n Z n Z A L E W W E L K L ",
"E E L A A L W E E E E E E E E E ) W L L K L E L L L W _ | | _ ) W E W W E _ | ) W W W E L L K K K A A Z Z n n Z K E W E L A K L ",
"L L A A Z A E E E E E L E E E W ) W W E L L E E K K E ) _ ) ) W W E E W W _ | ) ) ) ) W E L L L K A A Z Z n n n A E E E L L K K ",
"L K A Z n Z K K K L L L L E E E W W W ) E E E L A A L ) ) W W E E L L L W _ _ _ ) _ | | W E W E L K A A A Z n A A K L L L K A K ",
"A Z n n n n n Z Z Z L K L L E E E E _ | ) W E K Z A L ) W W E E E E L E E ) ) _ _ _ #.#.| ) W E L L K K K A A K A A A K L L K A ",
"Z n n j j n n n n A K L L A L L E ) | | | _ E K K K W _ _ _ ) E E E L E E E W _ _ | | #.#.| ) E L L K K L L L L L A A A K L K Z ",
"n n h h h j j n n A L L K A A K L ) | #.| | W E E W ) | | _ ) ) E L L L L L W _ | | | #.#.| _ W E L L L L E E E L K A A K L K Z ",
"j j j j p p j n n A L L L L A A K E _ | | _ W ) ) ) _ _ _ ) W E E L K K K K L W ) | #.;.#.| _ W W W E E W W ) W W E L L L K A n ",
"h p h h h p j n Z K L L L L K K A K E W W ) ) | | _ ) W W E E L K A A A A A L E W | ;.;.:.#.| _ _ ) W E W E E E W W W L L K Z n ",
"j j j j j h n Z A A K A K L L K Z Z A K L E ) _ | ) W W E E E L A Z Z n Z A K E ) | #.;.:.;.#.#.| _ ) ) E L L L E L L L K A n j ",
"h j j n j j n n A A A A Z A K A n n n Z A L E ) | _ E L E E L K A Z n n A K E W _ | | #.:.;.:.;.#.| ) ) E L K L L L A A Z Z n j ",
"h h j j j j j n Z A A A Z A K Z n j n n A K L W _ _ E L E E L K A A n Z A L W _ _ | | #.;.:.4.4.;.| ) ) W L K K K A A Z n n j j ",
"j h j j j j j n n A A A K K K Z n n n Z A A K E ) ) E L L L L L A Z Z A K L E ) | | | #.;.:.5.5.;._ W W W L K K A A A Z Z n n j ",
"j j j j j j j j n n n K E L K Z n n n Z Z Z K E W E L L L L L K A Z Z Z K L E ) | _ | #.;.4.0.4.#.) W W W W L L A Z n n A Z n n ",
"n j j j j h p h j n Z K L A Z n n n n n n Z A L E L L L E L L L K A A A A L L ) _ ) _ | #.:.0.4.;.| ) W W W E L K A Z Z A Z Z n ",
"n j j j h p i p h n A A A Z n n n n n n n n A L L L L L L L L K K A A A A K L W ) _ ) | #.;.4.4.;.| ) ) ) W E L L K K K K L A n ",
"n j j j p p i p h n A A A n n n n n n j j j Z L L L K K K L K K A A A K A K L E W ) _ _ #.#.:.;.| _ ) ) _ ) E L L L L L K K A Z ",
"n j j j p h p p h n Z Z Z n n n n n n n n n Z K L L K K L K K A Z A A K A A L E E W _ | #.;.:.#.| | _ | | | ) E L L L L K A A n ",
"n n n j h j h h h n Z A A Z n n j n n Z Z Z Z A L L E L K A A Z n Z A K A A A L E W _ #.#.;.#.| _ | | #.#.#.| W L L L L K A Z n ",
"Z Z n n n n n n n n A A Z Z Z n j n Z Z K A A A L L E L A Z n n n Z A K K A A L E W | #.#.#.| _ _ | | #.#.#.| W L K L L L A A A ",
"K K A K K K A A A K L K K A n n n n Z A K L K K L L L K A Z Z n n Z A A K A A L E ) | #.#.| | | _ _ | | | | | ) E L L E E L L K ",
"L L L L L E L E E E E E L A A n n n n A L L L E E L L A A Z n n n Z A A A A K L W _ | | | | ) ) ) W _ | | | | | W E L E ) W L E ",
"L L E L E E W W W E W E K K A n n n Z A K L L E E L K A n n n n n n Z A A A L W ) _ | #.| | | ) W E ) _ | | #.#.| ) W E E E E E ",
"E E E E E W ) ) W E L K Z Z n n n Z A A L E E W W E K Z n j j n n Z Z A A K E W W | | | | | ) ) W W ) | | #.;.;.#.| _ W E E L L ",
"E E W W W ) ) ) ) E K Z n n j n A A K L E ) _ _ ) E A n n j j n n n n n Z A L E W _ | | _ ) ) ) W W _ | | ;.:.:.#.| | | W L K K ",
"E E ) ) ) _ _ ) W L A n n n n Z K L E W _ | #.#.| E A n j j j j n n n n n A K L E ) _ | | | ) ) ) ) | #.;.:.:.;.#.| | | _ L L L ",
"L E ) _ _ | _ ) E K A n n n n Z L E W ) | #.;.;.| W K n j j j h j j n n Z A A L E W _ | | | | _ _ | #.4.:.4.;.#.| _ _ ) ) W L L ",
"L L E W ) _ ) ) E L K A Z n n A L E W _ | #.#.#.| W K n j j j h j j n n Z A A K E E ) | | | | | #.:.4.5.:.:.;.#.| | ) E W W L L ",
"E E E W ) _ ) W L L K A A Z n K L E W _ | | #.#.| W K n j j j j j j n n n Z A K L E W W _ ) _ | ;.4.5.5.4.:.#.#.| _ ) E W ) W L ",
") E E W ) ) W E L L L A A Z Z A L E W ) | | | #._ W L A n n j j j j n n n Z A A L L K L E W _ | #.;.4.5.4.4.:.#.| ) E L W ) ) ) ",
"_ W W ) ) W E E L E K A A A A A L W ) _ _ | | | _ W E L A n j j j n n n Z Z A A L A A A K W ) | #.#.;.:.:.5.;.#._ W E L E W | | ",
"_ ) ) ) ) W E L L L L K K A A A L E W ) _ | _ ) ) W L K A Z n j n n Z Z A K A L K A n n A L W _ | | #.:.:.4.;.#._ W E E E ) | | ",
"| _ ) W ) W E E L L L L K A A A K K L E ) _ ) W E L K K A A Z n n Z A A A K K L K A n n Z A E W _ | #.;.:.:.#.| ) E L E W ) _ | ",
"| | ) W W E E L K A K K L K A Z A K L L W ) W E L L K A Z Z Z n n Z A A A A L L L A n n Z A L E W _ #.;.#.#.| | ) E L E E ) _ | ",
"| | _ W W W L L K A A A A K A n Z K L L E W W L L K A Z A Z A K K K L L L L L E E Z n j n n K L W _ | | | _ _ ) W E E E E W ) | ",
"_ _ _ ) ) E E L K A A Z Z Z Z Z n A A L L E ) W E K A A Z A A L K L L E L L L L L n n n n Z K E W ) ) ) W W W E E E L E E E W ) ",
"E W W W E L L L K Z n n n n n n n A A K L E ) ) E L K A Z Z A A K L L L L L L L K n n n n A L W W E E L E E E E E E E E E L E E ",
"L L E L L L K L A n j j j j n n n Z Z A L W ) _ ) E L A Z Z Z Z Z A A K L E L E L A Z n A L E E W E E L L E E E L L E E L L L L ",
"L L K K L K A Z n j n j j h j n n n Z A L E ) _ ) W E L A A A n n n Z K L L L L L K A A K L L W E E E E E E L L L L L L L L L L ",
"E L K K L A Z n j j j h p p j j n n n Z K E W ) ) W W E A A A n n n Z A K K K K K K A A L L E E E E E E E E E E E L L L L L L E ",
"W E K A A Z n j j j h p p p j n n n n n A L E W W W W E K A A A n n Z A A A Z Z A A Z A K E E E E E E L L E E E E L L L L L L E ",
"E L K A Z Z n n j j j j h h j n n n n n Z K L E L L L L L K A A A K K A A A n Z Z A n A A L L L E E E L E W W E L K L L L L L L ",
"K K K K A A n n j j n n j j j n n Z Z A A A K E K A K A A A A A A L L A A Z n n n A K A A K L E E E W W W W W L A A A A K A K L ",
"Z Z A Z A n n n n n n n j j n n Z A K L A K L L K A A Z A A Z K K K L K A Z Z Z A L E L K L E E E E W ) ) E E L A n Z Z n n Z Z ",
"n n n n n n n n n n Z Z n n n n n A A K L L L L K A A A K K K L L K K L L K K K L W W E L L E E E W W _ ) E L L K A n n j j j n ",
"j n n n j h j j n n A A A Z n n Z n Z K L L L L L K L K L E E W L K L E W W E L E E E E L L E E E E W W E L K L K Z n j h p p h ",
"j n n j h p p n Z A A A K A Z Z A A A K L E E E E L L E W W W W E L L ) _ | _ W W W E E E L L E L L E W E L L L L A n j h h h h ",
"j n n n p p h n Z A K A A A A A A A A K E W ) W E E E E ) ) ) W E L E W ) | | _ W E E L E W W W L L L E E L K A K A n n j j j j ",
"n n n j h p h j n Z A A A A A A A A Z K E W ) ) W E L E E E E W W E E W ) | #.| ) ) E L E W W ) E L L E E L K K L K Z j j j n j ",
"n j h h h p p j n n Z A Z A A A A A A K L E E E E E E E E L L E ) W W ) ) _ _ | ) ) ) W W E W ) W L L K L L L L K K A Z n n n n ",
"n j p p h p p j n n n n n Z n Z A A A A K K L L E E L L L L L E W _ ) W ) ) ) ) ) _ _ _ _ W E W E L L K L L L E E E K A K Z n n "
};
