/* XPM */
static char *result[] = {
/* columns rows colors chars-per-pixel */
"64 64 30 1 ",
"  c #252525",
". c #2C2C2C",
"X c #343434",
"o c gray17",
"O c #232323",
"+ c gray11",
"@ c gray9",
"# c #171616",
"$ c #1E1E1E",
"% c gray12",
"& c gray23",
"* c #434343",
"= c #444444",
"- c #3C3C3C",
"; c #4B4B4B",
": c #4C4C4C",
"> c #535353",
", c gray33",
"< c #5B5B5B",
"1 c gray39",
"2 c gray14",
"3 c #6A6A6A",
"4 c gray42",
"5 c #727272",
"6 c gray47",
"7 c #7B7B7B",
"8 c gray45",
"9 c #797979",
"0 c gray48",
"q c black",
/* pixels */
" .XXo OOO++@##++++$% X&&*==-*=;:;;>>>,,,,,<<<><1<>;;*&XX...X..  ",
" .X.2O2o OO$+@+++++% X--***==;>:;:,<<<<<<<<<<,<<<,:=*-&X..XXXo  ",
"o.. O%2oo.o2$++++++%2.X-*;;:;;>>><11111<<<<<<<<<<,:=**-&XXXXX.o.",
"XX.2%$2o.X.o O+++$$2 .X-=>>>>:>>,<133331<,,,<,,<<>:;==*&XXXXX...",
"XX.o2O2o.XX..o 22OO o.X&=>,<,:>>,<1334431,:;:::,,>>;;=*-&&X&XXXX",
"-&.. 22o.XXX....oo  .X-*:,<<<>>,<1134431<,:==;;:>::;;;*------&&&",
"-&..o    XXX&XXXX....X*:><<1<,>><1135411<<:;;;;;:;;;==--**==*---",
"-XX.oo  oXXX---&XX..X&*:<111<,:><111331<<<,:;;;;;;;;=*--**=;;=**",
"-&X.o.oo....&----&XX&-=><<1<,>;>,<<1111<<<<>:;::>:;:=*--*=;;;;=*",
"&XXX..o....X&**--*---*;>,<<,>>;>>,<<<11<1<<>::>,>>:;;*--*=;>>;=-",
"XXXXX....XXX---**;=**=;:,<<<>;:>>>><<<<<11<<,<<<<<,,>;--*;::>:*&",
"XXXXX..XX&&-*----=*==;;;:><<>::,>>,<<<<<111<111111<<<>;*=;;::;*-",
"-X&X&XX&-**-*--&--**=;**=:>>>>>,>>,,<<<13311144554311<>:;;;;;==-",
"&X&&&-*----&&X&X&-*=;;**;::>,,>::>>:,<<14553355678841<,>:;==*---",
"&XX-***---&&X&&X&-**;;===:>>,>;;;::;>><<5695485854411<<>>:=**-X&",
"XXX-=***----&-------*;:;=;>>::=;:>>;;:><307688543<<,<<<,,>;*-&XX",
"XX&*=*-****-----*****=::;;:;==*;>>>>:>>,367765431,>>::,<<,:*&&&X",
"XX-*--*==*****=*-----=;;;;;;==*;><<<,>><15869441<>::;><<<<:;*--&",
"&&*=--***---*=;=*-&&-=:::;=*=;;;><<<,>,<14588541<,,>:,,,,,,,;;=*",
"==;=*--***--*;;=-&&&-;:>>:=*=;;;:,<<<<<1143358431,>>>>:>><<<>:>:",
":;;*---****-*-**----*;>>,>:==;:>>,,,,<11433460841,>::>>>>,<<<,,>",
":;;*&&-*****-------*;,<<<<<;==:>,>>,,<<1344567641<,>>>,,,,<11<>>",
"=;;*-&&--**--&&&&-*;>133431<::;:>,<,<<<<354589531<<,,,,,<<<11<:;",
"***--&XX&&---&&--*=;,134553<,;;;>,,,,<<1466888411<<<<<<<<<<1<,:=",
"**-XXX.XX&-----***=:<134851<>;:::><<<134677654111,<<11<<<<<1<:=*",
"**&XXX.XX------**=:><<1454<>::::;,11134867795311<<<<<<<<<<<<<;**",
"-&XXX...X&--&-**=;:,<<<1<1<>:::;;;>,<15870768411<<<<<<<<<<,>:=-*",
"-&&XX...XX*-&--*;:,,<<<<<,,>;:::=*;:<35678688311<<,,<<<11<,:=*--",
"*---X...X&**---=;><,,>>,,,>:;;=;=**;<4586855531<<,,>,<111<,:***-",
"--&XX...X&**-*=:>,<,,,>,,,>;;**=*==:<144344331<,,>>>,<1<<<,;*---",
"&&Xo.oo.X&--*=>,,,,,<>::>>::=-*=*=;:<1311111<<<>>>>><<<,>:=**-&&",
"X. %$2oXX-**=;:>>::::;;::;==****=;:>,,<<<1<,,<<>>>,,,<<<>;-&--XX",
".o2$$2.X--***=;:;;;**=;;=*--&---*;;;;;:>,,>>>,<<<,,<,<<<>;*--X..",
". O+$ .X&-***===;==*-*==*-&&&-&--*----=:,>>,,>,,>><<,,,<,>;-XXX.",
"2O$+% .X&-*=*=;=====****-&&X&&--&&&&&**:,,>,,>>>>>>,>>><<,:*-&Xo",
"o2OO  .X--***=;;=**=;=**-&XXX&-&X.XX&=;,,,:;>::::>>:;::>>,:=*-XX",
"Xoo.ooX-----*=::;==::=---XXXXX&XX..X-=;,,:;;=;=*=;;;;;;:;::;*-&&",
"&-X..XX&----*=;>>;=:;=*-&XXXXXXXX..X-*;:;;;;=**--==;=;==;;=*&&&&",
"***&&&--*=--**=::;;;;;=*&.XXXX&XX..XX&*=*===*--&-**;;;****&XXXX&",
"-*----***=*--=;::;;;;:;*-XXXXXXX. o..X********---**=;=*---XX.XX&",
"-*---&&X&*;**;:>:==;;>:=*&XXXXXX. OO X-*=****=*--*=;;=--&X&X..XX",
"&**-&XXX&**-=;>:=**;;:>=*--&XXXXXoO%2.-*=******-*=;:>;*&XX&X.o.X",
"&*=*&XoX&**--=;=--*=;;==*---&X.XXo2  o&*=**-***=*=:>>;*--XX.oo.X",
"&-=*&.o.&-*---**&--*****----&..XX.oo.X&**-&--*=*;;:,>;*-&XX....X",
"&---X..XX--&XXXXXX&&&-&X&&XXXXXXXX...X&--XX&--*=;:>>>;==-XXXXXX&",
"---&X...X&XXXX.o..XXXXXXX.XX&&XXXX.X.X&-&XXX&-*:>>>:::;=*XXXXX&&",
"---&X...XXXXX.o  oX&XXXXXXX&***--&XXXX--XXXX&-*:,>:===*-&XX&&-&-",
"--&XX..oo....oo  XX&-&XXXXX-**;=;*-XXXXXXXXX-*=:,>=--&XXX.XX&&--",
"---&X..o .oo    .X&&--&-&XX--=;;;=*&XXXXX&XX&*;:::=XXXXXX.X&&&--",
"----&X.oo..o..o.X&-&-&--&XX&&=;::=*XXX&---&--*;:==*X...X.X&***=*",
"----&.o.....XXXX-----&&-&XXX-*=;;;*X.X&**=**--;;***&....XX-***==",
"*---&X......XX&--------&XXXXX-=;;;*-X&&*=;;***==---&XXXXX&-*--**",
"*---&XX.....XX&-*---&&XXXXXXX&*===*--***=;==*=*----&X...X&--&&&-",
"&XX&XXX.....XX&-&&&&XXXXXXXXXX&-***--*==;;::;=*-----&X.XX&&&XXXX",
"XX.XX.XX....X&&-X&&&XXXX&--&&&&---****=;:>,<<>=*=;*--&XXXX&X&XXX",
"...........X&---&--&XX&-===*-------=;;;:,,<11<<,,>;-XXXXXXXXXXXX",
"o22ooo..o..X----&------;:>:;;=*---=;:>:><<1133111<:*XXXXXXXXXXXX",
"o22OO2 ooo..XX&&&-----=;>:,,::;**=;>>>:,<<<113331<:*&XXXXXXXX.X.",
"o 2$$% o  o...X&&&&XX-=;:>,<>:;==;:>>>:<<<<<11341<>=-XXX..X.....",
".o2+$OO2O22  oo.XXXXX-=;;:>,,>:;;;>>>,,<<<<<1<111<,:*XX...o.....",
"  2+%$%$++%222 o..XXX&*=;;;:>>>>>>::>,<,<<<,<<<11<<:-X.oo  o....",
".o2OO%$++++$$O222o o.X-**==**;:>,,>>>>>,<<<,>,<11<>;-X..o 22o...",
"..oo 2$++@@+++%OO$%2..X&-**--*=>,,>:>>,<<<<,>,111,:=-XX..o  .ooo",
"o.XXo2%$++@#+++++$%Oo.XX-**--*;:::::>>>>,<<,,,11<>==*&X.....o.o "
};
