/* XPM */
static char *result[] = {
/* columns rows colors chars-per-pixel */
"64 64 256 2 ",
"   c black",
".  c #010101",
"X  c #020202",
"o  c gray1",
"O  c #040404",
"+  c gray2",
"@  c #060606",
"#  c #070707",
"$  c gray3",
"%  c #090909",
"&  c gray4",
"*  c #0B0B0B",
"=  c #0C0C0C",
"-  c gray5",
";  c #0E0E0E",
":  c gray6",
">  c #101010",
",  c #111111",
"<  c gray7",
"1  c #131313",
"2  c gray8",
"3  c #151515",
"4  c #161616",
"5  c gray9",
"6  c #181818",
"7  c #191919",
"8  c gray10",
"9  c #1B1B1B",
"0  c gray11",
"q  c #1D1D1D",
"w  c #1E1E1E",
"e  c gray12",
"r  c #202020",
"t  c gray13",
"y  c #222222",
"u  c #232323",
"i  c gray14",
"p  c #252525",
"a  c gray15",
"s  c #272727",
"d  c #282828",
"f  c gray16",
"g  c #2A2A2A",
"h  c gray17",
"j  c #2C2C2C",
"k  c #2D2D2D",
"l  c gray18",
"z  c #2F2F2F",
"x  c gray19",
"c  c #313131",
"v  c #323232",
"b  c gray20",
"n  c #343434",
"m  c #353535",
"M  c gray21",
"N  c #373737",
"B  c gray22",
"V  c #393939",
"C  c #3A3A3A",
"Z  c gray23",
"A  c #3C3C3C",
"S  c gray24",
"D  c #3E3E3E",
"F  c #3F3F3F",
"G  c gray25",
"H  c #414141",
"J  c gray26",
"K  c #434343",
"L  c #444444",
"P  c gray27",
"I  c #464646",
"U  c gray28",
"Y  c #484848",
"T  c #494949",
"R  c gray29",
"E  c #4B4B4B",
"W  c #4C4C4C",
"Q  c gray30",
"!  c #4E4E4E",
"~  c gray31",
"^  c #505050",
"/  c #515151",
"(  c gray32",
")  c #535353",
"_  c gray33",
"`  c #555555",
"'  c #565656",
"]  c gray34",
"[  c #585858",
"{  c gray35",
"}  c #5A5A5A",
"|  c #5B5B5B",
" . c gray36",
".. c #5D5D5D",
"X. c gray37",
"o. c #5F5F5F",
"O. c #606060",
"+. c gray38",
"@. c #626262",
"#. c gray39",
"$. c #646464",
"%. c #656565",
"&. c gray40",
"*. c #676767",
"=. c #686868",
"-. c DimGray",
";. c #6A6A6A",
":. c gray42",
">. c #6C6C6C",
",. c #6D6D6D",
"<. c gray43",
"1. c #6F6F6F",
"2. c gray44",
"3. c #717171",
"4. c #727272",
"5. c gray45",
"6. c #747474",
"7. c gray46",
"8. c #767676",
"9. c #777777",
"0. c gray47",
"q. c #797979",
"w. c gray48",
"e. c #7B7B7B",
"r. c #7C7C7C",
"t. c gray49",
"y. c #7E7E7E",
"u. c gray50",
"i. c #808080",
"p. c #818181",
"a. c gray51",
"s. c #838383",
"d. c #848484",
"f. c gray52",
"g. c #868686",
"h. c gray53",
"j. c #888888",
"k. c #898989",
"l. c gray54",
"z. c #8B8B8B",
"x. c gray55",
"c. c #8D8D8D",
"v. c #8E8E8E",
"b. c gray56",
"n. c #909090",
"m. c gray57",
"M. c #929292",
"N. c #939393",
"B. c gray58",
"V. c #959595",
"C. c gray59",
"Z. c #979797",
"A. c #989898",
"S. c gray60",
"D. c #9A9A9A",
"F. c #9B9B9B",
"G. c gray61",
"H. c #9D9D9D",
"J. c gray62",
"K. c #9F9F9F",
"L. c #A0A0A0",
"P. c gray63",
"I. c #A2A2A2",
"U. c gray64",
"Y. c #A4A4A4",
"T. c #A5A5A5",
"R. c gray65",
"E. c #A7A7A7",
"W. c gray66",
"Q. c #A9A9A9",
"!. c #AAAAAA",
"~. c gray67",
"^. c #ACACAC",
"/. c gray68",
"(. c #AEAEAE",
"). c #AFAFAF",
"_. c gray69",
"`. c #B1B1B1",
"'. c #B2B2B2",
"]. c gray70",
"[. c #B4B4B4",
"{. c gray71",
"}. c #B6B6B6",
"|. c #B7B7B7",
" X c gray72",
".X c #B9B9B9",
"XX c gray73",
"oX c #BBBBBB",
"OX c #BCBCBC",
"+X c gray74",
"@X c gray",
"#X c gray75",
"$X c #C0C0C0",
"%X c #C1C1C1",
"&X c gray76",
"*X c #C3C3C3",
"=X c gray77",
"-X c #C5C5C5",
";X c #C6C6C6",
":X c gray78",
">X c #C8C8C8",
",X c gray79",
"<X c #CACACA",
"1X c #CBCBCB",
"2X c gray80",
"3X c #CDCDCD",
"4X c #CECECE",
"5X c gray81",
"6X c #D0D0D0",
"7X c gray82",
"8X c #D2D2D2",
"9X c LightGray",
"0X c gray83",
"qX c #D5D5D5",
"wX c gray84",
"eX c #D7D7D7",
"rX c #D8D8D8",
"tX c gray85",
"yX c #DADADA",
"uX c gray86",
"iX c gainsboro",
"pX c #DDDDDD",
"aX c gray87",
"sX c #DFDFDF",
"dX c gray88",
"fX c #E1E1E1",
"gX c #E2E2E2",
"hX c gray89",
"jX c #E4E4E4",
"kX c gray90",
"lX c #E6E6E6",
"zX c #E7E7E7",
"xX c gray91",
"cX c #E9E9E9",
"vX c #EAEAEA",
"bX c gray92",
"nX c #ECECEC",
"mX c gray93",
"MX c #EEEEEE",
"NX c #EFEFEF",
"BX c gray94",
"VX c #F1F1F1",
"CX c gray95",
"ZX c #F3F3F3",
"AX c #F4F4F4",
"SX c gray96",
"DX c #F6F6F6",
"FX c gray97",
"GX c #F8F8F8",
"HX c #F9F9F9",
"JX c gray98",
"KX c #FBFBFB",
"LX c gray99",
"PX c #FDFDFD",
"IX c #FEFEFE",
"UX c white",
/* pixels */
"i i u w q q q q i p p p j n n Z Z n A K E ) ) ) _ _ ) W W W ) ) ) W L A A K W ) _ | _ W E E E E K K K Z n j h p i p j j j j j p ",
"i i i e w q e u i h h h j j n n n n Z A K L E E ) ) ) W W ) _ _ _ E L A A K E W _ | | ) W W E L A A A n j j j j j j j j h h p p ",
"j p i i u e w u p j j j n n n n n j n Z A A K K E W E W _ | _ ) ) W E L K L W W W _ | ) W W E L K A Z n n n n n n n n j j h p j ",
"n j p i u u i i p j n n n n n n n n n n n Z Z K K E W ) _ | | _ | _ W E L E W W W ) ) E E L E L A Z n n Z A A A Z n Z Z n j h j ",
"n n j p p p i i p j n Z n Z n n n n n n n n Z K K L E ) | | | | | | ) W E W ) ) ) _ ) E L K K K A n n Z A A K K A A A A Z n j n ",
"Z n n j h p u i p n A A A A Z n n n n n n Z A K L E W ) | | _ _ | _ W W W W _ _ ) ) ) W W L K A Z n n n Z A A K K A A Z Z n n Z ",
"A n n j p i i p j n A A K A A Z n n n A A A L K L W W _ | | | _ ) W E E W _ | _ W ) ) _ _ W E K Z n Z Z Z Z A K A Z n n A n n Z ",
"A Z n j p p h h j Z A A K K K A n n Z K K K L E E W ) | | | _ ) W K K E ) | #.| W W ) ) ) E K K K A A A A A A A Z n n n A Z Z A ",
"Z A Z n n j j n n A A A A K K K Z Z A K L L W W W W _ | | | | _ W L K L W | | | ) ) ) ) ) L L L K L K K K A A A A Z n Z A A A Z ",
"Z A n n n j n n n Z A A A K K K K K K K K W W E E W ) | | #.#.| _ W L E W ) | _ _ ) W W W E W W W ) ) E L K A A Z A Z Z Z Z A Z ",
"A A Z Z n n n Z A A A A A K K K K K L K L L E L L L ) | #.;.#.#.| | _ W W _ #.| _ ) W W W W ) _ _ | | ) E K A A A A A n n Z A A ",
"A A A Z n n Z A A A A A K L K K K K K K L L L K K K W ) | #.#.#.#.#.| _ _ | #.#.| _ _ ) W ) _ | | | | ) E L A A A A Z Z Z A A A ",
"A A Z n n n Z A K L L K L L L A K K A A L E E L K L L E _ | #.#.#.| | _ | | #.#.#.| | ) ) ) _ | #.| ) W E K K K A Z n n A A A A ",
"A Z n n n n A A L W W E W E K A A A A K E L E K K K A K W _ | | | | _ _ | | | #.| | _ _ _ _ | | #.| ) E E K K K K A n Z A K K K ",
"A A Z n Z A A A L W W W W W L K A A A K L K K A A A A K E ) | #.| _ ) | | | | | | | _ | | | | | | | W E K K A K L E K K K K K K ",
"A A A A Z A A A K E L E W E L K A K A A K K K A A A A K W | | | | _ _ _ | | _ _ | | | _ | | | #.| | ) W L K A K L W E E L A K K ",
"A A A Z Z A A A K K K E E L L L L K K A K K K K A A L L _ | #.| | | _ _ ) _ ) _ | | | | | #.#.#.#.#._ W L K K K L W E L L K K K ",
"K A Z n n A A A A L L L L L K L E K K K L E E L K K L W _ | | | _ | _ _ _ ) ) ) _ #.#.#.#.#.#.#.#.#._ E L K K K E E L E E E L K ",
"A n n n n Z A A A K K K A K K K K K K L W W W E L L E ) _ _ _ _ ) _ _ ) ) ) ) _ | #.:.;.;.:.:.#.#._ ) W L K K L E W L E W ) W L ",
"Z n j j n n Z A A A K K K K K K L K L W _ ) L E W E W | | | _ ) W W ) ) ) W ) ) | #.:.:.:.:.;.| | _ W ) E K A L L E W W W W E K ",
"n n j j j n n Z Z A A K K K K K L K E W ) W L E W W _ | | | _ ) W W ) ) ) W W | #.;.:.4.:.;.#.| | _ _ _ ) L K K K L L L L L L K ",
"n n j j j j n n n Z A A K K K K K L L E W W E E E W W _ | | | _ ) ) ) ) ) W ) | #.;.4.4.:.#.#.| #.#.| | _ ) W E K K K K K K A A ",
"Z n j j j j j n j n n Z K K K K K K K K L E W E E W W _ | | | _ ) ) ) _ _ _ | | #.;.:.:.:.;.;.#.:.:.#._ ) _ ) E L K A A A K A A ",
"n n j j h j j h j n Z A K K K A A A A A K L L K E E W _ _ | #.| ) _ _ | | _ | | | #.#.;.#.:.:.:.4.4.#._ E E L K A A Z A A A A A ",
"Z n j j j h j h j n Z A A K K A A A A A K K A K E W W ) ) _ | | _ ) | | | | | | | #.#.#.#.#.:.0.q.4.#.W L K K A A n n Z A A A A ",
"A Z n j h j j j j n n Z A K K A A A Z A A A Z A K E ) ) ) ) _ _ ) ) _ | | | | | | #.#.#.#.#.;.4.4.4.#.W L K A A Z n Z A K K K K ",
"L Z n n j j j j n n n Z A K A Z n A A A n n Z A K E ) W ) ) ) W W W ) | _ | #.#.#.;.;.;.;.#.#.:.;.;.#.) E L K A A Z A A K L K L ",
"E K A Z n j j n n n n Z A A n n n n Z n n n Z A L W W W W W W W W W ) | | | #.#.#.:.:.4.;.#.#.#.#.#.| _ W L K K K A K K L E E W ",
"W L K Z n n n n Z Z n n n n n n n n n Z n n Z A L W W W ) ) ) _ ) ) _ | | | | #.#.:.4.4.#.#.| | | | | _ W W E L L K K K E E W W ",
"W L K A n n n n n n Z n n n n n n n n A A Z Z K E W ) ) ) ) _ _ _ ) _ ) ) _ _ | #.;.:.;.#.#.| | | | | | _ ) W E E K K L W W W W ",
"W E L A Z n n n n Z n n n Z Z Z n n n Z A A K L E W ) ) ) _ | _ _ ) ) ) ) ) ) | | #.;.#.#.#.#.| | | #.#.| _ ) ) E K L L E E E W ",
"W E E K Z n n n n n n n A A A A A Z Z A A K L W W W ) W ) | | _ ) _ _ ) ) W W _ | #.#.#.#.#.#.| | | | #.#.| | _ W E L L K K E W ",
"E W W L A A Z Z n n n Z A A K K A A A A K L E W W W W W W _ _ _ ) | | _ W E E ) _ | #.#.#.#.#.| _ | | #.#.#.#._ W W W E K K E E ",
"E ) W W W E L K A Z n Z A K K K A A A K L L W W W W W E L E W ) | #.| _ W E K E _ | #.| | | | | _ | #.#.;.#.#.| ) ) W E A K L E ",
") W W W W W W E K A Z A K L L K A A K L E E W W _ _ W E A A L E _ | | _ W E L W _ | | _ _ _ | _ ) ) | #.;.#.#.#.| ) W E K K L E ",
"W E E W ) W ) ) W K K K K K L K A A L L E W ) ) | _ W L A Z Z K W | | ) W E E W _ | | ) ) ) _ ) _ _ | #.#.#.#.#.| | ) E L L E W ",
"W W E W ) _ _ _ ) W E K A A A K A A K K L W _ _ | _ ) L K n n Z K E W W E E W ) _ | | _ ) ) ) ) _ | | | | #.#.#.#.| ) W E E W ) ",
"W E L W ) | | | | _ ) E K A A A A A L E E ) | | | | ) E A n n n A K E L L E ) _ | | #.| | _ ) ) _ | | #.| #.#.;.#.| ) W E E ) ) ",
"W L L W _ | #.#.#.| ) E K K K A A K E W ) ) | | | | W L A Z n n Z A K K K L W | | #.#.#.#.| _ _ | | | #.#.#.#.#.#._ ) W W W E W ",
"W E L ) | #.#.;.#.#._ E E E L K K K W ) ) _ | | | _ W K A n n n n Z A A A K W _ | #.#.| | | | | | | | #.#.#.#.#.#._ W W W E L E ",
"W W E W | #.#.#.| | | ) W E E L L L W ) | | | | ) ) E K Z n j n n n Z Z A A L ) | | | | _ | | #.#.#.#.#.;.:.#.#.#.| ) W E L K E ",
"W W W W _ | | | | | _ | ) W E L E E W _ | | | | _ W L A Z j j n n Z n Z Z A K E _ _ _ ) ) ) _ | #.#.#.#.;.4.:.#.| _ W W E L K L ",
"W W W W ) _ | | | _ ) ) W W W W W ) W _ | | | | | W L A Z j j j n Z n n A A A K E E E E W ) ) ) | | | _ | ;.4.;.| _ W E W E L L ",
"E W ) _ ) _ _ ) W W ) ) W W W W ) ) ) _ #.| | | | ) W E K Z j j n n n n Z A A A K K K A K E E W ) | _ | | #.;.#.| ) W L W W L L ",
"W W ) | _ W W E L L E W ) W W W ) _ _ | #.| | | | ) W E K Z n j j n Z Z A A A A A Z Z n n A K W W _ ) ) ) | #.| _ W E W ) ) E W ",
") ) ) ) ) L L K A A K E W W W W _ _ ) | | | | _ _ W E K A n n n n Z A A A A A A Z n n n n Z K E ) ) W W ) _ _ ) E L E L E W ) _ ",
") ) ) W E L K A n n Z A L L E W E W ) _ _ _ ) E L K A Z n n n n n A K E L K A A n n n n n A L W ) ) ) ) W W W L L K L K L E W ) ",
") ) ) W L K A n n j n A K L W L K K E W ) _ ) K A A Z n n n n n Z A K E W L A A n n n n A K E W W _ ) ) ) ) W E E K K L L K E ) ",
") W W W L K A n j j n n A L E K A A L W ) _ W K A Z n j j n n Z A K K E W E L A n n Z Z A K L W ) ) _ ) ) ) W E L K K K K L ) ) ",
") ) W W L A A n n n n Z A K K K A Z K E E W L A A n n h j n A A A A K K K E L A Z Z A A A A L W ) ) W W W W E K K K K A K L E ) ",
") ) ) E K K A n n n n n n Z Z A Z A A K L K A Z Z n n j j Z K K K K K A A K K A A A A A K K E W W E L K K L L L K K K A K L E W ",
") ) ) E L K Z n j h j j j j n n n Z A A A A Z n n n n n n A K K K K K A K A A A A A A K K K E W E L K A A K K L K A A A K L W W ",
") ) ) E K Z n j h i p p j j j n n Z A A A Z A Z n n n n Z A K K K K K K K A A A A A A K K L W E E L K L K L L L K K K K K L E ) ",
"_ ) W E A A n j h i i i p j j j n n Z A A n Z Z n n n n n A K A K A A A A Z Z A A A A L L E W W W E L W E W W L L L K L L E W ) ",
"W E E L A A n j h p p i p h j n n Z n Z Z n Z A Z n n n n Z A A A n n Z Z n n n K K L E E W ) ) ) W W _ ) W W L L L K L W W W W ",
"L K K K Z n n n j h p i p h j n n Z A Z Z A K A A Z Z Z Z A A A A n n n Z n n Z A K E W W ) _ _ W W W ) W W E L L E E L E E E L ",
"A A A A n n n j j h h p p j j n Z A K K A A L L K K K K A A A Z n n n n n n Z A K L E W ) ) | | ) W ) ) W E K K K L L K K K K K ",
"Z Z Z Z j h j h h j p p p j n n Z A K K K K L L E E L K K K A A A n n n n Z A A E W W W W ) | #.| | W W E K K A A A K A A n Z A ",
"n j j h h p p i h h p i h j n n A A K K K K E E W W E L L L K Z Z n n j j n A K E W ) W W ) | #.#.| _ ) L K A A A A n n n n n n ",
"n j h i i i i p h p p h j n n Z A K K K K E W W W W W E W E K A A Z n n n n A K E ) _ ) W _ | #.#.| _ W L A Z Z Z n n n j j n n ",
"n j p e w e e u i p p h j n n Z A A A A K W W _ ) W E E W W E L K A n Z A A A K E W _ _ ) | #.#.#.| ) W L A n n n n j j j j n n ",
"j h p e w q w u i u p j j n n Z A A Z K E W ) _ _ W W W ) ) ) W L A A Z K K K L ) _ _ ) ) _ | #.| _ W E K A n n j j j j j j n n ",
"j i u u w q q e e i p j j j n A Z A A K E ) | | | _ ) W ) ) ) W L A A A A L E E ) _ ) W E ) _ _ _ E E L A Z j j h h n n j n n n ",
"h i w e q 0 q w i i p h j n n Z A Z A L W ) _ | | | ) W W ) W W E K K A A L W W ) _ ) L K E W W E L K K Z n h p i p j n n n n j "
};
