/* XPM */
static char *result[] = {
/* columns rows colors chars-per-pixel */
"64 64 206 2 ",
"   c #362C27",
".  c #3E342F",
"X  c #453936",
"o  c #493E3B",
"O  c #3D4539",
"+  c #4D433F",
"@  c #4A3F49",
"#  c #3D6343",
"$  c #357C56",
"%  c #4C494E",
"&  c #524640",
"*  c #524844",
"=  c #574A44",
"-  c #544B48",
";  c #584E48",
":  c #5A4A4E",
">  c #4C5B4B",
",  c #5D524B",
"<  c #59504E",
"1  c #5E5551",
"2  c #625054",
"3  c #605854",
"4  c #645A56",
"5  c #61575B",
"6  c #645E5F",
"7  c #695C5A",
"8  c #536751",
"9  c #58705B",
"0  c #69605C",
"q  c #6E635F",
"w  c #646E5D",
"e  c #6F795E",
"r  c #785F68",
"t  c #6A6061",
"y  c #6E6663",
"u  c #706366",
"i  c #726A66",
"p  c #726B6B",
"a  c #776D6A",
"s  c #77706E",
"d  c #7C6D70",
"f  c #797270",
"g  c #7B7271",
"h  c #7C7575",
"j  c #856D72",
"k  c #807876",
"l  c #877679",
"z  c #817B7A",
"x  c #867D7B",
"c  c #8A7B7F",
"v  c #3AAA3B",
"b  c #139457",
"n  c #1D9B53",
"m  c #1F9F53",
"M  c #1B9E57",
"N  c #16985E",
"B  c #1A9A59",
"V  c #1B995B",
"C  c #1F9B59",
"Z  c #1F9E58",
"A  c #1D9B5F",
"S  c #1C9C5C",
"D  c #1E9F5C",
"F  c #1F9F5F",
"G  c #2C8445",
"H  c #229949",
"J  c #339C43",
"K  c #248C58",
"L  c #2D9F52",
"P  c #289956",
"I  c #219F5B",
"U  c #209C5C",
"Y  c #2D9E5E",
"T  c #389D57",
"R  c #1FAA4F",
"E  c #0EA055",
"W  c #1EA456",
"Q  c #15A658",
"!  c #1EA25C",
"~  c #22A149",
"^  c #33A64B",
"/  c #29B04B",
"(  c #27A453",
")  c #27A159",
"_  c #26A65A",
"`  c #23A05D",
"'  c #22A45D",
"]  c #2EA65A",
"[  c #2DA35E",
"{  c #24AB58",
"}  c #2DAC5A",
"|  c #32A655",
" . c #34AF55",
".. c #3AA851",
"X. c #3EAE5B",
"o. c #39A85C",
"O. c #2EB25B",
"+. c #34B653",
"@. c #1A9961",
"#. c #1F9C62",
"$. c #189967",
"%. c #219A60",
"&. c #249F61",
"*. c #26A460",
"=. c #20A064",
"-. c #21A860",
";. c #2AAA60",
":. c #3EAE64",
">. c #428F53",
",. c #4E815F",
"<. c #46AC43",
"1. c #40AF4E",
"2. c #5EB346",
"3. c #46A052",
"4. c #4EAD55",
"5. c #47BB53",
"6. c #5EB558",
"7. c #71BC4F",
"8. c #7D8D6D",
"9. c #639A6A",
"0. c #6D8471",
"q. c #4CA06A",
"w. c #4AB361",
"e. c #54B866",
"r. c #5DBD68",
"t. c #47BB79",
"y. c #51CA40",
"u. c #58C054",
"i. c #68C15B",
"p. c #7DE95F",
"a. c #49C86A",
"s. c #78C565",
"d. c #6AD264",
"f. c #66C078",
"g. c #6FE073",
"h. c #8B827F",
"j. c #80C957",
"k. c #8DCA59",
"l. c #8CD85B",
"z. c #98D255",
"x. c #A8D656",
"c. c #8AE75C",
"v. c #9DE95B",
"b. c #B4E35F",
"n. c #BAF75F",
"m. c #81CE6D",
"M. c #80D760",
"N. c #97D769",
"B. c #9BDB76",
"V. c #A9D66E",
"C. c #BCDB67",
"Z. c #8FE972",
"A. c #A4E563",
"S. c #BDEB6F",
"D. c #AAF662",
"F. c #A6E978",
"G. c #B0E271",
"H. c #B6E77B",
"J. c #CFE54F",
"K. c #C2E867",
"L. c #CAEE60",
"P. c #C6F56D",
"I. c #D1F463",
"U. c #D5FD68",
"Y. c #D1F170",
"T. c #D9F774",
"R. c #EBFA6D",
"E. c #E0FE71",
"W. c #EBFE7F",
"Q. c #967E84",
"!. c #868080",
"~. c #898482",
"^. c #8E8583",
"/. c #8C8485",
"(. c #8C8888",
"). c #928887",
"_. c #928D8B",
"`. c #9A888C",
"'. c #9D9F84",
"]. c #98908E",
"[. c #939191",
"{. c #9E9493",
"}. c #9F9999",
"|. c #A59B9A",
" X c #A79F9F",
".X c #A7A39C",
"XX c #AAA5A4",
"oX c #B1A8A5",
"OX c #B0AAAA",
"+X c #B4AFAE",
"@X c #BCB1AD",
"#X c #BDBCA9",
"$X c #B8B4B4",
"%X c #BFB7B6",
"&X c #C5BCBB",
"*X c #B4F18B",
"=X c #8DD3AC",
"-X c #B6E1A0",
";X c #C6EC81",
":X c #CFFA80",
">X c #DAF485",
",X c #CBC4C2",
"<X c #C3C3C8",
"1X c #D1CCCA",
"2X c #DDD7D7",
"3X c None",
/* pixels */
"z ~.(.[.!.7 ).XX X!.6 (.{.{.1X].+ 3 h.h.; o q z t 6 /.h.g 3X<X1XOX X1XOX, = 3 k i p (.).q   * 7 y z a t 0 g < g +X+X/.o 6 z (.(.",
"i 3 p g _.< ; 1 1 y s ~.~.g {.< o o . . - h.OXXX{.6 + k 4 f }. X|.$XOX(.t 1 1 y + i p + + s ~.5 + q *   + 5 ). XXX%X,Xz h 6 6 z ",
"0 q 4 k x +   + < ; s s k |.g X o 0 3 0 y z z ~.}.oX0 & ; a h._.}.~.!.[.|.+X^.    o   1 }.2X1X,X1   < 3 ).{.].t z h.OX}.!.p XX).",
"o = ; + X . y oX1Xy 3 4 i _.^.].y ).}.oXk /.s z &X+Xg X   0 _.y ~.k (.}.%X Xt   o ; k ].].XX].oXh x oXi i /.!.+ 0 * * 3 s (.}.q ",
"& , * & 1 o i  X{.y y g p 0 +X}.. y }./.!.}._.[.2XXX<   ; - k (.z ].z !.1X+X< ; h.s s _. X^.; ; z s 0 4 < g i - X - < 3 p p z i ",
"(.~.(.&X.X. X , o o 7 1 6 6 .XOXz o z s y _.(.z _.XX!.o , 4 z +X~.z {.z XXXX+ 4 h.k _.x +X2Xi   |._.< & 0 , ; & ; .X%Xi 6 s p XX",
"(.!._.$X$Xs ; = = & o 1 k z _._.OX X- 0 i y h ~._.].OXOX. 0 !.h ).!.x !.0 * & = 0 ~.[.!.+X+X0   a a 0 x ; & + o q @X).4 t y 6 p ",
"].(.(.h ~.$X}.- & & & * ).p s k XX X3 X 3 a x h.k c $X1X- < z ~./.s k a , . ; 1 s !.[.(.OX(.o o X , ^.].).@X+X-   3 < o ; y 4 - ",
"~./.(.(.~._.+Xg X o , * 0 !.~.!.XXz . & = 0 i l l u $X&Xo 2 u d c p l i . & g p {.}.!. Xz X o , h._.g x XX$X+Xp + X + ; * 1 7 - ",
"s z !.!./.~._. Xg * ; 3 * 7 ~.h.a ).k + * < - h ^.k oXoX, > > w 8 w y ; X 7 `.h /.}.OX%X< * 3 0 ^.z ~./.XX+X!. X+X; X + ; & - X ",
"p g z z ~.~.z z +X}.* - 1 + q g a |.%Xh.* - 2 5 6 p 9 >.T L ( L L T >.,.6 d l `.%X$Xt * u ^.h.h !.p g +X,XXX6 5 _.a - * 1 & ; 4 ",
"< y s h a 0 s _..XXXp o - < 5 s k ^.oX1X0 O > 8 ,.>.T } O.O.O.O.O.} } :.q.9.0.[.&X`.. * ).`.h z |.}.[.!.}.%X+ * |.&X%X3 o y {.x ",
"+ 1 y s 3 - z _.z ^.).x 1X!.o y c Q.{.z ,.G ) a.g.g.Z.Z.Z.F.F.F.F.Z.Z.g.g.a.a.:.q.9 + 7 q a h {.}.&X$X Xu ; y +XOXOX_.* - oX^.. ",
"+ o + * = 0 i h g x ^.^.,X1X; < !.0.0.9.e.a.a.g.D.n.n.L.L.L.L.I.I.I.U.n.D.Z.d.a.:.w.,.9 p ; ].oXoX XXXOX7 1 h.}. X(.a o o t 7 * ",
"1 - ; ; , , q a q y h.).XX2X(.# T o.d.g.M.v.b.x.7.6.4.4.3.T T T 3.3.4.i.j.A.P.D.Z.g.g.f.q.0.&XQ.d : . + k ].s [.!.XX,X_.[.[.+ y ",
"a h z a , * 1 i 4 q g h. X.Xq.^  .d.M.v.n.J.J.k.P F @.@.#.=.F A U U V N V | j.b.K.n.Z.p.d.t.=X8.  . < q k }.[.(.h ~.|.oXOX}.o & ",
"6 s 4 * & ; & + ; 4 q q 7 # J 5.d.l.l.i.4...Y U ` F S A V V S V V V C C Z C U o.q.e.s.c.v.d. .t.$ 0.u d g h [.z z ).0 + X * ; a ",
"< 0 * * & = , 3 1 * , , % $ 5.d.l.i.T N N $.@.F D D I I U I Z I U C I C I F F =.@.@.@.w.l.A.M.w.t.,.6 c x /.(.t ~.i   * 7 * o 4 ",
"+ 1 1 ; * , i ].OX{.; 5 '.;XD.v.u.) M D A A A I Z m m m Z Z n n C n n P P C U #.A #.#.$.Y 7.b.l.g.f.6 u c ].[.[.t X . 1 a _.i   ",
"+ ; , ; & 1 !./.{.oXz < V.D.A.6.n D D D S D I m ( | | o.X.X.o.X.| ] T T T P P U U A #.#.=.#.i.x.l.Z.9.6 x /.l 2 X o < s z _.XXz ",
"* ; ; ; 1 i k h.x ].$X@X2./ +.I D S I Z W n n L B.;X;X:X:X:X:X:X:XP.;X:X:XF.} n n C %.#.#.=.&...u.d.-X'._.t : & o 4 p [.OX X!.|.",
"; < 1 ; 4 s g g _.h.}.,X4.R W C S F Z m B o.r.N.Y.T.Y.S.b.b.b.b.K.K.K.Y.Y.B.e.w.) C U %.#.#.&.` | u.l.-Xi : + & 1 y k }.+XXXz _.",
"+ & < 1 0 i a g ).].{.'.<.R m I D I B P s.S.Y.L.k.u.1.1.....^ ..^ ^ 1.1...6.H.:XS.:.N &.%.%.#.&.` ^ 2.9.% % u ).k z z (.$X+Xz {.",
"0 < + - 4 7 4 y g h.Q.8.v Q Z Z ! B Y N.Y.L.z.2.^ L ( _ _ _ _ *.*._ { { / 5.l.b.Y.:Xe.V ` &.#.F *.m  .G % u |._.!.!.(.k +X|.p ^.",
"}._._.p - & + = , ; + # ^ E W W E :.G.L.z.4.L ] ] _ I I I U U &.A F ! ! _ ( | L o.N.E.s.` F ` F D I W o.8 r ).]./._.}._.5 - < ; ",
"z z _._.4 * = = , ; + G m Q Q Q :.C.J.7.| W _ ) Z I I Z I D S U A S S D I ` ' -.' L k.U.M.I ` ` F I m { >.j x a s z y 1 + * g 3 ",
"s s z ~.(.y * X & + 9 Z E Q Q :.S.K.6.) ` ) U Z Z Z C Z U Z S S A A V #.A A I D ' *.P 7.L.l.) U U D I W P 0.d i y * X i  X$X$XOX",
"4 0 h !.!.].x 5 - - $ E Q Q -.V.J.6.[ ` ` U C C C C C C I I D S S S V A %.U U D D ! *.) 7.L.m.U U D D Z W ,.u 1 + - 1 i +X%X$XOX",
"* 1 6 s k ^.oX$X$X.XP E Q W m.K.7.[ I I U U U C U U I I C B C B B S U U A %.%.#.F D ' *.U 7.P.m.#.` Z M Q $ @ - l `.h.c h XX&X{.",
"o * < a k x {.oX+X#Xo.E Q e.K.j.] ' ` C V U U U ` C P L o.:.:.:.:.] ) ` ` U %.%.%.%.=.F *.| j.S.r.Z ) Z Q K 5 r ^.d h.x ).k +X].",
"o = * ; 0 d ]. XoX#XT Q w.V.x...' ' S C C U U U n [ m.;X:XE.E.E.T.T.K.r.V ` F #.%.#.#.#.*.;.| k.H.w.m W Q K 5 u d h.!.h _./.- = ",
"; = & & = , 7 a |.[.H +.M.S.6.) ' M B V C U A b w.F.Y.K.x.z.z.z.z.V.K.Y.d.U U &.%.#.#.#.=.*.*.4.S.B.( W Q %.p c c {.z z !.6 X * ",
"+ + & + + = = = : O G u.v.A..._ Z C U U S C N e.P.x.2.J L H H P ~ H H 7.U.F.[ A &.#.#.%.#.&.*...z.;Xe.Q Q %.6 u l l ).k * o < + ",
"1 4 , < 0 ; , : = O 3.M.v.i.( W B S V S ` N r.P.z.2. ._ _ ' ` ` _ { } ^ 7.L.F.[ &.&.#.#.#.#.` | 2.G.m.{ { I 3 u d h.c - + 5 p 3 ",
"i a x h !.^.&X].+ 8 s.c.l...m W D U C U =.w.P.z.<. ._ ' F F S A M ! _ } L 2.I.A.&.&.F #.#.#.F ;.^ j.H.u./ W 1 2 < * o 3  X$X$X.X",
"1 0 ~.!.k x +X%Xp > N.v.i.L m Z V B ` A =.A.b.3. ._ ' D S A @.@.#.A ! -.O.| 7.I.s.Z *.F #.#.A ;.( 7.H.M./ _ - @ - < + 4 $X$X1XoX",
"; 3 z z !.k x ).|.+XF.c.5.m M B B B D N f.U.7.| _ ' F F @.@.@.@.@.@.@.! _ ;.) 7.T.r.Z ` A A #.-.( i.;XN./ { 9 r d c ^.x z }.&X|.",
"+ < i (.!.!./.).$X1X*Xc.5.m M V V V D U H.K.J ] ' F A @.N @.@.A N @.@.A ! -.-.| Y.V.) Z A A A F m 6.H.B.+.R 9 j l c ^.(._.z &X|.",
"* < 3 g h.!.c ).1X,X*Xc.1.m M V V S B o.E.z.L _ ! F A @.@.N N V @.@.@.@.A ! *.) G.S.[ I S A A ` m 6.;XB.+.R 8 j ^.).g /.!. X,X{.",
"+ = 3 q a x /.c XX%X*Xp.1.n B V N V b w.W.k.L _ D A @.@.$.N o.P @.A @.@.@.D *.I V.T.o.Z F A S F M e.;XB.+.R # r c l u {.k x &X.X",
"& ; 4 7 ; , q 4 : 3 H.p.1.m B V V S b e.W.k.) _ F A @.#.$.X.J.L.e.b A @.A F ` ) V.E.X.n S @.S ` M w.;XF.+.R 8 2 u l k 0 < o & & ",
", , , 4 = = 1 2 : 1 H.p.1.m M S V V b r.E.k.) _ F @.@.$.$.o.J.J.4.b V A A F *.[ V.T...M S V S D M w.;XF.+.R > X : t o . + 3 0 + ",
"+ & + ; = = = & 2 y H.p.1.m M B V U b e.E.k.) _ F A @.$.$.$.P K b V N A S ` *.*.G.T.o.M B S B D n 4.;XF.+.~ 0.l : o X i OX&X,X@X",
"< , ; & 1 1 , = & 1 H.c.5.m M B V U N w.E.z.[ _ F #.@.$.$.$.$.$.%.N A S I ' *.*.S.K.( W B V B D m w.;XF.+.~ 8.Q.2 : < t %X%XXX|.",
"_.].]._.%X%X,X X2 t H.c.5.( Z S V V @.Y P.b.o.;.-.=.#.$.$.$.#.#.@.@.A *.' } ;.:.T.N.m m B B B Z m w.>XB.+.~ e j ).)./.].s oXOX{.",
"h h x ].{.|.%XoXd d H.c.u.( W U A S %.V m.E.6.} } ;.*.#.#.#.@.#.#.#.F *.}  .| s.U.e.Z M B B C I M e.>XN./ R e j x c k ].k p %X@X",
"y p s z ).x h.|.@X1X:Xc.i.} _ I S V %.%.Y K.S.w.} } ;.*.&.=.=.F &.=.*.;.| ..i.P.l.) M M B B n ` Z f.>Xm.R R w r 4 p z !.s * - , ",
"t s g x ^._.z k @X1XF.M.M.1._ I U A %.#.$.4.P.S. .} } ;.*.&.F ' *.-.;. ...6.P.S.[ I D B B C Z [ [ m.Y.u.R W 0 r i d a 1 X . o X ",
"y y i h x ^.y ; 2 > 3.u.D.i.| ] U %.%.#.=.%.3.Y.S.5.} } ;._ *.;.{ { } | s.P.P.X.C Z S V V D ) ( e.;XN.{ Q U * o + * , ; o 3 ,X@X",
"0 4 7 0 a a ; & q > J 5.n.N...] ` %.%.#.#.&.%.X.L.U.i. .} } } }  .O.w.m.U.S.o.B ' S V V S I ) L B.>X5.R Q %.@ X * - * & . i &XoX",
"; 4 0 q 0 = * ; , > ^ / M.I.4.*.[ &.%.%.#.A &.&.L x.R.L.l.M.l.M.N.G.Y.E.l.] ! ' S S S S Z ) Z w.W.B./ R E %.Q.`.).{.+X%X. . &   ",
"+ & ; , = o * , 2 8 ^ R X.K.N.[ [ Y %.#.A #.#.&.&.P 7.L.R.R.R.R.R.R.K.i.m ! ' D D B S I ) _ P G.Y.X.( W E K Q.`.k ).{.XXs + , o ",
"& , , & o ; .X&X&X'.J R Q 6.Y.i.[ [ &.&.%.#.#.%.&.&.V P 3.4.4.4.1.^ L D ` D D S D D Z ' ' ) N.T.r._ m M E K c `.c x ]._.+X{.o 7 ",
"& & + * , q {.,X2X@XJ R Q W k.Y.6.[ [ &.&.%.A #.%.%.=.=.=.D S S D ' ' ' F D D M Z ' ' ' M s.E.j.) I M M Q T Q.`.{.x d k XXOX!.o ",
"* , g h._.).^.`.%XoXJ R W -.( x.K.w.[ [ *.&.&.#.&.#.%.#.=.=.=.#.F F S F D D Z I _ _ -.S s.T.j.~ Z M M M Q >.r p z ^.).{.!.}.%X.X",
"* 1 x ^.k x l h.{..X>.~ W Q =.L x.K.w.] ] [ &.&.&.&.&.#.F F F F F F F D D Z ! ' -._ | m.E.l.~ n m M Z n +.3.% h 6 s k }.s z +XXX",
"* 1 k ^.~.x ).).`..X3.R m W ' =.P x.I.i.] ) [ *.*.&.&.F F F F F D D I D ` _ W { -.:.V.U.j.H m m n M n ~ M.V.@ 6 t h.!.z + X * = ",
"; 3 k ).).h.^.h.c w J R m m M ` =.) x.R.j.| L L [ ) [ ` ` ` ` ` ` ` ` _ ] +. .^ w.F.T.s.n n m n n Z C ^ n.C.@ < 6 u a g < 1 y X ",
". . X X . .   . o O J / ~ m Z Z I #.V j.R.P.N.6.L ] ] ] ] ] [ [ [ _ _ ( ( X.B.G.T.P.u.n C C C Z n ) C X.n.V.@ @ @ X X 4 oX%X,XoX",
"1 3 1 3 1 1 y 7 o & j.5.^ m m Z D ` &.n 7.T.W.V.6...| | | | | | | o.:.e.r.m.>XW.S.5.m ) Z C C m ) n o.p.p.9.< 1 * i 4 t &X%X%X@X",
"^.).^.^.].^..XoX: , n.p.+.~ m m Z Z I ) H <.2.k.>X>X;XS.H.H.G.G.G.S.Y.E.W.E.z.2./ m I I I Z m W ( ^ c.D.y.G 7 7 c |.^.s ^.+X%X{.",
"k h h z z ^.|.{.2 * v.p.+.e.X.n n C C C I Z ~ <.j.x.C.K.K.Y.Y.T.Y.L.L.b.z.7./ R W ' ! D M n L ..J M.D.y.v K 7 j t c {.].~.s oX&X",
"p p i g z z ^.l t O 2.y.d.*X;Xs.I C C C B C m ( ~ J J v v v <.<.<.v v ^ ^ / { W M M S M M M m.S.N.Z.u./ / b % r 2 a ~.g }.~.; i ",
"i y 6 y x !.).j 5 > >.v F.;XR.K.P b V U V S S I ) ] | ............| | ] ;.' F S S A @.N E w.C.R.E.M.o.Z E K % : t /._.!.~.~.. . "
};
