/* XPM */
static char *_f0589f45b3f4bdab34df199fb33265aI86OPjUbWCg6pfkk[] = {
/* columns rows colors chars-per-pixel */
"64 64 7 1 ",
"  c #805E36",
". c #8B673C",
"X c #997140",
"o c #664D28",
"O c #6B5332",
"+ c #5B5B5B",
"@ c gray48",
/* pixels */
"    ..XX..XXXXXXXXXXXXXX..XXXXXXXXXXXXXX..X.XXXXXXXXXXXX....    ",
"  ...XXXXXXXXXXXXXXXXXXXXXXXXXXXXXXXXXXXXXXXXXXXXXXXXXXXXXX...  ",
" .oooooOOOooooooooooOOoo OOOOOOOOOooooooOOOo OOOooooOOoooooooo. ",
" .oooOOOOOOOOOOOOOOOOOOo OOOOOOOOOOOOOOOOOOo OOOOOOOOOOOOOOooo. ",
"..ooOOOOOOOOOOOOOOOOOOO  ..............  Ooo OOOOOOOOOOOOOOOooX.",
".XoOOOOOOOOOOOOOOOOO  ...X................   OOOOOOOOOOOOOOOOoX.",
".XoOOOOOOOOOOOOOOO    ...X.X.........X.....   OOOOOOOOOOOOOOOoXX",
"XXoOOOOOOOOOOOOO . .  .....X........XX.....  .. OOOOOOOOOOOOOOX.",
"XXOOOOOOOOOOOO .....  .X..XX........XX..... ..... OOOOOOOOOOOOX.",
"XXOOOOOOOOOOO .....X ..X..X.........X...... ...... OOOOOOOOOOOXX",
"XXoOOOOOOOOO .....XX .XX.......X.....X..... X...... OOOOOOOOOoXX",
"XXoOOOOOOOO ......X. .XXX.....XX.....X..... X....... OOOOOOOOoXX",
"XXoOOOOOOO ......... .X.X.X...XX.......X....X........ OOOOOOOOXX",
"XXoOOOOOO .......... .X...X...X........XX............. OOOOOOoXX",
"XXoOOOOO .....X.........X.XX..X....X..XXX...X.......... OOOOOOXX",
"XXoOOOOO......X.........X.XX..X....X..XXX...X...........OOOOOOXX",
"XXOOOOO ......X....X....XX.X.......X..X.XX. X....X...... OOOOoXX",
"XXOOOOO............X....XX.X...X..XX..X.XX. XX...X.......OOOOoXX",
"XXoOOO ....X.......X...XXX.X...X..XX....XX..XX.X.XX...... OOOoXX",
"XXOOOO.....X...........XX......XX.XX.X.XXX..XX.XXXX.......OOOoXX",
".XoOO .....X..X.......XXX.X...XXX.XXXX.XXX..XX.XXXX....... OOOXX",
"XXoOO .....X..X..... .XXXXX...XXX.XXXXX.XXX.XX.XX.X....... OOOXX",
".XoOO......X.XX....X .X.XXX...XXXXXXXXXXXXX..XXX..X.X......OOoXX",
".XoO .....XX.XX..X.X .X.XXX.X.XXXXXXXXXXXXX..XXX....X...... ooXX",
"XXOO .....XXXXXX.X.X ...XXX.XXXX.XXXXXXXXXX..XXXX..XX...X..   X.",
"XXOO......XXXXXX.XXX ...X.X.XXXX..XXX.XXXXX...XXX..XX..XX...OOX.",
"XXoO...X..XX.XXXXXXX...XX...XXXX..XXX.X.XXX...XXX.X.XX.XX...OOXX",
"XXoo...X..XX.XXXXXX....XX....XXXX.XXXXX.XXX.X.XXXXX.XX.XX...OOXX",
"XX  ...XX.XXXXXX.XX. .XXXX...XXXX.XXX.X.XXX X.XXXXX.XXXXXX..OoXX",
"XXOO...XXXXXXX.X.XX. .XXXX.X.XXXX.XXX.X.XXX X.XXXXXXXXXXXX..OoXX",
"XXOO...XXXX.XX...X.. .X.XX.XXXXXXXXXX...XXX XXXXXXXXXXX.XXX.OoXX",
"XXOO..XXXXX.XX...... .X.XX.XX.XXXXXXXX..XX. XXXXXXXXXXX.XXX.OoXX",
"XXOO..XXXXX.X.++++ . ...XXXXX.XX.XXXXX.XXX. .XXXXXXXX.X.XXX.OoXX",
"XXoO..XXXXX..++++++  ...XXXXXXXX.XXXXX.XXX. .XXXXXXXX...XXX.OoXX",
"XXoO..X.XX..+@@@++++ ...XXXXX.XXXXXXXXXXXX. XXXX.XXXXX..XXX.OOXX",
"XXoO..X.XX..@@@@@+++ X..XXXXX..XXXXXXXXXXXX XXXX.XXXXX.XXX..OOXX",
".XoO....XX..@@@@@@++ X.XXXXXX..XXXXX.XXXXXX.XXXX..XXX.XX.X..OOXX",
"XXoO....XX..@@@@@@++ X.XXXXXXX.XXXXX..XXX.X.XXXX..XXX.XX.X..OOXX",
".XoO....X... @@@@@+  XXXXXXXXXXXXXXXX.XXX.X .XXXX.XXX.XX....OoX.",
".XoO ...X...  @@@+   XXXXXXXXXXXXXXXX.XXX.X .XXXX.XX..X.... ooXX",
"XXOO ........       ..XXX.XXX.XXX.XXXXXXX.. ..XXXXXX.XX....   X.",
"XXOOO.....X...     ...XXX.XXX.XXX.X.XXXX... ..XXXXXX.XX....OOOX.",
"XXoOO ..X.X...XXXX.. .XXX.XX..XXX...XX.X......XX.XX..X.... OOOXX",
"XXooo ..XXX..XXXXXX. X.X..XX..XX....XX...X....XX.XX..X.... OOOXX",
"XX    ...XX..XXXXXX..X.X..XXX..X....X..X.X..X.XX..X.......OOOOXX",
"XXOOOO ..X..XX.XXXXX.XXX.XXXX..X..X.X..XXX..X.X...X...... OOOOXX",
"XXOOOOO.....X..XX.XX..XXXXX.X...X.X....XXX..XXX..........OOOOoXX",
"XXOOOOO ....X..XX.X...XXXXX.XX..X.X....XX...XXX.X....... OOOOoXX",
"XXoOOOOO.......X..X...X.XX.XXX...XX.....X....XX.X.......OOOOOOXX",
"XXoOOOOO ......X......X.XX.XXX...XX.....X....XXXX...... OOOOOoXX",
"XXoOOOOOO ........X. ...XX.X.X..XX............XX...... OOOOOOoXX",
"XXoOOOOOOO .......X. ...XX...X..XX............XX..... OOOOOOOoXX",
"XXOOOOOOOOO ......X. ...X........X..X...... ..X..... OOOOOOOOoXX",
"XXOOOOOOOOOO ....... ...X...........X...... ..X.... OOOOOOOOOoXX",
".XOOOOOOOOOOO ...... .....X......X.X....... X..... OOOOOOOOOOOXX",
".XOOOOOOOOOOOO ..... .....X.X....X.X.X..... X.... OOOOOOOOOOOOXX",
"XXoOOOOOOOOOOOOO ..  .....XXX......XXX..... ... OOOOOOOOOOOOOOX.",
"XXoOOOOOOOOOOOOOOO   .....XX........XX.....   OOOOOOOOOOOOOOOOX.",
".XoOOOOOOOOOOOOOOOOO  .....X........X.....  OOOOOOOOOOOOOOOOOOX.",
".XooOOOOOOOOOOOOOOOOOOO  ..............  OOOOOOOOOOOOOOOOOOOOo..",
" XooooOOOOOOOOOOOOOOOOOo OOOOOOOOOO    OOOOOOOOOOOOOOOOOOOOOoo. ",
" .ooooooOOOOoooooooOOOoo OOOooOOOoooOo OooooooooOOOOOOooOooooo. ",
"  ...XXXXXXXXXXXXXXXXXXXXXXXXXXXXXXXXXXXXXXXXXXXXXXXXXXXXXXXX.  ",
"    ....X..XXXXXXXXXXX..XXXXXXXXXXXX.X...XXXXXXXXXXXXX..XX..    "
};
