/* XPM */
static char *result[] = {
/* columns rows colors chars-per-pixel */
"64 64 194 2 ",
"   c #54463F",
".  c #367757",
"X  c #1D7963",
"o  c #2F7D62",
"O  c #544740",
"+  c #564942",
"@  c #594C46",
"#  c #5C4E49",
"$  c #495546",
"%  c #465947",
"&  c #4C5F43",
"*  c #465A49",
"=  c #495C4B",
"-  c #515A44",
";  c #5E524C",
":  c #535B52",
">  c #60544E",
",  c #625652",
"<  c #645954",
"1  c #695C56",
"2  c #675D5B",
"3  c #6A5E5A",
"4  c #486745",
"5  c #4D614F",
"6  c #52654B",
"7  c #59694E",
"8  c #457845",
"9  c #4E6352",
"0  c #586957",
"q  c #556B5D",
"w  c #5B6E5D",
"e  c #5C7157",
"r  c #606E54",
"t  c #6D625D",
"y  c #71635E",
"u  c #61765D",
"i  c #5A7163",
"p  c #5F776B",
"a  c #6D6463",
"s  c #636F62",
"d  c #716663",
"f  c #746A66",
"g  c #756C6B",
"h  c #796E6C",
"j  c #6D7965",
"k  c #667769",
"l  c #7A706E",
"z  c #796F70",
"x  c #697B70",
"c  c #7D7574",
"v  c #7E7A77",
"b  c #817573",
"n  c #817876",
"m  c #817778",
"M  c #847C7C",
"N  c #887F7D",
"B  c #1C9857",
"V  c #17945E",
"C  c #1C965D",
"Z  c #1F9859",
"A  c #378E4B",
"S  c #2A9E4B",
"D  c #3A9145",
"F  c #369548",
"G  c #3B924C",
"H  c #3C9C4C",
"J  c #278456",
"K  c #2B8356",
"L  c #2B845B",
"P  c #2E8A5C",
"I  c #308856",
"U  c #328B5C",
"Y  c #259D52",
"T  c #289F51",
"R  c #2D9159",
"E  c #209959",
"W  c #2B9F58",
"Q  c #3D9452",
"!  c #2FA747",
"~  c #27A04F",
"^  c #2CA34B",
"/  c #31A646",
"(  c #34A946",
")  c #31A54B",
"_  c #34AC49",
"`  c #3BAD4A",
"'  c #27A052",
"]  c #2AA053",
"[  c #2BA058",
"{  c #0D8A6A",
"}  c #138E63",
"|  c #118D68",
" . c #169163",
".. c #1A9360",
"X. c #199169",
"o. c #298462",
"O. c #2E8961",
"+. c #328C65",
"@. c #2F9F69",
"#. c #399667",
"$. c #3B956D",
"%. c #3E9A73",
"&. c #35A366",
"*. c #31A06A",
"=. c #3CA76A",
"-. c #41964B",
";. c #429A4D",
":. c #4D8551",
">. c #469C56",
",. c #529E55",
"<. c #42AF57",
"1. c #48A158",
"2. c #43AF58",
"3. c #53A459",
"4. c #45B355",
"5. c #49B353",
"6. c #45B058",
"7. c #4EB659",
"8. c #50B757",
"9. c #51B857",
"0. c #50B758",
"q. c #51B858",
"w. c #48886A",
"e. c #5F8F6D",
"r. c #489674",
"t. c #768E6F",
"y. c #6C8375",
"u. c #7C8373",
"i. c #768D76",
"p. c #788B75",
"a. c #72897D",
"s. c #41AB66",
"d. c #54AB62",
"f. c #5DA962",
"g. c #4FB26E",
"h. c #5EBE61",
"j. c #50B36F",
"k. c #60BF62",
"l. c #68B46C",
"z. c #67BF79",
"x. c #5FC162",
"c. c #73CA6F",
"v. c #6DC474",
"b. c #68C07A",
"n. c #73C972",
"m. c #7CCE74",
"M. c #78CA78",
"N. c #7BD074",
"B. c #8B807E",
"V. c #838879",
"C. c #80B875",
"Z. c #86BD7A",
"A. c #86C37A",
"S. c #87D37D",
"D. c #89D47C",
"F. c #877F80",
"G. c #887E80",
"H. c #7D8F85",
"J. c #79A78F",
"K. c #878080",
"L. c #8B8484",
"P. c #8B8887",
"I. c #8E8788",
"U. c #8F8888",
"Y. c #918583",
"T. c #948886",
"R. c #908789",
"E. c #948C8C",
"W. c #998E8D",
"Q. c #869987",
"!. c #82978A",
"~. c #9B918F",
"^. c #998E90",
"/. c #979090",
"(. c #9B9292",
"). c #A29796",
"_. c #A39897",
"`. c #A59A9A",
"'. c #A99E9E",
"]. c #96A28D",
"[. c #8DA498",
"{. c #98A899",
"}. c #9DB19A",
"|. c #AAA09F",
" X c #A99EA1",
".X c #97ADA1",
"XX c #ABA2A2",
"oX c #B0A6A6",
"OX c #B4AAAB",
"+X c #B8AEAF",
"@X c #BDB2B3",
"#X c #8DC482",
"$X c #81CE81",
"%X c #84D082",
/* pixels */
"M F.F.L.K.n B.~.~.K.F.K./.XXoXE.a t l g > # 1 t a g c B.K._.+X@X@X+X@X'.f t t f c c K.v a < t t g c c a a g f n (.|.W.f a c M K.",
"z g c L.M t < 1 y g c K.P././.f ; ; , ; , d P.~.B.c g a l M `.oXoXoXOX(.b f t t < t g g y l B.n t 2 2 @ , f v R.`.+XoXL.c l c L.",
"2 2 a z f > # 1 t a g v M L.K.t , 1 t t f M K./.(.E.a # ; t B.~./././.(.`.(.h ; @ @ ; t T.+X@X|.h , , 3 c L.L.n N ~.~.L.K.K.L.M ",
"# # ; > > @ 1 T.~.c a g c L.L.M l b T.L.B.K.L.~.OX`.t     < c L.L.K.K.(.OX_.y + ; 3 g K.(.`.'.(.L.c c c v K.M t < 1 y f c B.L.M ",
"< < 1 t 1 @ 1 T.E.z 2 a g M ).(.f t B.E.L.L.L.^.OX_.t     < v L.L.L.L./.OX`.y > f n B.E.'.~.h d n M c 2 a z f > # 1 a a g c H.m ",
"m c N ^.Y.1 @ 1 t > > 2 a v `.(.b d l n M F.F./.XX(.b < # < b P.L.K.L.Y.(.P.t , v L.L./.OX_.y @ f N d < > , ; @ 3 T.E.c a g c F.",
"L.L.^. X_.b 1 @ + + @ < l M E.(.(.R.a 2 a c F.I.E.(.(.T.t > b K.P.L.L.V.f t   < c L.L.W.oX`.y @ < h l c t t 1 @ 1 T.E.g 2 a g z ",
"R.L.R.E.(.`.Y.<     + , l F.L.E.XX(.3 @ 2 a c F.K.(.+X`.t > l B.F.M B.l >   ; y M U.E.)._.B.1 @ > y n Y.R._.T.1 @ 1 a , , 2 a 2 ",
"N L.L.L.E.XX`.h ; +   , a c V.U.E.N 1 O @ < a c K.(.OX_.y # a g h z g a ; ; g M F./. X_.b < @ > f n B./.'.OX|.b 1 @     ; 1 < # ",
"c F.L.L.P./.(.R.f 1 # # < a v K.L.M f 3 # @ < d c P.(.!.w 5 q i i i i q , 2 c R./.^._.R.d > , y M P.K./.oXoX~.T.B.1     @ # @ + ",
"a c M L.L.n K.E.(.T.t   @ , a c M E.(.Y.3 + @ , a x r.$.O.o P O.O.O.o.. q d M /.'.).b d h v c M B.K.K.~.OX'.l f T.b 1 # # ; , , ",
", a v M l a v /.XX(.f < 3 a 2 a M (.XX(.s * * 6 0 w.R B B Z Z E Z Z Z +.:.k y.H.[.!.1 > h F.L.R././.~.(._.B.d a E.|.T.t ; f v h ",
"@ , a d < t v U.^.E.M G.(.Y.t 1 n R.(.H.w.L L P G H S ^ ^ ^ ^ ~ ^ ^ ^ ! H Q #.$.r.w.5 ; t c F.E.|.OXOX(.l y l B.`.oXT.t , v M t ",
"+ @ ; ; # , g F.M M L.(.OX`.s 9 x a.i.e.R B C [ 6.q.q.8.8.5.8.q.q.q.9.9.q.6.[ Z B J 4 5 q x I.(._._.`.T.y t n /.'.`.B.t t l t # ",
"; , , ; ; > a g g c F.^.+X{.r.L O.#.>.H ^ ~ ^ ` c.D.D.D.D.D.S.D.D.D.S.D.D.v.` ' ^ ^ F A K r.].`.b t t f l n B.P.E.(.|.~.B.B.t ; ",
"a g z a ; # 2 2 2 a c Y.(.!.$.V V [ 6.q.q.q.7.h.m.D.D.D.S.D.D.D.D.D.D.S.D.N.x.7.5.9.9.4.' %.J.!.w % @ 1 n P.P.L.L.T.~.~.).B.< , ",
"d z 2 , # @ # # @ , a g d w P B ' ` n.S.S.D.D.m.q.q.q.0.q.q.q.7.q.q.0.q.7.k.m.D.D.D.S.c.4.[ #.$.P . 0 a M L.L.L.I.M f t t 1 # < ",
"< 2 > + @ @ > 2 t y t < 6 4 I ' 6.x.m.D.S.D.S.c.<.S ) ^ ] ^ ^ ^ ^ ^ S ^ S 2.c.D.D.S.S.m.h.2.[ B Z U i z F.L.L.L.M f > ; > < # > ",
"# < > + + > g G.(.T.t - 8 F ^ <.M.N.h.7.q.q.9.4.W E E E E E E E E E E E E Y 2.q.9.9.7.h.m.n.2.^ ~ >.i z M I.L.M a ; @ > h n y # ",
"+ , , @ # 2 v ^.|._.b u H _ 5.x.m.n.4.! ^ ^ ^ T C ..........C ............E T ^ ^ ^ ! 5.c.m.k.5.` ;.:.k v M m f ; @ ; d B.E.T.f ",
"O , , # < g F.I.E.(._.Q.3.5.c.m.k.5.` ) Y E E Z C ............C ..........C C E Z Y ^ ` 5.k.m.c.5./ H :.j g 1 > @ ; h K._.`.(.P.",
"+ # ; # 2 g v F.L.E. X{.l.q.m.n.2.^ S Y C ........C E E E Z Z E E E E E C ........Z W ^ S <.c.m.h.5._ H e 2 < , < t n /.oXoX/.K.",
"+ @ + ; 2 g g z M U./.].#XN.x.2.W E E E C ......C C T ) S ^ ^ ^ ^ ) S T E ........C E E E W 2.k.m.n.5.D 5 < f v v n B./.oXXXL.B.",
"a 2 2 2 2 2 2 a l v c V.A.n.6.T C ........C Z E E W <.q.8.8.8.7.q.q.q.2.W Z E C C ....C ..C T 2.c.m.x.,.7 1 m I.P.P.L.E.(.R.c c ",
"F.F.v g < @ ; ; < , , r 3.6.[ C C ........E T ^ ~ <.c.D.D.S.D.D.D.D.D.c.<.^ S T Z ..........E W <.k.m.C.j a M L.L.P.P.M f t t t ",
"F.F.L.M a > @ O + + - 8 F ' E ......E E Z W 2.q.8.k.m.D.D.S.S.D.D.S.S.m.h.7.9.<.W Z E E C ....E T 4.n.Z.i.u.M M n n c l y y f g ",
"v z K.L.M f ; O   - 8 F Y E ......E W ^ S <.n.D.S.m.h.7.q.q.0.q.7.q.7.h.m.D.D.n.2.^ ^ T E  .....Z W 2.k.A.Z.u.f 1 , > d T._._./.",
"c a c K.L.M h t y u ;.^ E ....C C T ) ` 5.h.m.D.D.c.<.S ^ ^ S S ^ S ^ <.n.D.D.m.k.5.` ) Y E ......Z ) 5.c.Z.j 2 , , , f (.+X@X'.",
"f > a c F.U.(.`.`.Q.3.^ Z ....E W ) / 5.c.m.k.q.8.6.W Z E E E E E Z E W 6.8.q.h.m.n.5./ ) [ E ....Z ^ ` 5.3.7 , f v b M Y.`.+X`.",
"3 @ 2 a c U. X+X@X}.d.~ Z ....E ^ ` 7.q.S.c.2.S ^ T C ....C ..........E T ^ ^ 2.c.m.k.5.` ^ E ....E ' ) _ G 6 1 m Y.P.L.P.U.(.P.",
"; @ @ , a c P.'.+X}.r.Z V ....E ^ 8.c.m.q.<.W E Z Z C ................C C C Z Y <.k.m.c.5.^ E ......E Y ^ ;.e d M L.L.L.P.n f t ",
"+ + @ @ 2 a g M ~.Q.$.V ..C C [ <.q.S.c.6.T C ........C Z Z E E E E C ........C T 4.n.m.h.<.[ E ......E ^ ;.s z M I.P.L.n f >   ",
"O + @ @ @ > > < 2 w O.....Z ] 6.c.S.q.<.[ C | | ......E T ^ ^ ^ ^ T E .... .| | C W <.k.m.c.4.T Z ....Z ^ ;.k g M U.P.M t ; +   ",
", ; , , , 1 3 1 # % J ....Z ^ q.D.%X0.Y C  .| | ..E E W 2.q.8.8.q.2.W E E C | | } ..Y 6.%XD.7.^ Z C ..Z ' Q e a h v b l d y y t ",
"h a h v n N (.Y.1 $ L C ..Z ^ q.D.$Xs.V | } | C Y ) S <.c.D.D.D.D.n.<.S ^ Y E | | } V s.%XD.9.^ E ....C Z I 9 ; , , > d T.`._.T.",
"c a M I.L.E. X_.b w P V Z [ 6.q.m.v.&.V { | ..E ^ ` 5.k.m.D.D.D.D.m.h.5.` ) E ..{ } } =.v.A.x.4.W E V ..V o 9 ; > , , f (.+X@X|.",
"f 1 n I.L.I.E.(.).!.$.Z ' 6.n.m.k.<.E ..} ....E ^ 5.n.m.h.7.8.7.q.k.m.c.7.^ Z C ..| C E 2.h.m.c.2.T Z ....P q a h b c M Y.`.OX`.",
"t > g F.L.L.L.(.oX.Xr.Z ^ q.S.S.7.Y C ....C C W 2.h.m.c.<.^ ^ ^ ^ 2.n.m.h.<.W C C ....C Y 7.%XD.q.^ Z ....O.i z N P.P.L.L.(.oX`.",
"a ; a c M L.L.~.OX.X%.B ^ q.D.M.s.C } | ..C T 2.c.M.k.2.W E Z Z Z Y <.h.m.n.2.T E ..| } V s.M.D.q.) E ....O.i z M I.K.P.K./.OX`.",
"1 # 2 f c n M L.(.!.$.B ^ q.D.$X=.} { { ..E ) 8.D.D.q.^ E ..} ....E S 8.D.D.q.^ E } { { } =.S.S.q.^ E ....P q a v M B.M v B.~.L.",
"; ; t a < t s g d w U B ! 7.S.S.=.} { { } E ^ 8.D.S.q.S Z ..| | ..E ^ q.D.D.q.^ E | | | } =.S.S.9.~ Z ....L = , d z z f < < 3 1 ",
"; @ < < @ @ , < @ * o Z ! 9.S.$X=.} { { ..E ^ q.D.D.7.^ E | | { | E ^ q.D.D.q.^ E  .| { } =.$XS.9.^ Z ....L 0 1 2 2 2 2 a t t 1 ",
"1 + # @ @ O # # @ * J B ~ q.D.$X=.} { } ..E ^ q.D.D.q.S E C } ....Z ^ 7.D.D.q.^ E | { { } =.$XD.9.^ Z V V +.x h 1 @ @ t T.`._.L.",
"g , , 1 3 a a 2 # % L Z ^ q.D.%X=.} { {  .E T 6.n.m.h.2.W E Z E Z W <.h.m.c.2.T E ..{ { } =.$XD.q.) Z ....#.a.M a , , f ).+X@X'.",
"Y.v v M ^.`.`.Y.1 $ o Z ^ q.D.$X=.} { |  .C E W <.h.m.c.<.^ ~ S S 2.c.m.h.<.W E C ..| { } =.$XD.q.^ E V V #.a.L.M v c B.Y.'.+XXX",
"L.M L.E. XOXOX_.b w P C T 2.c.M.g.@.X.} | ....E ^ 5.c.m.h.q.8.0.7.h.m.c.5.S E ....| | X.@.g.n.c.6.] E V ..+.y.F.B.K.K.K.n M ~.(.",
"f c L.I.E.(.~.(.`.Q.$.V Z W <.h.M.z.@.| | | ..E ) ` 5.h.m.D.D.D.D.m.h.5.` ) E ..| | } @.z.M.h.<.W E C ..V +.p g g c K.M t < 1 a ",
"a g v M L.M M N ^.!.$.V C Z ^ 8.D.$X=.} { { | C T ^ S <.n.D.D.D.D.n.<.^ ^ T C | | { } =.$XD.8.^ E ....C C U q 2 2 a l f > ; 1 t ",
"c a g c G.M t 1 3 i U ....Z ^ 8.D.$X=.} { { { | ..E E W 2.q.q.q.q.2.W Z E C | { { { } =.$XD.q.^ E ....E ' G 6 @ # ; , ; @ 3 Y.W.",
"g 2 a g c f >     * L ....Z T 2.c.M.j.@.| { { { | ....E T ^ ) ^ ^ T C ....| { { { X.@.j.M.c.6.Y C ....E ! -.7 1 , 2 3 1 @ 1 T.W.",
", : 2 a 1 > @ O   * L ....C E W <.h.M.z.@.| { { | | ....E E E Y E E C ..| { { { } @.b.M.k.2.W E ......E ^ >.y.n c M (.Y.1 @ 1 t ",
"@ # < 2 # # 1 d y r U E ......E ^ 5.n.M.j.@...{ { | | .. . . .| | ....| | { { X.@.g.M.c.5.S E ......E Y ! ,.t.R.L.^.XX`.b 1 @   ",
"O @ @ @ + 1 Y.`.`.Q.1.T Z ....E ) ` 5.h.M.z.@.} | | | | { | } { | | { | | V } @.z.M.h.5.` S E ....E ' ) ! 1.i.L.L.E./.(.`.T.<   ",
"# # , , < f (.+X@X}.d.^ E ....E Y ) ) 5.c.M.j.=.s.*. .{ { { { { | { { X.*.=.=.g.M.c.5./ ^ W E ....E ^ ` 5.f.p.M K.K.K./.|._.b t ",
"2 ; f m n M R.`.+X}.d.! Z ....C E Y ) ` 5.k.M.$X$Xz.@.} } } } } } } } @.z.%X$XM.h.5.` ) Y E C ....E ^ 5.n.Z.u.c K.P.K.R./.(._.Y.",
"1 , v I.L.L.L.E.'.{.l.2.[ Z ......E T ^ ^ <.c.D.D.M.j.=.=.=.=.=.=.=.=.g.M.D.D.n.2.^ ) Y E ....C E W 2.x.N.C.j a c L.K.B.v M ~.T.",
"# < n L.I.L.L.Y.E.].A.n.4.' B ....C E E E W 2.q.8.h.M.$X$XS.$X$XS.$X$XM.h.8.8.<.W E E E C ....C T 2.n.N.h.,.7 , a c K.M 2 , 3 1 ",
"# > g b v c v b c V.A.N.x.4.[ V C ........E T ^ S 2.c.D.S.D.D.D.S.S.D.c.<.^ ^ T C C ......C Z W 2.x.N.n.4.D & @ , a h c f y y < ",
"1 + > , , , , , > e 3.x.m.n.4.T C ..........E E Z W 2.q.7.8.q.q.7.8.8.<.W E E Z C } ......C Y <.n.A.x.4.` D 6 O @ ; , d T.`._.B.",
"l , , , , 1 3 1 >   D 5.n.m.k.2.W E E E ..........E T ^ ^ ^ ^ ^ ^ ^ ^ T E ......V V @.E E W <.k.N.c.5.! ^ G 6 , , , , f ).+X@X|.",
"Y.v c c c M (.T.1 & D ` 5.h.m.n.2.^ ^ T E ........C E E E E E E E E E E C ........E Y ) ^ 2.n.m.x.5.` ! ' +.q a h v c M Y.`.+XoX",
"K.B.M M L.^.XX~.y 4 A ^ ( 5.c.m.k.5.` ) W E E E C ..........C ........C ..C E E E Y ) ` 5.k.m.c.5.( ! ' ..o.q d n B.L.L.L.Y.(.(.",
"g g l c F.R.W.N 1 $ K Y ! ` 5.h.m.c.7./ ) ] ) Y E ..........C ..C ........E W ) ) ) ) 5.c.m.x.4.` ) Y ..{ X 9 < d c L.L.L.n f a ",
"2 a a g M L.L.b < * L C ^ ( ! 7.D.D.8./ ( ` _ ) E ..C ..C ......C ........E ) ( ( ( ( q.D.D.9.( ! ^ C  .{ X * # 2 g M L.P.v > # "
};
