/* XPM */
static char *result[] = {
/* columns rows colors chars-per-pixel */
"64 64 194 2 ",
"   c #54463F",
".  c #386E51",
"X  c #554740",
"o  c #564942",
"O  c #594C46",
"+  c #5B4E49",
"@  c #4A5747",
"#  c #4C5E41",
"$  c #555746",
"%  c #5E524C",
"&  c #60544E",
"*  c #625652",
"=  c #655954",
"-  c #695C56",
";  c #675D5B",
":  c #6A5E5A",
">  c #4D614E",
",  c #516449",
"<  c #57674B",
"1  c #596D55",
"2  c #546959",
"3  c #5A6D59",
"4  c #5D7157",
"5  c #5D745C",
"6  c #626A4F",
"7  c #666456",
"8  c #656C53",
"9  c #696D54",
"0  c #6D625D",
"q  c #71635F",
"w  c #62735A",
"e  c #67765A",
"r  c #597165",
"t  c #6D6463",
"y  c #6E6868",
"u  c #716663",
"i  c #746A66",
"p  c #736668",
"a  c #756C6B",
"s  c #796E6C",
"d  c #647A64",
"f  c #6A7A6A",
"g  c #717C64",
"h  c #7A716E",
"j  c #727E6A",
"k  c #796F70",
"l  c #7D7574",
"z  c #7E7A77",
"x  c #817573",
"c  c #817877",
"v  c #827778",
"b  c #847C7C",
"n  c #887F7D",
"m  c #1C8F5F",
"M  c #17935C",
"N  c #1D965C",
"B  c #1F9859",
"V  c #388F46",
"C  c #249E4F",
"Z  c #3C9246",
"A  c #3B9448",
"S  c #3E954B",
"D  c #2A8757",
"F  c #2A845C",
"G  c #318A59",
"H  c #259D53",
"J  c #289F52",
"K  c #209859",
"L  c #2B9F58",
"P  c #3C9451",
"I  c #3B9A51",
"U  c #2FA646",
"Y  c #2DA34B",
"T  c #31A746",
"R  c #32A846",
"E  c #34AC49",
"W  c #3BAC4A",
"Q  c #27A151",
"!  c #2AA052",
"~  c #2CA158",
"^  c #138E66",
"/  c #118D69",
"(  c #179163",
")  c #1A9360",
"_  c #2E8861",
"`  c #328C65",
"'  c #399368",
"]  c #46854C",
"[  c #40974D",
"{  c #41994E",
"}  c #528959",
"|  c #459C53",
" . c #4C9C53",
".. c #519E55",
"X. c #529158",
"o. c #648156",
"O. c #48A157",
"+. c #43AF57",
"@. c #4CA45A",
"#. c #43AF58",
"$. c #4FA95E",
"%. c #55A259",
"&. c #55A85B",
"*. c #47B353",
"=. c #49B454",
"-. c #4DB857",
";. c #45B058",
":. c #4FB658",
">. c #4FB958",
",. c #50B757",
"<. c #50B758",
"1. c #51B858",
"2. c #449D6C",
"3. c #5B9B63",
"4. c #439C73",
"5. c #698067",
"6. c #6D836B",
"7. c #7C8269",
"8. c #70916B",
"9. c #6C8474",
"0. c #768D75",
"q. c #71897D",
"w. c #7D9479",
"e. c #57A863",
"r. c #5FB264",
"t. c #5EBE61",
"y. c #60BF62",
"u. c #62B468",
"i. c #7BB26E",
"p. c #7EB572",
"a. c #5AC05F",
"s. c #5DC061",
"d. c #6FC86E",
"f. c #74CA6F",
"g. c #70C770",
"h. c #73C970",
"j. c #7BCE73",
"k. c #819F6C",
"l. c #8B807E",
"z. c #84887F",
"x. c #88A97D",
"c. c #80B975",
"v. c #82BA78",
"b. c #8DBC7A",
"n. c #92BE7C",
"m. c #89C57A",
"M. c #86D47B",
"N. c #89D47C",
"B. c #88D87D",
"V. c #877F80",
"C. c #887E80",
"Z. c #7F9580",
"A. c #878080",
"S. c #8B8484",
"D. c #8C8885",
"F. c #8E8788",
"G. c #8F8888",
"H. c #918583",
"J. c #948886",
"K. c #91878A",
"L. c #948C8C",
"P. c #998E8D",
"I. c #889785",
"U. c #859A83",
"Y. c #9B918F",
"T. c #978E90",
"R. c #988E90",
"E. c #979090",
"W. c #9B9292",
"Q. c #A19696",
"!. c #A39997",
"~. c #A59698",
"^. c #A59A9A",
"/. c #A99E9E",
"(. c #8FA088",
"). c #90AD93",
"_. c #97A894",
"`. c #A5AB95",
"'. c #A5A49C",
"]. c #A99FA0",
"[. c #96ACA0",
"{. c #ABA2A2",
"}. c #B0A6A6",
"|. c #B2A7A9",
" X c #B4AAAB",
".X c #B8ADAE",
"XX c #BDB2B3",
"oX c #8ECD82",
"OX c #96C281",
"+X c #95CA84",
"@X c #A3D08F",
"#X c #A7D594",
"$X c #A5E38F",
"%X c #B9C0AC",
/* pixels */
"b V.V.S.S.c b P.Y.l.b S.L.{.|.L.u 0 h i & + - 0 t i l V.S.W..XXXXXXXXX'.s - u i k z A.b t * 0 q i l l t t a i c Y.'.L.i t l V.S.",
"k a l S.c 0 = 0 q i l A.G.E.E.i + & & & & u H.E.z.l y i h b ^.}.}.{.}.W.x u q ; ; 7 a i q h l.c 0 ; ; + * i z L.^..X}.K.h h l A.",
"; ; t k i & + - t t y z b S.A.0 = - 0 0 s v S.E.!.L.t + % 0 S.R.Y.L.E.W.!.Q.h % O O % 0 L..XXX/.s * * : l S.S.c n P.W.S.b S.S.v ",
"+ + % & & o 0 H.Y.l y i l S.S.b h h L.D.b S.S.Y.|.^.0 X   = l S.S.S.S.E. X!.q o % - s l.W.!./.W.S.l l k l S.v 0 = - q i l S.D.b ",
"= = - 0 - O - J.L.k ; t i n W.W.i q l.J.S.S.S.T. X!.q     = c S.S.S.S.P. X/.q & i v S.L./.Y.i i c n l : t k i & + - 0 y y z V.v ",
"x l n W.H.- + - 0 & & ; y z !.Q.h u h c b V.A.T./.Q.x - + * c S.S.S.S.L.W.l.- * l D.S.E. X!.q % i n u = & * & o - J.L.l y i l A.",
"F.C.R.].!.x - O X o O = h b L.W.!.J.p ; y l V.F.L.W.W.H.- & x D.S.S.S.n i 7 O * z S.S.Y. X!.q o = s h l 0 : - + - J.L.k ; t y l ",
"F.S.K.T.W.^.H.=   X o & l b S.L.{.Y.; o * y l V.A.W. X^.q & h b V.b n h & o % q v S.L.Q.!.l.- o & q c S.L.Q.J.- + - 0 * * ; y ; ",
"b S.S.A.L.{.!.s % X o & t l b L.E.z.= X + * p k b E. X!.0 + 0 s a a k t + % i b V.L.{.!.x = + & i c S.L.'. X'.x - O   o % = = + ",
"l V.S.S.D.L.W.L.i 7 + + * y l b A.b i - + + * p l D._.(.w , 4 4 r 5 5 3 % ; z K.T.W.!.J.u * & q v S.S.L.|.}.P.J.l.-     o % O o ",
"p l S.S.S.v S.L.Q.H.- X o * y l b L.W.H.- o + = t f 3.@.S A [ [ { { I ] 3 p z.Y.{.Q.l u k l z v S.S.S.P. X/.h i J.c - & O & * * ",
"* t l b h t v L.'.Q.s = : 0 ; y b W.{.Y.e # # < g 8.&.>.>.1.,.=.1.1.1.&.8.7.0.z._.I.= % s A.S.G.L.L.Y.Y.~.H.u t J.'.J.- % i z s ",
"O * t p = 7 z G.R.K.b b W.H.: - z J.L.z.X.V V ..p.+XN.M.N.N.M.M.M.M.M.N.+Xv.e.O.$.X.$ % 0 l V.L.{. X XQ.h q h l.!.}.P.- = z c ; ",
"X O + % % * k V.b b S.W. X'.d < 5.z.I.x.r.>.>.s.j.M.M.M.N.N.N.N.M.N.N.M.M.j.a.1.-.%.o.9 w f S.W.Q.^.!.H.q 0 c E.'.!.n 0 0 h 0 & ",
"+ * = % % % y a k k z.W..X`.3.[ I e.m.+XN.N.N.j.1.,.:.<.,.,.,.,.1.<.<.:.:.1.j.N.M.N.m.i. .3._.W.x : q u h c S.S.P.Q./.Y.l.l.- & ",
"p a k t % + = ; ; y l D.W.z.@.W *.t.j.M.N.N.N.h.=.J Y J J T J J Y Y Y Y J +.h.N.M.M.N.j.s.u.).x.8 # $ - c S.S.S.l.K.Q.W.Y.H.- * ",
"p a t % + O + + + * p a q 3 S *.f.j.t.-.-.<.<.#.L K B K B B B K B K B B N L +.1.<.:.1.s.j.j.u.O.S ] 1 p b S.S.S.F.b i 0 0 - + = ",
"= ; & O o + & ; : q ; 7 9 e %.y.j.f.+.Y Y Y Y J K K K B K B B H B B B K K H J Y Y Y Y +.h.M.1.>.>.%.d a b S.F.A.b i % % & = + & ",
"+ = % o o & i S.W.H.; 8 k.m.N.j.s.;.L B N H K H J T T J J J T J J Y Y Y Y J H N N B K L #.t.j.N.B.p.j p b S.F.b t * o & i c q + ",
"o * * O % ; v L.{.Q.x g c.B.N.f.;.Q N M N N N L +.,.,.,.,.,.,.,.1.,.1.1.1.+.L B K N M N J +.f.N.M.m.w.z b b c i % o * u l.P.J.i ",
"o % * + = y b L.E.W.!.(.u.>.>.;.~ N N N J Y Y +.d.N.N.N.N.N.N.N.N.N.N.N.N.h.#.J Y J N M N L +.1.>.y.m.x.z.u - + O % i S.^./.E.D.",
"o % % + ; a l z.A.T.]._.$.U Y Q K M N L +.<.:.t.j.N.N.N.M.N.N.N.N.N.N.N.M.j.t.:.1.+.! N M N J Y U =.h.c.5.= * = * 0 z W.}.}.L.S.",
"o o o % ; y a l b K.T.U.@.U Q N ) N J +.h.N.N.j.t.,.1.1.,.,.<.<.,.,.,.,.<.t.j.N.N.h.#.J N m K C Y W =...< = s c l v S.E. X{.S.A.",
"t t ; ; ; ; ; t h c l f | ! K B K L #.y.j.N.N.g.*.T J Y Y J Y Y U J U J T =.f.N.N.j.y.#.L K K C ! T E A < ; c S.D.D.S.D.W.J.l l ",
"S.V.v s = + % % * = = 2 G H Q Y Y #.h.j.y.<.<.=.W T H N K K K K H B N H Y W -.<.-.t.j.h.#.Y J J H J Y [ 1 p b G.F.F.S.b i 0 0 0 ",
"b b S.b 0 & O o o X @ . F B Y W =.y.j.f.=.T Y Y Y L K ) ) ) M ) m m ) K J Y Y Y U =.f.j.y.=.*.Y N N ! I } f z v c l x s u q i i ",
"a l A.S.b i %     @ . D m B Y -.h.j.y.=.W Y J K K K N ) ) ) ) M M M ) N K K K H Y W =.y.j.f.=.J N M N L I X.f y ; = & i J.!.^.E.",
"; y l A.S.b s q q r F M N L #.s.M.h.#.Y Y ! N ) ) N N K K K K K N K K K ) ) ) K L Y Y #.h.j.y.#.~ N ) B Q P 4 ; = & & i W. XXX'.",
"% * y k A.G.W.^.~.I.' N Q ;.h.j.1.;.L K K K ) ) ) N J Y Y Y Y Y Y Y Y J K ) ) N K K K L #.y.j.h.#.J N M N G > * i c c b L.!. X/.",
"X + = y z G.]..XXX_.4.J W s.j.h.=.Y K ) ) ) ) ) N L +.1.<.<.-.1.<.1.1.+.L N ) ) ) ) ) K Y =.h.j.y.+.~ K ) F > - v S.S.S.S.J.W.H.",
"O O + = y z G./.XX[.e.+.g.j.s.*.W Y K ) ) ) ) K J +.h.N.N.N.N.N.N.N.N.g.+.J K ) ) ) ) K Y W =.t.j.h.;.! B _ 2 p b S.S.S.S.b s - ",
"O X o + * t i b R.U.$.>.oXB.>.U Y J K m ) ) K L +.y.j.N.N.N.N.N.N.N.N.j.y.#.L N N ) ) K ! Y U :.N.N.>.Y B _ r k b K.S.z.b i % o ",
"o o o o + + & = - 4 S >.N.N.1.Y H K N ) ) N J =.h.j.t.1.<.<.<.<.1.1.,.y.j.h.+.J N M N N K H Y 1.N.N.1.J N _ r a b F.S.v 0 % o   ",
"% % = = = - : - O ,  .s.j.f.=.Y K ) ) ) N ! +.1.M.h.=.T Y Y Y Y T J T =.h.j.y.+.L N N ( ( K Y -.h.j.t.+.L G 2 y l l x h i q q 0 ",
"; p l c l n W.H.- 6 i.j.t.=.W Y K ) ) N J +.h.m.1.=.W Y H K K K K H Y W =.y.j.h.+.J K ) ) K Y W :.1.j.d.;.P , & & * * i J.^.!.J.",
"; i b S.S.L.{.Q.x g OXM.-.U U J K ) K ! +.y.j.h.=.T Y L ) ( ) ( ( N J Y T =.f.j.y.#.L K ) K L Y T ,.N.N.1.Z , + & * & i Q..XXX'.",
"% ; z S.D.D.L.W.~.`.@XM.1.Y H N ) K L ;.h.j.t.=.W Y J K ^ / ( ( / ^ K K Y W =.y.j.g.+.J N N N H T 1.N.N.-.Z 4 u h l l b K.!. X^.",
"o * k S.S.S.S.T.}.XX#XM.1.Y B m ) K Y 1.N.N.,.T T J ) ^ / ^ ) N ^ / ^ N J T T =.N.N.1.Y K ) ) K J 1.N.M.<.[ r a V.G.S.S.S.P. X^.",
"X % 0 l l.S.S.Y.}.%X#XM.-.J K ) M K Y 1.N.N.1.Y K K ^ / ^ K J J N ^ / ^ N J J 1.N.N.<.Y K ) ) K Y 1.N.M.<.[ 5 a b F.D.S.S.Y. X!.",
"o % 0 y h z b l.Y.`.@XM.-.Y K ) ) K Y <.N.N.1.J K ^ ^ ^ K ~ ;.;.L N ^ / ( K Y 1.N.N.<.Y K ) M K Y 1.N.M.1.S 4 y l b b b l l.Y.l.",
"o % t t = 3 p p q l.m.M.,.T K ) ) K Y <.N.N.1.Y K ) ( N J #.h.h.;.J N ( ) K Y <.N.M.<.Y K m ) K Y <.N.M.1.Z , = y k k y ; = 0 = ",
"o % = = O O * * o 9 n.N.,.C K ) ) K Y <.N.N.<.Y K ) ( N J ;.j.h.$.! N ( ) K Y <.N.N.<.Y K ) ) K Y :.N.M.1.Z < = ; ; ; ; 0 0 q - ",
"o O + + o X + O o 9 n.N.,.T K N ) K Y <.N.M.<.Y K ( / ^ N L :.#.! M ^ ^ ^ K Y <.N.N.<.Y K ) ) K ! <.N.M.>.| 6.a = + O 0 J.^.!.l.",
"= = = = 0 t t ; O 9 b.N.,.T K M ) K Y <.N.N.1.Y H ) ^ / ^ N J J ) ^ / ^ N H Y <.M.N.<.Y K ) ) K Y <.M.M.>.O.0.v t * * i ~..XXX'.",
"c l l b R.^.^.l.& 6 b.N.1.Y K m ) K Y 1.N.N.,.T Y J N ^ / ^ N N ^ / ^ N L Y U :.N.N.1.Y K ) ) K Y <.N.M.>.| 0.S.b l l b J.^..X}.",
"b A.S.E.{. X XQ.x z.m.N.>.Y L K N K J #.g.j.t.=.W Y J N ^ ^ ^ ( / ^ N J T W =.y.j.h.+.J K N K J Y <.N.M.:.| 0.b b z.S.S.c b P.Y.",
"a l A.G.L.W.W.W.Q.`.@XM.-.U Y J K ) K L +.y.j.h.*.T T J N ^ m m ) ) L Y T =.f.j.t.+.L N N K L Y U :.N.N.:.{ d k a l A.b 0 = - u ",
"y a l V.S.V.v n Y._.+Xh.t.*.W Y K ) M N J +.h.j.t.=.W Y H K K H K J Y W *.t.j.h.#.H N N ( K Y W *.t.j.g.#.P 3 ; ; t h i & % - 0 ",
"y y y l l.v 0 - : e %.s.h.h.-.Y K ) ) ) N L +.y.j.f.=.T J Y Y J Y Y T =.f.j.y.+.L K ) ) m K J =.f.j.t.#.~ D > + + + & & O - H.P.",
"; 0 y y l i &     , A >.B.B.1.Y H K N ) M N J +.h.j.t.1.,.,.1.1.1.<.=.y.j.h.+.J N ) ) N K H T ,.N.N.>.Q B F 2 = = - : - + - J.P.",
"% * t t ; & O       A >.N.N.1.T Y L K ) ) N N L +.y.j.N.N.N.N.N.N.N.N.j.y.+.L N N ( ( K J Y T ,.N.N.1.Y M ` f x x n R.H.- + - 0 ",
"o + = * + + - q q w I W h.j.t.*.W Y K N ) ) ) N J +.g.N.N.N.N.N.N.N.N.g.+.J K ) ) ) N K Y W ,.1.j.d.;.J M ` Z.S.S.T.{.^.x = +   ",
"o O + + X ; H.^.^.U.' L +.t.j.f.:.Y B M ) ) ) ) N L #.1.1.<.<.<.1.1.1.+.L N N ) ) ) ) K J =.f.j.1.:.~ B ) ' q.F.S.G.T.W.!.H.-   ",
"O O & = * i W..XXX_.4.M C +.h.j.1.*.L B K K N N N N J Y Y Y Y Y J Y Y J N ) ) ) K K K L +.y.M.d.#.J B M N ' 9.C.S.S.S.L.'.^.x - ",
"o & y z c b L.^..X[.4.M N L #.y.m.d.*.J J J N M M ) K K K K K K K K K K N ) ) K J Y J +.h.j.y.#.L N ) B Q I f l V.S.S.S.L.Q.^.H.",
"o = z G.D.S.S.L.]._.2.N M K Y =.f.j.t.*.*.Y L K K K N ) ) ) ) ) N ) ) K K K K J Y W =.y.j.j.=.Y N N N ~ W %.w y l A.S.l.c n Y.H.",
"o = c D.K.S.S.K.T.Z.@.! N B Y W =.y.j.h.=.T Y Y Y J K ) ( N ) M ( ) m N J Y Y Y U =.g.j.y.=.W Y B N Y *.f.i.9 * y l A.v t = 0 - ",
"o & i x l l l l l f | Y J K ! Y Y #.h.j.y.<.1.=.W Y H K K K K K K K H J Y W =.1.<.t.j.h.#.Y Y J H H Y -.B.).9 + * t s h u 0 0 = ",
"o O & * = & = * = 1 Z T Y ! L N K L #.y.j.N.N.h.=.T Y Y Y Y J Y J Y Y J T =.f.N.N.j.t.+.L K K K ! Y R ,.B.m.9 o O % * p J./.!.l.",
"= = * = = = : - + < ..=.W Y H N M N J #.g.N.N.j.t.<.<.<.<.<.<.<.1.1.1.,.1.t.j.N.N.h.+.J N N N H Y W =.s.j.c.9 % % * * i Q..XXX'.",
"c c l l l l.W.H.- 8 i.j.=.R Y J K ) N L +.1.<.y.j.N.N.N.N.N.M.N.N.N.N.N.N.j.1.1.1.+.L N N N J Y T =.f.j.s.%.r t l l l b H.!..X}.",
"b z.b b S.L.{.P.: 6 i.j.s.>.-.;.L K N N J Y J #.g.M.M.M.M.M.M.M.M.M.M.oXM.g.#.Y Y J K N N L +.1.-.t.j.f.W P 5 y l A.S.S.S.K.Y.Y.",
"a a a l V.K.P.n - ,  .1.j.N.N.g.+.J N N K K K L #.<.<.:.:.:.:.<.:.:.<.<.<.#.L K K N N N J ;.f.M.N.f.t.#.~ D > * p l S.S.S.b i u ",
"y y t a b S.S.x = # Z =.M.$X$XN.1.Y K ) ) M ) K Y T T Y T E T R T T T T T Y K ) ) ) M K Y 1.N.$X$XM.:.Q N F @ + ; i b S.D.x & O "
};
