/* XPM */
static char *result[] = {
/* columns rows colors chars-per-pixel */
"64 64 195 2 ",
"   c #53453F",
".  c #544640",
"X  c #564942",
"o  c #594C46",
"O  c #5B4E49",
"+  c #4C5D44",
"@  c #475A48",
"#  c #4A5D4B",
"$  c #525C46",
"%  c #5E524C",
"&  c #60544E",
"*  c #625652",
"=  c #645954",
"-  c #695C56",
";  c #665D5B",
":  c #6A5E5A",
">  c #4E6043",
",  c #4C614E",
"<  c #55674B",
"1  c #457643",
"2  c #4C6050",
"3  c #556955",
"4  c #546B5D",
"5  c #5C7D50",
"6  c #5C735B",
"7  c #62674F",
"8  c #676F57",
"9  c #696D54",
"0  c #6D625D",
"q  c #70635F",
"w  c #647257",
"e  c #61745A",
"r  c #6C745B",
"t  c #557966",
"y  c #6D6463",
"u  c #726663",
"i  c #746A66",
"p  c #746C6B",
"a  c #796E6C",
"s  c #6D7965",
"d  c #67796A",
"f  c #727565",
"g  c #747C64",
"h  c #7A706E",
"j  c #757E68",
"k  c #7D7F6B",
"l  c #796F70",
"z  c #7D7574",
"x  c #7C7B76",
"c  c #7D7978",
"v  c #817573",
"b  c #817876",
"n  c #847C7C",
"m  c #887F7E",
"M  c #17945D",
"N  c #1D965C",
"B  c #1F9859",
"V  c #398F4A",
"C  c #269E4F",
"Z  c #3C9346",
"A  c #399945",
"S  c #3D954D",
"D  c #2D8554",
"F  c #2B845C",
"G  c #2F8C59",
"H  c #259D53",
"J  c #299F53",
"K  c #2D905C",
"L  c #209859",
"P  c #2B9F58",
"I  c #3C9450",
"U  c #399950",
"Y  c #2FA645",
"T  c #2CA34C",
"R  c #30A646",
"E  c #31A947",
"W  c #37AD49",
"Q  c #3BAC4A",
"!  c #27A251",
"~  c #2AA052",
"^  c #2BA058",
"/  c #138E67",
"(  c #118D68",
")  c #179163",
"_  c #1A9360",
"`  c #348E64",
"'  c #37926B",
"]  c #3B9568",
"[  c #429B4C",
"{  c #528858",
"}  c #439C55",
"|  c #519D53",
" . c #43AF57",
".. c #48A953",
"X. c #4EA559",
"o. c #43AF58",
"O. c #54A25A",
"+. c #56A95E",
"@. c #44B254",
"#. c #4AB454",
"$. c #4FB857",
"%. c #44B158",
"&. c #4FB758",
"*. c #4FB958",
"=. c #50B758",
"-. c #51B858",
";. c #5BBE5F",
":. c #698966",
">. c #76816A",
",. c #7C836D",
"<. c #7A8470",
"1. c #768C79",
"2. c #729076",
"3. c #4EA564",
"4. c #56AC62",
"5. c #5EAA62",
"6. c #5EBE61",
"7. c #61AE66",
"8. c #60BF62",
"9. c #65B068",
"0. c #68B56E",
"q. c #7AB46D",
"w. c #7EB572",
"e. c #7CBE73",
"r. c #5DC061",
"t. c #67C366",
"y. c #6FC86F",
"u. c #70C76F",
"i. c #73CA6F",
"p. c #73C970",
"a. c #7BCD74",
"s. c #84847B",
"d. c #8B807E",
"f. c #86917C",
"g. c #87A776",
"h. c #82B975",
"j. c #86BE7B",
"k. c #91BE7C",
"l. c #85C27C",
"z. c #92C07E",
"x. c #86D57B",
"c. c #89D47C",
"v. c #89D87D",
"b. c #877F80",
"n. c #887E80",
"m. c #7B9285",
"M. c #878080",
"N. c #8B8484",
"B. c #8F8887",
"V. c #8E8788",
"C. c #8F8888",
"Z. c #918583",
"A. c #948886",
"S. c #908789",
"D. c #948C8C",
"F. c #998E8D",
"G. c #8A9A85",
"H. c #8A9E84",
"J. c #9B918F",
"K. c #959C8A",
"L. c #978C90",
"P. c #9A8F91",
"I. c #979090",
"U. c #9B9292",
"Y. c #A19696",
"T. c #A39997",
"R. c #A39798",
"E. c #A49A9A",
"W. c #A99E9E",
"Q. c #93B381",
"!. c #9CBD8B",
"~. c #90A391",
"^. c #91A692",
"/. c #9EA490",
"(. c #98BB93",
"). c #9DB29A",
"_. c #A7A79A",
"`. c #A2B49E",
"'. c #A99EA0",
"]. c #ABA2A2",
"[. c #ACAFA1",
"{. c #B0A6A6",
"}. c #B4AAAB",
"|. c #B8AEAF",
" X c #B2B9A6",
".X c #BDB2B3",
"XX c #8ECB83",
"oX c #94C382",
"OX c #99C685",
"+X c #97CA88",
"@X c #9CCA8A",
"#X c #92D982",
"$X c #A3D18F",
"%X c #A7D493",
"&X c #A1E18C",
/* pixels */
"n b.b.N.M.b m J.J.N.b.M.I.].}.D.u y h i & % - y y i c b.M.Y.|..X.X.X.XW.i 0 0 i l z M.n 0 = - q p z z ; y p i b U._.D.i y z b.N.",
"l l z M.n 0 = - q i z M.C.D.I.i O % & % & u Z.F.d.z i y h n E.{.].].}.U.v i 0 ; ; 0 p p 0 h N.v 0 : ; % = i z D.E.|.{.Z.h a z M.",
"; ; y l i & O - 0 y p c n N.M.0 = - 0 0 p n N.F.T.D.y % % 0 d.U.U.I.D.U.T.Y.h % o o % 0 D.|..X_.a = = : z N.M.n m F.P.N.M.M.N.n ",
"O O % & & o - A.J.z y p z M.N.n h h D.Z.s.N.M.J.}.T.0 . X = z M.N.N.N.I.}.T.0 o & : p M.U.E.W.U.N.z v l z M.n 0 = - u p z n B.n ",
"= = - 0 - o - A.D.l ; y p n U.U.i 0 d.D.N.N.N.L.}.Y.0     = z B.N.M.M.L.}._.q & i n s.D.E.J.a u b m z : y l i & O - y y p c b.n ",
"v z m U.Z.- o - 0 * & ; y n T.T.z u h b n M.M.L.].U.v - O * z B.B.N.B.D.J.d.- & z N.N.L.}.T.q o i m u * & * & o - B.D.z y p z b.",
"S.N.L.'.T.v - o . X o * l n D.U.U.A.y ; y z b.V.D.U.T.N.- & v B.N.N.B.n i - O = z B.N.J.}.E.q o = a a z : : - o - A.D.l ; y i z ",
"S.N.V.D.U.E.Z.=   . X & z s.N.D.].I.0 o * i z b.M.I.}.T.q & a n n n n h & X % q b B.D.Y.T.d.- o & q n N.D.R.A.- O ; 0 * % y y ; ",
"b.N.N.N.D.].T.a % X X % y x n C.L.m =   o = y z s.J.{.T.y O ; p p p p y % % i n n D.].T.h - o & i n M.D.W.}._.v - o   X % = = o ",
"l b.N.N.B.I.U.D.i - O O = y c M.N.n a - O o * y z D.[._.k r j <.<.<.<.f - ; c V.D.U.Y.D.u & = 0 n N.N.F.{.{.F.A.d.-   X o O O X ",
"y z n.B.s.n M.D.U.Z.- X o * y z n.S.Y.Z.- . o * y s.!.$XoXk.oXoXoXoXoXg.g u c L.W.Y.z u z z z n s.N.M.U.}.E.h i A.v - O O & = * ",
"* y z n a y c I.].T.i - 0 0 ; y b P._.T.k 9 9 8 6 :.e.x.v.c.x.x.x.x.XXa.:.d f./.[./.0 & p b.N.C.D.L.J.U.Y.A.u q A._.D.- % i b i ",
"O * y p ; 0 x C.L.D.n m U.Z.: = v S.L./.Q.k.k.q.O.[ #.*.*.*.-.&.*.*.*.#.} +.j.$X%Xk.9 O y l b.D.'.}.}.Y.h u h N.T.].F.- = z n 0 ",
". O O O O = p n n n N.U.}._.k f f.G.1.2.l.v.v.p.%.T T T T T T T T T T T T %.p.c.v.q.5 < s s.V.P.Y.R.E.Z.q : b D.W.W.m q 0 h 0 O ",
"O & * & % % y l l l n U.}. X!.k.+Xl.5...#.*.-.%.^ B N L B B B B N B B B N ^ @.*.-...[ | w.@X[.R.v : 0 u a n M.B.D.Y._.F.d.d.0 % ",
"y l l y % O = ; ; y z N.P./.XXx.x.y.o.T T T T T L L L N B B B B B B B B L L T T T T T @.p.XX(.K.g 7 % - c V.N.B.M.A.J.Y.J.d.- * ",
"y l 0 * o o O O O * u p u r O.-.-.%.^ L L B B L C T T T T T C A T T T T T J L L B B L ^ %.*.+.9.h.g.f y n N.N.N.N.n a : 0 - o = ",
"= ; & o . O * = : q ; ; $ 1 A E T ! N _ B B B ^ o.=.-.-.=.-.&.&.=.=.=.=.-.o.J L B N N N ! T E #.i.h.>.p n N.N.N.n i % o & - o & ",
"% = & . X % p n.P.S.y $ 1 A W E H N _ L H T T o.u.c.c.c.c.c.c.c.c.c.c.c.c.p.o.C T H N N N H E Q #.O.d p b.B.S.n y % o * a b q % ",
"X * * o O ; n L.'.R.v 6 I T ~ ~ L L L ^ o.=.&.6.a.c.x.c.c.c.c.c.c.c.c.c.c.a.6.=.-.%.^ B B L ~ ~ T I { s z b n i % o * u d.D.A.i ",
"X * & O = i n V.D.U.R.G.] B B L J T T  .i.c.c.a.;.=.=.&.-.-.-.-.=.-.-.=.=.6.a.c.c.p.o.T T T H L B H U | d i ; % o % p M.T.E.U.C.",
"X % % O ; l c b.N.D.'.^.] M B H T Q #.8.a.c.c.p...C T T T C R C T C T T T o.p.c.c.a.6.#.Q T H N _ N ! S 4 ; - * * 0 n U.}.].D.N.",
"X X X O ; p p z b.V.L.m.] N ! T R #.i.a.8.=.-.o.P L L L L L L L L L L L L J o.=.=.8.a.i.#.R T ! N _ B G # - i v z b s.U.].].N.M.",
"0 y ; ; ; ; ; y l c c :.] ^ @.$.=.6.a.p. .T T J L _ N _ _ _ _ _ _ _ _ N M N J T T o.p.a.;.&.&.@.^ N _ F # 0 b S.B.B.N.D.U.D.z z ",
"n b.c p = O O % * = * 3 V o.y.x.c.a.6.o.P L L L N ) _ _ N N ) _ _ _ _ _ _ N L L L J o.8.a.c.v.y.o.~ N F 4 y n V.B.N.B.n i 0 0 0 ",
"M.M.N.n 0 & O . o X $ 1 A &.x.%X#Xu. .C N _ ) N ) N L L L L L L L L L L L ) _ ) ) N J o.u.#X$Xc.&.T H G t d c n z z z h q q i p ",
"c l M.N.n i &       1 A R &.c.#Xt.o.J L N _ _ M _ L J C T T T C C R C C L _ _ _ _ N L P o.t.#Xc.&.Y E P K ` d u : * * u Z.T.E.F.",
"z y z M.N.m i u r 6 S W #.6.a.i. .J M ) _ _ L L L P #.-.-.=.=.&.=.-.-.#.P L L L N ) ) M C o.u.a.6.#.Q ~ N F 4 ; = * & i U.}..X_.",
"i & y z M.C.U.E.E.H...@.i.a.6. .J N / ( / L J T C o.u.c.c.c.c.c.c.c.c.i. .C J J L ) ( / N P @.6.a.p.#.T B F 2 = p z z n D.T.|.E.",
"; o = y c C.'.|..X`.0.;.a.i. .C L / ( ( N J T Q #.6.a.x.c.c.x.c.c.c.c.a.6.#...R H N / ( ) N C  .p.a.6.o.^ D , ; b N.B.N.N.D.U.B.",
"% o O = y c V.E.|. X+Xa.;. .P N N ) ) N J E R #.i.a.6.&.&.&.&.=.=.=.#.8.x.i.@.Y T J N / ) N N ^ o.r.a.y.%.I 6 u n B.N.N.B.n p - ",
"X X X o = y p n F._.%Xx.$.T B M ) N L P T Q #.6.x.u...T T T T T T T C @.u.a.;.#.Q T P L N M _ N T -.c.c.-.I 6 p n B.B.N.b i %   ",
"X X X X O % * * : ,.OXv.$.T B _ ) L ~ T Y #.p.a.8.o.P L L L L L L L L P ..6.a.i.#.R T C L N _ L C -.c.c.*.S 6 l b.V.B.n 0 % X   ",
"* % = = * - : - o 7 q.y.%.~ N _ N L T Q #.8.a.p.o.C N _ N _ _ _ M N _ L H  .p.a.;.#.Q T L N ) L C #.p.a.6.| 6 y z z z h u 0 q 0 ",
"p y h z z m U.Z.= $ | @.^ N N _ ) L T #.p.a.8...J L _ _ ) _ _ _ M _ _ _ N P o.8.x.u.#.T L ) N N L ^ o.6.a.w.8 O % * & u A.W.T.A.",
"z y n B.N.L.].T.v w [ T L _ _ N L ^ o.6.a.p. .J N _ _ N L L L L L L N _ N L C o.i.a.;.o.P N N ) M N T =.x.k.f & * * * i U.|..X_.",
"i - b B.N.V.D.U.Y.G.X.T B _ _ B J #.p.a.6.o.J L N _ _ L C R T T T P L ) ) N N P ..8.a.i.#.C L _ _ L T =.v.z.j ; a z z n S.E.}.E.",
"0 & h M.N.N.N.L.}.).+.T B _ _ B T =.c.c.=.R L _ ) N L H T Q #.&.Q E H N N _ ) L C &.c.c.-.C L _ ) L T =.x.oX<.l n N.B.N.N.L.}.T.",
"y O y l b.N.N.U.}.).4.E B N _ L T =.c.c.-.J L _ _ L P T T #.p.p.#.R T T L _ N N R &.c.c.-.J L ) N L T =.x.oX<.p b.N.B.N.M.J.}.T.",
"0 O ; p z z n N.U.H.+.T L _ _ L T =.x.c.-.J L _ _ L T Q #.6.a.a.6.#...T L _ M L J -.c.c.-.T L N ) L T =.x.oXj y z b.n n b m J.Z.",
"O % 0 y ; 0 y p u w [ ~ L _ _ L T =.c.c.&.T L N _ L T #.i.a.6.;.a.p.#.T L _ _ L T =.c.c.=.T L ) ) B T *.x.k.r * y l l y ; = 0 - ",
"O o = = X o = = o > Z E L _ _ B T =.c.c.=.C L ) _ L T &.i.a.;.6.a.p.#.T L _ _ L T =.c.c.=.T L N _ L T -.x.k.f * ; ; ; 0 0 0 0 = ",
"- X O o X X o o o > S T ^ _ _ B T =.c.c.-.T L N _ L T Q #.8.a.a.8.#.Q T L _ M L C &.c.c.=.T L _ _ L T *.x.OXf.i * O o 0 A.E.T.N.",
"a * % 0 0 0 y 0 O > S T B _ _ B T =.c.c.-.C L ) _ L ^ T R #.p.p.#.R R ^ L ) N N T &.c.c.=.T L _ _ L T *.x.@XK.n y & & p Y.|..X_.",
"B.z z d.I.E.E.Z.-   A T H _ ) L T -.v.x.=.T L N _ _ L P T ..#.#.Q T P L _ _ N L T =.x.v.=.T L _ _ L T -.x.@XK.n.b c z n D.T.|.{.",
"N.n N.D.].{.|.U.v w [ E L ) N L J o.u.a.6.o.H N N _ _ L T T T T T J N _ _ _ N P o.6.a.i.#.C L _ _ L T $.x.OXG.n n M.N.N.b n F.F.",
"p z M.C.I.I.I.U.W.G.X.T L ) ) N L P  .6.a.i.o.C L ) ) N B L L L H N N _ _ L H o.i.a.;. .P L N ) M B T &.x.OX1.p p z M.n 0 = : u ",
"y i c n N.M.n M.F.~.9.o.P L N N ) L Y #.i.l.8.o.J N N ) N ) _ ) _ _ _ _ L P o.8.l.i.#.Y N ) _ N N P  .;.a.h.g ; ; y h i & O - 0 ",
"z y p z s.n 0 = : j h.i.o.C L _ _ L ~ Q #.8.a.p.#.H N ) N M _ N _ M N N C o.i.a.8.#.Q T L _ M L J @.p.a.6.| < O O % & & X - A.F.",
"p y y y z p &     9 k.v.=.T L _ _ L J R R #.p.a.8. .J L L L L L L L N J o.8.a.i.#.R T J L _ _ L T =.c.c.&.Z 3 * * ; 0 - o : A.F.",
"* * y y : % o     9 k.c.=.C L M _ N L H T Q #.8.a.p.o.T C T T T C T T o.p.x.6.#.Q T P L _ _ M L T -.c.c.&.} d c z m U.Z.- o - 0 ",
"X o ; * o % - u q g h.a.8. .P L _ ) ) N J E R @.p.a.8.=.=.=.&.=.-.-.=.;.a.u.#.R Y J N ) ) N N P o.6.a.p.o.} m.n.B.D.].Y.v - o   ",
"X o % o . ; Z.E.E.H.7.;.a.p.o.C L ) ( / N P T Q #.8.a.c.c.c.x.c.c.c.c.a.6.#.Q T H _ / ( ) N C  .p.a.6.Q ^ ] 1.b.N.C.D.U.T.Z.-   ",
"o o & * * p U.|..X).+.@.i.a.8. .J N ( ( / L J T T ..p.c.c.c.c.c.c.c.c.u.o.T T J L ) ( / N J  .8.a.p.#.T N ' 1.n.N.N.N.D.].T.v - ",
"0 % p x z n A.T.|.).+.E #.6.a.i.o.H M ) ) N L L B ^ %.-.=.=.=.=.-.-.-.#.P L L L N ) ) N J o.i.a.6.#.Q T B ` t z b.B.N.B.J.U.T.A.",
"; * x N.B.N.N.D.W.^.3.T Y &.c.#Xt.o.P N N N N ) ) B J T T T T T J T C J L _ ) N ) N N P @.t.v.v.&.R T ~ B F 4 y z n N.d.c n J.A.",
"% = b B.B.B.B.Z.D.m.] H T =.c.$X#Xu. .C N N M N _ N L L L L L L H L L L N _ _ _ M N C o.i.#X$Xv.$.T ^ L N F 2 * y c M.n 0 * : - ",
"O & i z z z z v b d ` N C o.i.x.c.a.;.o.P L L N N _ _ _ N ) N _ _ _ _ _ _ N N L N P o.6.a.c.c.u.@.! N _ B D # O = y l h u q 0 - ",
"- X % = * * & * * 3 F M B ^ @.$.=.8.a.i.o.T T J N _ _ _ ) N M M _ N _ _ _ L C C T o.p.a.8.&.&.o.^ N _ L ~ V + o O O * u A.W.T.d.",
"h * & = = = q - O # F M _ B ! T R #.i.a.6.=.=.o.P L N L L L B B L L L L L J ..=.=.8.a.u.#.R T C N _ _ L T Z < * * * * i Y.|..X_.",
"N.v z z z n U.Z.- @ F _ _ _ N ^ T ..@.;.a.c.c.u. .C T T Y T T T T T T T T  .p.c.c.a.6.#.Q T ^ N N _ _ L T S 6 y l b z n Z.E.|.{.",
"N.n s.d.N.L.].J.0 + D N N _ M B J T T  .u.c.c.a.6.#.=.-.$.$.&.&.&.&.$.$.=.6.a.c.c.p. .T T ~ B _ _ N N ^ %.O.e y z M.M.N.n.S.U.U.",
"i l p z b.V.F.m = > S ! N _ _ N L L L J o.=.$.;.a.v.c.x.x.x.x.x.x.x.x.x.x.a.6.&.=.o.^ B L L N _ _ L ~ %.y.w.8 * y z m B.N.n i u ",
"; y y p n N.B.z = > Z E L _ _ _ _ _ _ L T R Y $.x.&X&X$X&X&X&X&X&X$X&X&X%Xc.#.T E T L _ _ _ _ _ _ L T -.#Xk.8 o ; l n N.B.z * o "
};
