/* XPM */
static char *result[] = {
/* columns rows colors chars-per-pixel */
"64 64 198 2 ",
"   c #54453F",
".  c #386E50",
"X  c #544740",
"o  c #564942",
"O  c #594C46",
"+  c #5B4E49",
"@  c #465946",
"#  c #4C5D43",
"$  c #475A48",
"%  c #4A5B4A",
"&  c #595648",
"*  c #5E524C",
"=  c #5F5C56",
"-  c #60544E",
";  c #625651",
":  c #655954",
">  c #695C56",
",  c #675D5B",
"<  c #6A5E5A",
"1  c #4E6043",
"2  c #4D614D",
"3  c #52654A",
"4  c #58694D",
"5  c #4F6350",
"6  c #576A57",
"7  c #5A6E5B",
"8  c #4E7D5F",
"9  c #5A7057",
"0  c #5D745C",
"q  c #63634E",
"w  c #646657",
"e  c #6D615D",
"r  c #71645F",
"t  c #61755B",
"y  c #68745A",
"u  c #6A745D",
"i  c #497963",
"p  c #5E7462",
"a  c #6D6463",
"s  c #726663",
"d  c #746A66",
"f  c #736668",
"g  c #756C6B",
"h  c #796E6C",
"j  c #667A65",
"k  c #6D7A65",
"l  c #64756A",
"z  c #6C7D6A",
"x  c #747A62",
"c  c #7A706E",
"v  c #796F70",
"b  c #7D7574",
"n  c #7D7A77",
"m  c #817572",
"M  c #817876",
"N  c #827778",
"B  c #847C7C",
"V  c #887F7D",
"C  c #1C8F5E",
"Z  c #17935E",
"A  c #1C955D",
"S  c #1F9859",
"D  c #388E4A",
"F  c #269E4F",
"G  c #3C9345",
"H  c #32924B",
"J  c #3C934B",
"K  c #2C8455",
"L  c #2F8857",
"P  c #24865A",
"I  c #2A835A",
"U  c #2C895F",
"Y  c #308856",
"T  c #348D5C",
"R  c #269D53",
"E  c #23955C",
"W  c #209959",
"Q  c #2B9F58",
"!  c #3D9552",
"~  c #399A55",
"^  c #2CA547",
"/  c #2CA34B",
"(  c #30A646",
")  c #35AA47",
"_  c #30A74C",
"`  c #34AB49",
"'  c #3AAC4A",
"]  c #27A252",
"[  c #2AA152",
"{  c #2CA058",
"}  c #0F8D67",
"|  c #138E66",
" . c #118D68",
".. c #179163",
"X. c #1A9360",
"o. c #298C60",
"O. c #2C9663",
"+. c #3B9769",
"@. c #3C956D",
"#. c #41974C",
"$. c #43994E",
"%. c #4D8C54",
"&. c #508553",
"*. c #469D52",
"=. c #489E53",
"-. c #459C5B",
";. c #549857",
":. c #71875E",
">. c #4BA257",
",. c #42AF57",
"<. c #4EA55B",
"1. c #43AF58",
"2. c #54A359",
"3. c #55A95D",
"4. c #44B156",
"5. c #49B353",
"6. c #4FB857",
"7. c #45B058",
"8. c #4FB758",
"9. c #4EB958",
"0. c #50B757",
"q. c #50B957",
"w. c #50B758",
"e. c #51B858",
"r. c #408264",
"t. c #5E9D64",
"y. c #5F8E70",
"u. c #439C74",
"i. c #6E846B",
"p. c #6F8571",
"a. c #778975",
"s. c #7B9179",
"d. c #47A862",
"f. c #5EAC63",
"g. c #5EBE61",
"h. c #60BE62",
"j. c #6BB76F",
"k. c #7EB672",
"l. c #7FBC72",
"z. c #5EC061",
"x. c #71C76F",
"c. c #74CA6F",
"v. c #76C670",
"b. c #72C870",
"n. c #7BCD73",
"m. c #87807F",
"M. c #8B807E",
"N. c #85937E",
"B. c #81B973",
"V. c #88C07E",
"C. c #87D47B",
"Z. c #89D47C",
"A. c #88D87D",
"S. c #877F80",
"D. c #887E80",
"F. c #7E9580",
"G. c #7EAB8C",
"H. c #878080",
"J. c #8B8484",
"K. c #8D8985",
"L. c #8E8788",
"P. c #8F8888",
"I. c #918683",
"U. c #948886",
"Y. c #93878B",
"T. c #948C8C",
"R. c #998E8D",
"E. c #889883",
"W. c #8A9C84",
"Q. c #829789",
"!. c #859A8A",
"~. c #9B918F",
"^. c #998E91",
"/. c #979090",
"(. c #9B9292",
"). c #9C9891",
"_. c #A29796",
"`. c #A39897",
"'. c #A59698",
"]. c #A49A9A",
"[. c #A99E9E",
"{. c #8FA596",
"}. c #98A792",
"|. c #A5A69A",
" X c #A6B49E",
".X c #A89FA0",
"XX c #98ADA1",
"oX c #ABA2A2",
"OX c #B0A6A6",
"+X c #B4AAAB",
"@X c #B8AEAF",
"#X c #B6BEAA",
"$X c #BCB2B3",
"%X c #8EC582",
"&X c #98C584",
"*X c #96C886",
"=X c #A9D695",
"-X c #A5E38F",
/* pixels */
"B S.S.J.H.M m.R.~.M.B J.T.oXOXT.s e c g - + > e a g b H.J.(.$X$X$X$X$X|.g < r g b b H.B e : < r g b b a a c d M ~.|.T.d s b S.J.",
"v g b J.B e : e e d b H.P././.f + - ; * - s P.R.H.b g a c B ].OXOXoXoX].m d s > , , g f r c M.N e > , + ; f n T.].@XOXI.b g b H.",
", , a v d - + > s a g n H.J.H.e : > e e d B J.R.`.T.a * - e m.~.R././.).`._.h + O O * e T.$X$X|.h ; : < M J.H.M V R.^.J.H.H.H.B ",
"+ + * - * o e I.R.b a g b H.J.B c c T.I.m.J.M.~.OX`.e     : m J.H.H.H./.+X`.r O * w h H.(.].].(.J.b b v b H.B e ; < s d b B T.B ",
": : > e > + > U./.v e a g m.).(.d e m.T.J.J.J./.+X`.e     : b J.P.H.H./.+X`.r - f B m.R.[.~.h s N V b , a h d - * > a a f b S.n ",
"N b D.^.I.> + > e - * , a n `.`.c s c M B S.H.T.oX).m > + : b L.P.H.L.U.(.I.> ; b K.H./.OX`.r + d V s : * ; * O > U.T.b g g b H.",
"J.I.^..X`.m > O   X O ; c B T.(.`.U.f : f b S.L.T.(.(.I.> ; b L.J.L.L.B h > O ; b J.H.R.+X`.r O : h c b a < > + > U.T.h = a g v ",
"L.J.L.T.(.`.I.:   X X ; b H.H.T.oX(., O = a b S.H.(.+X].r - c B B B B c - o - e B P.R.(.`.I.> O - r M I.T.`.I.> O > e - = a a , ",
"S.J.J.H.T.oX`.h & o o - a b m.P./.V :   O : a b m./.+X].r * a v g v v a + ; f N H.T.oX].m : + - g N H.T.[.+X|.m > O   o - : : O ",
"b S.K.J.P.R.(.T.g > * O ; a n H.J.N g > * + : s b K.}.W.t 2 9 t p t 0 7 - , N Y.T.(.].U.s ; - e B J.J.R.OXOXT.U.M.>     O + O o ",
"a b H.J.H.N H.T.(.I.> o O ; a b S.T._.J.> o O ; a z t.<.#.#.! $.$.! $.%.t f B /..X'.c s c m n N m.H.H.(.+X[.c h U.N > * + - ; : ",
"; a b m.c s N T.oX`.d : , e e a N R..X(.u # # 4 7 8 ~ / _ ^ _ _ _ / / ~ 8 p p.N.}.E.w - h H.J.P.T.~.~.~._.I.s s T.|.U.> * d m g ",
"O ; a f : , n P./.T.B B (.I.< , b Y.^.Q.;.G G J T U W W W W W W S S S E o.O.-.<.3.;.& - s b B T.oX+X+X(.c r c H.].OXR.> : b B e ",
"o O * * * ; b B B B J.(.+X|.u 4 i.s.a.y.~ _ / [ W A A S S W S S S S S S W R [ / / H . 2 6 z L.(.`.`.].U.r e M R.[.].V e e c e * ",
"- ; ; * * * a g g b S.(.+X|.t.G $.>.+.O.O.S W R [ / ^ / H ^ F ^ / / / / / R R W W E P L J t.}.'.m e e s c M m.L.T._.|.R.M.m.> * ",
"a g g a - * = , , a b L.(.E.d./ / [ W S S S A Q 7.e.w.w.e.e.e.e.e.9.e.e.w.1.Q W W W S R ] d.G.!.0   & > b L.L.L.H.I._.(.~.I.> ; ",
"f g , - + O + + + ; f g s t T S S R [ / / / / 1.x.Z.Z.C.C.Z.Z.Z.C.Z.C.Z.Z.x.1./ / / / [ W O.+.+.! #.4 f B J.J.J.J.S.d e e > + : ",
": , - O o + ; : < r , = & . P Z A R ^ ' 5.e.8.g.n.Z.Z.Z.Z.C.Z.Z.Z.C.Z.C.Z.n.g.w.e.5.' ^ ] S Z S / ~ l h B J.J.J.B f * * ; : + - ",
"* : - O O - f S.(.I.e % . P C S ] / ( 4.b.Z.Z.n.h.0.0.0.0.0.0.0.0.w.8.8.8.g.n.Z.Z.c.4.( / ] S A A T 7 g B L.L.N a * O ; h m r + ",
"o ; - O + , N /..X'.N 7 o...A { 7.9.8.g.n.Z.Z.b.,.F _ F / / / F / / / / / 1.b.Z.Z.n.g.8.9.7.{ A Z o.i l n B N g * O * s m.R.U.d ",
"o - ; + : g n P.T.(.'.Q.@.A F 1.b.Z.Z.n.g.w.e.7.Q W W W W W W W A W W W W { 7.w.e.g.n.Z.Z.b.7.R E X.o.r.l g > * O * d J.`.|./.P.",
"o * * + , g n H.H./.oX{.+.R 4.z.n.Z.Z.v.1./ / R A ....A A X.Z Z Z A C ....A R / / ,.b.Z.Z.n.h.4.Q A Z U 6 > : ; ; e B /.OXOXT.H.",
"o O O + , g v b S.Y.^.F.>.' b.n.h.e.w.7.{ W A A |  ...Z X.X.A C Z A .... .| A W W { 7.w.w.h.n.v.1.R S P 2 : g N n M H./.+XoXL.m.",
"e , , = , , , a v N b p.f.z.n.c.5._ ^ R A ..Z .. .| A W E W W E W W W A | | ......X.R ^ ( 5.b.n.h.4.{ K 2 , N L.P.P.H.T.~.U.b b ",
"S.S.N g : + * * : ; ; u B.n.g.5.' _ R A |  .| ....A R / F _ F ( / / _ R A ...... .| A R / ' 5.g.n.b.7.H 7 f B J.L.L.P.B d e e e ",
"H.H.J.B e - O X X + q :.B.c.5.( ^ R W .. .| A W W { 7.e.0.0.e.e.w.e.e.1.Q W W A |  ...E R / ( 5.b.n.g.3.&.l n B b b b c r r d d ",
"n b H.J.M d - X   q s.V.h.5.' _ R W X.X...A R / / ,.c.Z.Z.C.Z.Z.Z.Z.Z.x.5.F F F A ....A W R _ ' 5.z.n.v.3.%.j f > ; ; s U.].|.T.",
"b a b H.L.V g e q M.Z.C.8.( _ R E X.E W W { 7.w.0.h.n.Z.Z.Z.Z.Z.Z.Z.Z.n.h.w.e.5.Q W W W A E R _ _ e.Z.Z.9.$.9 , : ; - d (.+X$X[.",
"f - a n H.P.(.]._.|.-XC.6.^ R W X.A R _ / ,.v.Z.Z.n.e.e.e.e.0.0.8.8.w.g.n.Z.Z.v.7._ _ Q E A W R ^ w.Z.Z.9.G 1 ; d b b m.U.].+X].",
", O : a b P..X+X@X#X*Xx.,.F A | ..W / ' 5.g.n.Z.Z.x.1./ / _ _ F / / / ,.x.Z.Z.n.e.6.' / W X.| Z R 7.b.n.z.;.4 , M P.P.H.J.T.(.K.",
"* o * ; a n P.[.+X Xj.4.Q A |  ...W / 5.c.n.h.w.0.7.{ W W W W W A W S Q 7.0.w.h.n.c.7./ S .. .| A Q 7.z.n.B.k s B L.P.J.J.m.h > ",
"X o o + : a g B ~.N.2.) S Z  .| A { 4.g.n.c.5.( / R A ....X.X.X.A Z ..E R ^ ( 7.c.n.h.1.Q A | | ..S / q.Z.&Xa.g B J.P.H.M d *   ",
"o o o O + + ; ; < t $.^ W X...Z R 1.v.n.h.5.' _ R A |  ...A X.A .... .| Z R _ ' 5.g.n.v.7.R A ....W / q.A.*Xa.g B L.L.N e * o   ",
"; * ; ; : > < > + # D { S ....W / w.Z.Z.0.( _ R E .. .| A W E E W A |  ...W Q / ( w.Z.Z.w./ W Z ..A R 4.b.l.x a g b m h f e r e ",
"h a c b b V ~.I.> @ Y A |  ...W / w.Z.Z.0./ R W A ....A R / F _ / R A ....E W R ( 0.Z.Z.w./ A .. .| A { 7.;.4 + ; ; ; s I.].].U.",
"b a N L.L.^.oX`.m 7 o... .| A { ,.h.n.c.1.F A ....A W Q 1.0.e.w.0.5.Q E A Z | A R 1.c.n.g.,.{ A |  ...W / J 4 + ; ; ; d `.@X$X|.",
"f w m L.L.L.T.(._.!.@.....A [ 7.x.n.g.,.Q A |  ...W R 1.x.Z.C.Z.Z.c.1.F A ..| | A Q 1.h.n.v.5.R A ..X.W / $.7 a h n b B Y.].+X].",
"e ; g m.L.H.H.(.+X}.u.Z Z W ^ e.Z.Z.8./ W .. .| A Q 7.e.n.C.Z.C.Z.n.h.1.{ A |  ...W F 0.Z.Z.w./ W X.X.W / $.j g B J.L.J.H.(.+X`.",
"e * a b B L.J.^.+XXXu.Z Z W / e.Z.Z.w./ W ....A R 1.n.n.g.w.0.0.8.e.n.b.7.R A ....W F 8.Z.Z.0._ W X.X.W _ *.0 v S.L.K.J.J.~.+X`.",
", O e f b N B I.R.!.@.Z Z W [ 9.Z.C.8./ W X.X.W _ e.Z.Z.0.( ( ( ) e.Z.Z.e.^ W ..A W / w.Z.C.0.F W Z X.W _ $.9 a b B B B b M.~.M.",
"* * e a : , g g r 0 T X.X.S _ 9.C.Z.0./ W X.X.W F 0.Z.Z.0.( ( ( ) w.Z.Z.e./ W X.X.W / w.Z.C.0./ W X.X.W _ #.3 ; f v v g : : w > ",
"+ + : : O O ; = + $ . ..Z S _ 9.Z.C.0./ W C A W _ 0.Z.Z.0.( ) ( ( w.Z.Z.e./ W X.X.W / w.C.Z.0./ W X.X.W / #.4 : , , , > e e e > ",
"> o O O o o O + o $ P X.Z S _ 9.C.Z.5._ W A ..W _ 0.Z.Z.0.( ( ( ( w.C.Z.e.^ W ....W / w.Z.Z.w./ W X.X.W / =.i.g : + O e I.].'.J.",
"h ; ; w e r a , + 2 P X.A S ] 9.Z.Z.w.F W ....A R 4.x.n.h.0.0.0.8.g.n.x.7.[ Z ....W / w.Z.Z.w._ W X.X.W / >.s.B a ; - g `.@X$X[.",
"L.b b B R.].].I.: @ . X.A W _ 0.Z.Z.8./ W .. .| A Q 1.h.n.Z.Z.Z.Z.n.e.7.{ O... ...W / 8.Z.Z.0./ W X.X.W / >.s.H.B M b m.T.[.+XoX",
"H.m.J./.oX+X+X`.m 7 o.X...A R 1.x.n.g.1.Q A  . .| E F 1.v.Z.Z.Z.Z.x.1.R S .. . .A Q ,.h.n.x.1.R A ..X.W / *.p.S.B H.H.H.m B ~.(.",
"g b H.P.T.(.R.(.'.!.@.Z } | A Q 1.g.n.v.5.F A ..X.A W Q 7.e.0.0.w.1.Q W Z X...X.R 1.v.n.g.,.Q A |  ...W / $.j v c b H.B e : > s ",
"a g b S.J.H.N V _.!.+.A |  ...A / w.Z.Z.e.F R W A ....A R _ F _ / R E | X.A W R ( w.Z.Z.w./ S .. .| S { 7.2.0 , , a c d - + > a ",
"b a g b m.M e > < t $.R A ..X.S / 0.Z.Z.e.( _ R W .. .| A W W W W A |  ...W R / ( w.Z.Z.0./ W ....X.{ 7.c.k.y O + + - * o > U.~.",
"c , a g b g - X   1 G / W X...X.R 4.v.n.h.4.' _ R A |  .....A Z .... . .A R _ ' 5.h.n.x.7.R A ..X.W ^ 9.Z.&Xx - : : e > + > I.R.",
"; - a a > - O X X # G _ W .. ...A Q 4.h.n.c.5.( _ R A ....C A Z A ....A R / ( 5.c.n.h.,.Q A |  ...A / 9.Z.&XN.b b V ^.I.> + > e ",
"o O = = O * > r r u 2.4.{ X. . ...W / 7.c.n.z.e.0.1.Q W W W W A W W W Q 5.0.8.h.n.b.5./ W .. .| A { ,.g.C.B.E.L.J./.oX'.M > O   ",
"o o * O o > U.].].}.%Xc.7.] Z ....W ^ ' 5.h.n.Z.Z.v.,./ / / / / F _ F ,.c.Z.Z.n.h.5.' / W ....Z R 4.b.n.z.f.s.L.L.P.T.(.`.I.>   ",
"* O - ; : d (.+X$X#X=XA.q.^ R W X.E { ^ / 1.b.Z.Z.n.g.w.8.8.0.0.0.0.0.h.n.Z.Z.c.1./ / Q E X.W R ^ 0.Z.Z.5.*.p.B H.L.J.T.|.].m > ",
", * f M b B U.].+X#X=XZ.8.) _ R A A W W W Q 1.0.w.g.n.Z.C.Z.C.C.C.Z.Z.n.h.0.w.5.Q W W W A W R _ ( w.Z.Z.9.! j b S.L.H.P.^.(.].I.",
", ; n P.P.J.H.T.[. X*Xn.e.7.' _ R E A ....A F / / ,.x.Z.Z.C.Z.Z.C.Z.Z.c.1./ F R A ....A W R _ ' 5.h.n.b.7.! 9 a b B L.H.M B ~.I.",
"+ : M P.L.L.H.Y.^.E.f.g.n.b.5.( / R W .. .| A W S { 7.0.e.w.8.9.0.0.0.5.Q W A A |  ...E R _ ( 5.n.n.z.' Q L % ; s b S.N e : e > ",
"& * d M b M b m N z ~ 7.b.n.z.5.' _ R A |  .| C ..E R / / / / / F _ F R E ..Z ..| | A R ^ ' 8.e.n.b.7.] Z I % + : a b h s e e : ",
"> o - ; ; ; - ; ; 5 Y { ,.g.n.b.5.( _ R A ...... .| A W W A S S E W W A | | ......A R / ( 7.c.C.h.7.{ A A I % O + * - s U.].`.M.",
"c ; ; ; : : r > O % I S F ,.c.C.h.0.0.1.Q W W A |  ...X.Z A X.X.A A A .. .| A W W Q 4.w.w.h.n.b.7.R S X.S L 5 ; ; ; ; g _.@X$X|.",
"I.m b b b m.~.I.> $ I X.A { 1.h.n.Z.Z.x.,._ F R A ....X.X.X.X.O.X.A X.X...A R / / ,.x.Z.Z.n.g.1.Q A A S [ ! 9 a b b b B I.].+XOX",
"J.B B m.J.T.oX~.r $ K S Z S F ,.x.Z.Z.n.h.0.0.1.{ W W W W W W W W E E R W { 7.0.0.g.n.Z.Z.x.,.[ A X.W R _ #.9 s b H.J.J.J.Y.(.(.",
"g v c c H.T.^.V : 1 J [ W A A { 1.0.0.g.v.Z.Z.c.7.F _ _ / / ~ _ _ _ _ F F 1.c.Z.C.b.g.0.0.1.{ A Z E { / ` J 3 : a b m.J.L.B d s ",
"6 a a g B H.L.m ; 1 G _ W ..Z W / ( ( 5.Z.-X-XZ.e.) ) ) ) ) ) ) ) ) ) ) ) 0.Z.-X-XC.8.( ( / W X.X.W _ ` ' J # + , g B J.L.m - O "
};
