/* XPM */
static char *result[] = {
/* columns rows colors chars-per-pixel */
"64 64 191 2 ",
"   c #54463F",
".  c #386E51",
"X  c #544740",
"o  c #564942",
"O  c #594C46",
"+  c #5B4E49",
"@  c #4B5E41",
"#  c #4A5847",
"$  c #465948",
"%  c #555746",
"&  c #5E524C",
"*  c #60544E",
"=  c #625652",
"-  c #655954",
";  c #695C56",
":  c #675D5B",
">  c #6A5E5A",
",  c #4C614F",
"<  c #526448",
"1  c #57674C",
"2  c #4C6150",
"3  c #536755",
"4  c #5A6D55",
"5  c #546B5D",
"6  c #5B6D5B",
"7  c #5F7257",
"8  c #5D735D",
"9  c #626A4F",
"0  c #666456",
"q  c #656D54",
"w  c #6A6D55",
"e  c #6D625D",
"r  c #71635F",
"t  c #627257",
"y  c #62745B",
"u  c #677759",
"i  c #597165",
"p  c #5F776B",
"a  c #6D6463",
"s  c #716663",
"d  c #746A66",
"f  c #736668",
"g  c #756C6B",
"h  c #796E6C",
"j  c #687A68",
"k  c #717C64",
"l  c #7A706E",
"z  c #727E6A",
"x  c #796F70",
"c  c #677E70",
"v  c #7D7574",
"b  c #7E7A77",
"n  c #817572",
"m  c #817877",
"M  c #827778",
"N  c #847C7C",
"B  c #887F7D",
"V  c #16935F",
"C  c #1C965D",
"Z  c #1F9859",
"A  c #388E45",
"S  c #269E4F",
"D  c #3B9246",
"F  c #3B9448",
"G  c #3D954B",
"H  c #298658",
"J  c #2B845C",
"K  c #2F895F",
"L  c #338B5A",
"P  c #259D53",
"I  c #289F51",
"U  c #209859",
"Y  c #2B9F58",
"T  c #3C9851",
"R  c #2FA646",
"E  c #2CA34B",
"W  c #30A646",
"Q  c #31A947",
"!  c #30A74B",
"~  c #36AE49",
"^  c #3BAD4A",
"/  c #26A051",
"(  c #29A052",
")  c #2CA058",
"_  c #0F8C67",
"`  c #0D8A6C",
"'  c #128E67",
"]  c #118D68",
"[  c #179163",
"{  c #1A9360",
"}  c #2F8861",
"|  c #338D65",
" . c #389261",
".. c #369069",
"X. c #3B956D",
"o. c #46854C",
"O. c #41974C",
"+. c #41994D",
"@. c #528959",
"#. c #489B53",
"$. c #519E55",
"%. c #529158",
"&. c #648156",
"*. c #42AE57",
"=. c #4CA45A",
"-. c #4CA65B",
";. c #43AF58",
":. c #54A35A",
">. c #55A85B",
",. c #47B353",
"<. c #4AB454",
"1. c #4DB857",
"2. c #45B058",
"3. c #4FB758",
"4. c #4FB958",
"5. c #50B757",
"6. c #50B758",
"7. c #51B858",
"8. c #459D6C",
"9. c #5B9B63",
"0. c #429C74",
"q. c #6B8168",
"w. c #70916B",
"e. c #6B8375",
"r. c #7C8373",
"t. c #768973",
"y. c #71897D",
"u. c #7D9479",
"i. c #58AA61",
"p. c #5FB264",
"a. c #5EBE61",
"s. c #61BB63",
"d. c #62B468",
"f. c #7CB36E",
"g. c #7EB572",
"h. c #5AC05F",
"j. c #5DC061",
"k. c #73C96E",
"l. c #72C870",
"z. c #7ACD73",
"x. c #819F6C",
"c. c #8B807E",
"v. c #84887F",
"b. c #88A97D",
"n. c #80B975",
"m. c #92BE7C",
"M. c #89C57A",
"N. c #86D47B",
"B. c #89D47C",
"V. c #88D87D",
"C. c #877F80",
"Z. c #887E80",
"A. c #7F9580",
"S. c #878080",
"D. c #8B8484",
"F. c #8C8885",
"G. c #8E8788",
"H. c #8F8888",
"J. c #918583",
"K. c #938886",
"L. c #91878A",
"P. c #948C8C",
"I. c #998E8D",
"U. c #8B9683",
"Y. c #869B82",
"T. c #899D85",
"R. c #829789",
"E. c #9B918F",
"W. c #978E90",
"Q. c #988E91",
"!. c #979090",
"~. c #9B9292",
"^. c #A29796",
"/. c #A39897",
"(. c #A49798",
"). c #A59A9A",
"_. c #A99E9E",
"`. c #8BAB8F",
"'. c #95A896",
"]. c #9CB29A",
"[. c #A5A49C",
"{. c #A99FA0",
"}. c #97ADA1",
"|. c #ABA2A2",
" X c #B0A7A6",
".X c #B4AAAB",
"XX c #B8ADAE",
"oX c #BDB3B3",
"OX c #95CA84",
"+X c #8DD380",
"@X c #A5E38F",
/* pixels */
"N C.C.D.c.m N I.E.D.C.D.P.|. XP.s a l d * + ; e a g v C.D.~.oXoXoXoXoX_.h ; e d x b S.N e = > s d b x a a h d m E.[.K.d a v v.Z.",
"x g v D.N e - 0 s d v S.H.!.!.f + + * * = s J.I.v.v g a l N ).|. X|. X^.n d e : : e g g e l c.m e : : + = f v P.).XX.XD.v l b Z.",
": : a x d * + ; r a g b N D.S.e - ; e e d m F.!.).K.a + & e c.E.!.P.!.!./.^.l & o O & e P.XXoX[.h = = > b D.D.M B E.E.D.N D.D.M ",
"+ + & * * o e K.I.v a f v D.D.N l v K.F.c.D.D.!. X).e   X = b D.D.D.D.!..X).r o & ; g D.~.).).^.D.v M x v S.N e - ; r g v D.D.N ",
"- - ; e ; O ; K.P.x : a g c.~.~.d r c.P.D.D.D.!. X).e     - M D.D.D.D.!..X[.r * d m c.P._.E.h s m B v : a x d * + ; a a g b C.b ",
"M v B Q.J.; O ; e = * : a b ^.^.l s l m N C.C.Q.|.^.n ; O - M D.D.D.D.K.~.c.; - b D.D.!..X/.r + d B s = * = & O ; F.!.v a f v S.",
"D.D.Q.{./.n ; O X o O = h N P.~.~.P.a : f x C.G.P.!.^.J.; * n F.D.D.D.N h ; O * b D.D.E. X).r o ; h l v e e ; + ; K.P.g : a g x ",
"L.D.L.P.~.).J.-   X X = v v.S.!.|.E.e O = f v C.S.!.XX).r * l N N N N l * o * r M H.P.!.(.J.; O * e m J.K.(.K.- + ; e = = a a : ",
"B D.D.D.P.|.^.h & o o * a v v.H.!.N - X O = f x N !..X).s + a h x x x a & & d M v.Q.|.(.n ; O * d M c.P._..X[.n ; O   o & - - + ",
"x C.D.D.F.!.~.P.d ; + + - a b N D.B g ; + + - s b D.'.T.7 < 4 8 8 8 8 6 & : M P.P.Q.(.K.s * * r N D.D.!. X XI.K.c.;     o & O o ",
"f v Z.D.S.M S.P.~.J.;   O * a v C.L.^.J.> O + = s j 9.-.O.D G O.+.T G o.4 f N E. X/.l d h b b M v.D.D.P..X_.l h K.m ; * + * = - ",
"= a v v.l a b W.|.^.h - e e : f M Q.{.Q.y @ @ 1 k w.>.1.4.3.5.<.4.4.4.i.w.t.t.v.`.v.- * h C.D.P.P.P.E.E.^.J.s r K.[.K.; & d m d ",
"O = a f - : b H.P.P.N c.!.J.> : M L.Q.u.%.A A #.n.OXM.N.B.N.N.N.V.N.N.B.OXn.i.=.>.%.% & a v N P.{. X.X^.l s l c.). XI.; = b N ; ",
"o O & & & = x C.N N D.~..X[.j 1 q.u.U.b.p.1.4.j.z.B.B.N.B.B.B.B.N.N.B.B.B.z.h.<.1.>.&.w y j D.Q.(.).).K.e e m !._.).B e e l e & ",
"& = = & & & a x x x N !..X[.%.O.T i.M.OX+XV.+Xz.a.3.3.6.5.5.7.5.7.6.6.3.3.7.N.N.N.B.M.f.$.9.'.(.n e r s l m D.D.P.^._.I.c.B 0 * ",
"a x g a & + : : 0 a b F.~.Y.:.^ ,.j.z.N.N.N.+Xl.^ E E E ! W S S R E E E S *.l.N.N.N.B.z.h.d.`.b.q # % ; m D.D.D.D.K.~.E.^.J.; = ",
"f g e * + O + + + = a g s 6 O.<.k.z.a.<.3.6.6.;.Y U U U U U U U U U U U U Y 2.7.6.3.4.a.z.z.d.=.G o.4 s N H.D.D.D.N h e 0 ; + - ",
"- : * O o + & : r > : 0 w u :.j.z.k.;.E E E E I U { { { { { { { { { { { C U I I E E E ;.l.z.a.1.1.:.j g N D.D.D.N g & + * ; + * ",
"+ - & o o = f Z.^.J.> w x.M.B.z.j.;.Y Z U U U U C { { { { { { { { { { { { C U U U Z Z Y 2.j.z.B.N.g.k g N D.F.M e = o = d m r + ",
"o = = O + : M !.{.^.n k n.N.B.k.,.I Z { { { { { U U U U U U U U U U U U U U C { { { { Z S *.l.B.N.M.u.b N N M d & o * f c.I.K.d ",
"o & = + - f b H.P.~.(.T.d.4.4.2.Y U C { { { { U I ! I ! E E E E S ! S ! ! I U { { { { C Z Y ;.7.1.s.M.b.r.g : * + & f D.).).!.H.",
"o & & & e g b S.C.!.|.'.>.Q E / { [ { C U U U P E ^ <.7.6.6.6.<.7.7.7.<.^ ! U U U U { { [ C I E W <.k.g.k : = = = e m ~. X X!.D.",
"o o o & : g x v C.L.!.A.=.E P C ' ] ' U Y ! E E R ,.l.B.B.B.B.B.B.B.B.l.2.W E E ! I U [ ] ] { P R ^ 1.:.1 - g M b m S.!.|.|.D.v.",
"0 a - : : : : a h b M q.#./ Z [ ] ' C P ! ^ <.6.6.a.z.B.B.B.B.B.B.B.B.z.a.6.6.<.^ E P C ] ] [ U ( ! Q D < : M J.F.F.D.P.~.J.v v ",
"C.C.b x - & + & = = - 3 J Z C [ [ { I E W ,.k.B.B.z.s.7.5.5.5.5.5.5.5.a.z.B.B.k.,.R E I C [ { C U P R O.4 f B D.D.H.D.N d e e 0 ",
"C.C.D.N r * O o o o % . J [ { C U Y 2.6.3.a.z.B.B.l.*.E E I E E W S S *.l.B.B.z.a.4.6.2.) C { { [ { I T @.j b N m M v l r r g s ",
"b v C.S.N d &     $ . H ' ] [ Z S ;.l.B.B.z.s.5.4.2.) Z Z U U U U U U Y 2.7.7.a.z.B.B.l.;.S Z { ] ' C Y T @.j f : * = s K.^.^.^.",
"v a v S.D.N g a e 8 K ' ] ] C ) ;.s.z.B.B.k.*.S E I C C { { { { { { { U I W S *.l.+XB.z.a.;.Y C ' ] [ Z ( T 4 : - * * h ~..XoXoX",
"g * a v S.H.~.)./.R.X.V [ C I ;.k.z.s.5.7.,.Y U Z Z C { { { { { { { { U U U U Y 2.7.6.a.z.l.2.P { [ { { Z H , ; d b v N K.). XoX",
": O - a v H.{.XXoX].0.C C P E 6.B.B.6.W E I C { { C Z U U U U U U U U U C { { U I R R 6.B.B.7.E P U { { { H , : m H.D.D.D.P.~.).",
"+ o + - f b G.).XX}.0.C I R R 3.B.B.7.! P C C { [ Z I E E E E E S ! I I U { { C C P R 7.B.+X4.R ! / U { { K 5 f B D.D.F.F.N d e ",
"o o o + - a x N Q.R.X.Z E ^ ,.a.z.l.2.I C C Z Z Z Y ;.6.6.6.6.6.5.7.7.*.Y C { { { C I 2.l.z.j.,.^ E ) { { } i x B D.D.D.M d &   ",
"o o o o + + * = > 8 } C E <.l.z.s.;.Y U C U S R ! 2.k.B.B.B.B.B.B.B.B.l.;.S U C { { U Y *.a.z.k.<.I U C { K i z C.D.K.M e & o   ",
"= * = - = ; e ; O # H P E 6.B.B.5.I U { U I ! ^ <.7.z.N.B.B.B.B.B.B.B.z.s.*.Y C C { { U S 6.B.B.7.! P U { K 5 a x b v l f e e r ",
"h a v v M B ~.J.; @ A E W 6.B.B.7.E U C I E W ,.k.N.h.7.5.5.5.5.5.5.5.s.z.k.;.S Z { { U E 7.B.B.5.W ! I C } 2 * = = * s K./././.",
"v a N D.D.P.|.).n t O.^ ,.a.z.l.,.I C U ! ^ ,.h.z.l.,.R F S ! S S W W ,.k.z.s.;.Y C C U I ;.l.z.a.2.^ E C . 2 & = = = d ~.XXoXoX",
"d ; m D.D.H.P.~.(.U.=.<.l.z.a.;.Y C C U I <.k.M.7.<.^ ! U U U U U P I ^ <.s.z.k.2.I U { U I *.a.z.l.2.R Z } 5 a l v v N K./..XoX",
"e * l S.D.D.D.!..X].i.<.N.B.<.E Z { { U ! 7.B.B.7.Q ! I U [ { ' [ U I ! W 5.N.N.7.E U { [ Z E 6.B.B.6.E Z } i g N K.D.D.D.!. XoX",
"e & a v N D.D.Q..X].i.1.N.N.6.E Z { { U I 7.B.B.5.I U U ` ` ` ` ` ' C P ! 5.N.B.6.E U { { U S 5.B.B.5.E Z } i x N H.D.D.D.!. XoX",
": + : f v M N D.~.Y.-.1.N.B.6.E U { { U W 5.B.B.5.I U [ ` ` ` ` ` _ ' U E 5.B.B.6.E U { { U E 6.B.B.5.E Z } 5 a M N v.b v c.!./.",
"& & e a : 0 f g f t O.5.N.N.6.E U C { U S 5.B.B.5.! U [ _ ` ` ` ` ` [ U E 6.B.B.<.E U { { U E 6.B.N.4.E C H 2 = f l g f : - 0 e ",
"+ + - - o + - - O @ D 1.N.N.6.E Z { { U ! 5.B.B.5.S U { ` ` ` ` ` ` { U E 6.B.B.6.E U { C U E 6.B.N.3.E U J 3 - : : : e e e e e ",
"-   + O o o o + O @ D 7.N.N.6.E U { { U S 5.B.N.5.! U ' ` ` ` ` ` ` ' U E 6.B.B.6.E U { { U E 6.N.B.3.E Z | c g - + o e K.^.^.^.",
"l = = 0 e a a : + @ D 7.B.B.6.E C C { U W 5.B.B.7.S P C ' ` ` ` ` ] { U E <.B.B.6.E U { { U E 6.N.B.7.E Z ..y.B a * = g ~.XXoXoX",
"D.b v B I.).).J.; @ A 7.B.B.3.E Z { { U S 7.B.B.5.W ! I C { ' { { [ C Z S 5.B.B.7.! U { { U E <.B.B.6.E Z ..y.Z.M v v N P.).XXoX",
"D.N D.P.|. X.X).n y O.<.k.z.a.;.Y C C Z I ,.k.M.s.<.^ ! P U U U U U U Y 2.s.z.l.;.I Z { Z Y ;.s.z.l.<.E Z | e.B B v.D.D.m N E.^.",
"g v D.G.P.Q.!.~.).T.=.~ ,.a.z.l.;.I Z { Z ) *.7.z.l.,.W S ! S W S S W ;.k.z.a.*.Y C C Z I 2.l.z.a.,.^ E Z | p x h v D.M e - 0 r ",
"a g b N D.D.M B Q.T.=.E R 3.B.B.6.E U { { C E 2.l.z.s.5.5.5.5.5.5.5.5.s.z.k.<.E U { { U S 7.B.B.3.R R ( C } 5 : : a l d * O ; r ",
"v f f v c.M e ; e 8 L P E 7.B.B.5.E Z { { C Z Y ;.7.N.B.B.B.B.B.B.B.B.z.s.<.^ ( U { C U E 6.B.B.6.E P C C H 2 + + & * & O ; J._.",
"g : a g v d & o   $ H C ( <.k.z.s.;.Y U C { { U S <.l.B.B.B.B.N.B.B.B.l.<.! ! I C C C Y *.a.z.k.2.! U { C J 3 - = : e ; O : J._.",
"= = a a : * O   X $ H U ( ^ <.a.z.l.;.I C { { U I ^ <.5.5.5.7.7.6.6.6.<.^ R P U C C I ;.l.z.a.<.^ ! U { [ | c M b B I.J.; O ; r ",
"X % - = + + ; r r 6 } U ( R R 3.B.B.5.R P C C C I E ! E E E E S E E E E E I U { C I E 6.B.B.6.W ! ( U { C ..y.D.D.I.|.(.n ; O   ",
"X o & O o ; J.).).R.X.C U I E 4.B.B.7.W ! S C C U U U U U U U U U U U U U C { U I E W 5.B.B.6.E P U { { { ..y.J.D.F.!.~./.J.;   ",
"& + * = = d (.XXoX}.X.[ [ C I 2.l.z.s.5.5.;.Y Z U U C { { { { { { { { C C Z U Y ;.6.6.a.z.l.;.I C ' { C Z  .e.B D.D.D.P.[.).n r ",
": & g M v N K.).oX].X.[ _ ] C ) ;.a.z.B.B.l.;.E E I U { { { { { { { { C I E E ;.l.B.B.z.a.*.Y C ' ] [ U / T j v Z.D.D.D.P.~.^./.",
": = b D.F.D.D.P.{.'.8.C ' ] [ Z I ;.l.B.B.z.s.7.7.2.Y U U U U U U Z U Y ,.7.6.s.z.B.B.l.;.I U [ ] ' { ) 2.:.8 a v D.D.c.m B E./.",
"O - m F.G.D.D.J.P.A.#./ { [ { { U ) 2.6.6.a.z.B.B.l.;.E E E E R E E E *.l.B.B.z.a.5.5.;.Y U { { [ C I 2.l.g.w = a v S.M e - 0 r ",
"+ * d v M v v M b j #.! / U { { [ { I R ! ,.l.B.B.z.a.6.6.6.6.7.6.3.5.a.z.B.B.l.2.W E I C { { { C P R 7.V.m.w O = a l h f e e e ",
"; o & - = = = = = 4 G W Q ) U [ ] ' { I ! ^ 2.5.3.a.z.B.B.B.N.N.B.B.B.z.7.5.6.2.^ ! P C ] ] [ U ( R W 4.V.m.w o O + * f J./.^.^.",
"l - - = - - e ; + < $.<.^ ! P { ' ] [ U I ! ! E R ,.l.B.B.N.N.N.N.B.B.l.<.W E ! ! Y U [ ] ] C P E ^ <.j.z.g.u & = = = g ^.XXoXoX",
"J.v n v b N E.J.; 9 f.k.<.! E I C [ { C U U U Y E ^ <.6.7.5.7.1.5.7.7.<.,.! P U U U { [ [ { I R ! 2.k.z.j.>.i a h M b N K.).XXoX",
"D.N B v.D.P.|.I.> 9 f.N.j.4.5.;.) U { { { { { U I E E E I I F E I ! S I E I C { { { { U U ) ;.<.6.a.z.k.^ T 8 a v v.D.D.D.D.~.^.",
"f x g v Z.P.Q.B ; < $.7.l.B.N.k.2.I U { { { { C U U U U U U U U U U U U U U C C C { { U I 2.l.B.B.z.j.2.) H 2 : s v c.D.D.N d e ",
": a a g N D.D.n = @ A 1.B.@X@XB.6.E U { { { { { { { { { { { { { { U { { { C { { { { { U ! 6.N.@X@XB.<.E V . $ + : g N D.F.v =   "
};
