/* XPM */
static char *_879139537534513eeb860df45750befPJLMW6M0mw048uo1[] = {
/* columns rows colors chars-per-pixel */
"64 64 8 1 ",
"  c #6EB9AE",
". c #82C5BC",
"X c #95CFC7",
"o c #5AAFA4",
"O c #529983",
"+ c #468974",
"@ c #61A59A",
"# c #41816A",
/* pixels */
" ..XXXXXXXXXXXXXXXXXXXXXXXXX... .XXXXXXXXXXXXXXXXXXXXX....... oO",
".............................. OX....................  ...   oO+",
"...    o     ...   .. oooooo@@O+X.   o      oooo   ooooooooo@@O+",
"X.    o     ... oo  .. o  o@@oO+X.    oo      ooo    oooooo@@@O+",
"X.   oo  ...  ooo   ..   o@oooO#X.      ooo  o@@ooo    ooo oo@O+",
"X.   o  .....  oooo  .  ooooo O#X.       oooo@@ooo@@o    oo  o++",
"X.  o   .  ...oooooo  ..  oo  O+X.     oo@@ooooo@@@ooo  ooo   ++",
"X.  o  .    .. ooo     ..    oO+X.  oooooo@@ooo@@@ooooo oooo  ++",
".. oo  .   ..      ooo     oooOOX. ooo    oo@@@ooooooo@o  oo o+#",
".  oo     ..      oooooo    ooOOX.   oo    oo@@@ooooo @@o   o@+#",
"   o         o  oooo@@oooo   oOOX. o    ... oo@ooooo  o@@ooo@o##",
"  oo oo      oo  o@@@@@oooooo O+X. o  ....   o@@oooo oooo@@oo@##",
"  oo  oo     ooo@@@ooo@@@@ooooO+X.o  ..  ooo  o@ooo oooooooo@@##",
"  o   oo    ooooo@@@ooo@ooooooOOX o .  oooooo @ooo  oooooo@@@@##",
". o    @oo  oo  oooo@@@@@oooo@O+Xoo   oooooooo@ooo ooooo@@@@oo+#",
". o o  o@o o      oooo@@@@oo@@O+.oo   ooooooo@ooo  ooo@@@@oooo+#",
"     o  @@o  ....  o@ooo@@@@ooO#.o   oooooo ooo o  oo@@ooooo o##",
"     o  o@o ....... o@@ooo@@@@+#.o   ooooo oooo   oo@ooooo  oo+#",
". o oo  oo ....   .. o@@oooo@@+# o   oooo  oooo  ooooooo   oo ++",
". oooo ooo ...      .ooooooooo##oo    ooo ooo o ooo@ooooo   ..+#",
"X  oo  o@oo... oo     oo@@ooo@##Ooo   oo  ooo   oo@@ooo .  .. +#",
"X.    oo@oo ..  oo o  ooo@@@@@##O@o    o  oooo  oo@ooo ...    ++",
"X.  ooo@@oo  ..    ooo ooo@@@+###Ooo      o ooo  ooo      ....++",
"X. oo@o@oooo  o    o@o oooo@+#..##@oo       ooo  o@oo    o  ..++",
"X. ooo@o o@o   o    o@ooo@@+#.. o##@oo  oo   ooo  @@oooo  ooo ++",
"X.o oooo  @o   ooo   ooo@@++.. ooo##@@o  oo   ooo o@@oo@@oo   ++",
"..ooooo   ooo  ooooooo@@@++..   oo@##@ooooo oooooooooo@@@@@o  ++",
" .@oo@o   o@o   ooooo@@@++.. oo ooo@#+@ooo ooooo@@ooooooo@@@oo++",
"  @o@oo  o ooo  oo o@o@O+.. oooo oo@@#+@ooooooooo@@oooooooo@@@++",
". oo@o  oo  oooo  ooo@O+.. o ooooooo@@#+@ooooooooooo@@oooo@@@o++",
". o@@o  ooo oooo@@o@@O+X.      oooooo@@#+@@oooooooooo@@@@@ooo ++",
"  o@oo  ooooooo@@o@@OOX.         ooo@o@@++@@oo ooooo@@@ooooo  ++",
"  o@oo   o oo@ooo@@OOX.  ... ooo  ooo@@@@++@@oo  oo@@ooooo    ++",
"  @@ooo  o  o@@o@@OOX.    .... ooo ooo@@@@++@@@o  oooooo     o++",
" .@@ooo  oo oo@@@OOX.   oo  .... ooo@@@oo@@+O@oooo  oo      oo++",
" .@@o@o  ooo@o@@OOX.  ooo      .. oooo@@ooo@+O@oo       .. ooo++",
"..@@@@oo  oo@@@OOX. ooo     oo   .   ooo@ooo@+O@ooo   .. oooo@++",
"..@@@ooo   oo@OOXX.ooooo  oooooo      ooooooo@OO o   ..   oo@@++",
"X.@@@oooo ooooOOX. oooooooooooooo   oo  ooooo@OO   ooo  ooo@@o+#",
"X.@@oo@oo ooooOOX.  oo  oooooo oo  oooo  ooo@@OO. oo  oooo@@@o+#",
"X.@@o@@ooo oo@OOX.o   oooooo  oooo oooooooo@o@OO.      ooo@@@o+#",
"X.@oo@@@oo oo@OOX.oo ooooo   ooooo  ooooooo@ooO+X    oooo@@@@@+#",
"X.@oo@@@ooo o@OOX.oooo     oooo@@oo oo oooo@@oOOX  oooooo@oo@@+#",
"X.@ooo@@@oooo@OOX.ooo   oo  oo@@oooo  oooo@@@@O+X.oo@ooo@@ooo@+#",
"..oo@o@o@@oo@@OOX. oooooo  oooooo@@@oooooo@@@OO+X.o@@ooo@@@o@@+#",
"..oo@@@oo@@@o@OOX.o  ooo  ooooo@@@@oooooooo@@OO+X.o@@@o@@@o@@@+#",
". oo@@ooo@@oo@OO..oo    oooooo@@ooo@@@ooooo@@O++X.@@@@@@@oo@@@++",
". ooo@oooo@oooO+..oooo   oooooooooooo@@@oo@@@O++X.@@@@@@@o@@@@++",
". o@oo@oooo@ooO+..oooo ooooo@@@ooooo@@@oo@@@@O++X.@@o@@@oo@@o@++",
"  o@@o@ooo@@o@OO..ooo ooooo@@@oooooooo@@@@@@@@+#X.o@oo@@oo@oo@++",
". @@ooooo@@@@@O+..ooooooo@@@@@@@@oooo@@@@oo@@@+#X.o@oo@ooooo@@+#",
". @@ooooo@o@@@O+..@@oooooooo@@@@ooo@@@@@@@oo@@+#X.oooo@o@ooo@@+#",
"  o@@o@oooo@@@O+X.oo@@@ooooooo@@@@@@@@@@oooo@@+#X.ooo@oo@oo@@o++",
"  o@@@ooooo@@@++X.ooo@@@@oo@@@@@@@@@@@oooooo@@+#X oo@@ooo@o@oo++",
". oo@@oooo@@@@++X ooooo@@@@@@@@@@@@oooooooo@o@++X oo@oooo@@@oo+#",
". oo@@@oo@@@@@++X @@ooooo@@@@@@@@oooooooooo@oo++X o@@ooo@@@@@@+#",
"  o@@@@@@oo@@@+#. o@@ooo@@@@@@@oooo@@@ooooooo@++. o@@@oo@@@@O@##",
"  @@@@@@ooooo@+#. oooooooo@@@@@@oooo@@@@oooooO+#. o@@@o@@@@@OO##",
"  @OO@@ooooo@@++. o@ooooo@@@@@oo@@@@@@@@@@oo@O+#  oo@@@@@@@@@O##",
"  OO@@@@oo@@@O+#  oo@@ooooo@@oo@@@@@@@@@@oo@@@+# ooo@@@@OO@@OO+#",
" o@@OO@@@@@O@O+# oooo@@@@ooo@@@@@@@@@@@@@@@@@O## o@@@@@@@OO@@O+#",
"o@@@@OOO@@@@OO+#oooooo@@@@oo@@@@OOOOOO@@@@@@OO##o@@@@@@@@@@OOO++",
"OOO+++++++++++##+++++++++++++++++++++++++++++++#######+++++##+++",
"++++++++++#######+++++++########++##++++++++++++##########++++++"
};
