/* XPM */
static char *_70962853e604f75aed29521641dea72n5I1dGxN5TAwNocq[] = {
/* columns rows colors chars-per-pixel */
"64 64 8 1 ",
"  c #805E36",
". c #8B673C",
"X c #997140",
"o c #664D28",
"O c #6B5332",
"+ c #463112",
"@ c #38260C",
"# c #2F1F09",
/* pixels */
"    ..XX..XXXXXXXXXXXXXX..XXXXXXXXXXXXXX..X.XXXXXXXXXXXX....    ",
"  ...XXXXXXXXXXXXXXXXXXXXXXXXXXXXXXXXXXXXXXXXXXXXXXXXXXXXXX...  ",
" .oooooOOOooooooooooOOoo OOOOOOOOOooooooOOOo OOOooooOOoooooooo. ",
" .oooOOOOOOOOOOOOOOOOOOo OOOOOOOOOOOOOOOOOOo OOOOOOOOOOOOOOooo. ",
"..ooOOOOOOOOOOOOOOOOOOOooooooooooooooooooOoo OOOOOOOOOOOOOOOooX.",
".XoOOOOOOOOOOOOOOOOOooo++++++++++++++++++ooo OOOOOOOOOOOOOOOOoX.",
".XoOOOOOOOOOOOOOOOoo++++@@############@@++++ooOOOOOOOOOOOOOOOoXX",
"XXoOOOOOOOOOOOOOoo+++@@##################@@+++ooOOOOOOOOOOOOOOX.",
"XXOOOOOOOOOOOOoo+++@########################@+++ooOOOOOOOOOOOOX.",
"XXOOOOOOOOOOOo+++@############################@+++oOOOOOOOOOOOXX",
"XXoOOOOOOOOOo++@################################@++oOOOOOOOOOoXX",
"XXoOOOOOOOOo++@##################################@++oOOOOOOOOoXX",
"XXoOOOOOOOo++@####################################@++oOOOOOOOOXX",
"XXoOOOOOOo++@######################################@++oOOOOOOoXX",
"XXoOOOOOo++@########################################@++oOOOOOOXX",
"XXoOOOOOo+@##########################################@+oOOOOOOXX",
"XXOOOOOo++############################################++oOOOOoXX",
"XXOOOOOo+@############################################@+oOOOOoXX",
"XXoOOOo++##############################################++oOOOoXX",
"XXOOOOo+@##############################################@+oOOOoXX",
".XoOOo++################################################++oOOOXX",
"XXoOOo+@################################################@+oOOOXX",
".XoOOo+@################################################@+oOOoXX",
".XoOo++##################################################++oooXX",
"XXOOo+@##################################################@+o  X.",
"XXOOo+@##################################################@+oOOX.",
"XXoOo+####################################################+oOOXX",
"XXooo+####################################################+oOOXX",
"XX  o+####################################################+oOoXX",
"XXOOo+####################################################+oOoXX",
"XXOOo+####################################################+oOoXX",
"XXOOo+####################################################+oOoXX",
"XXOOo+####################################################+oOoXX",
"XXoOo+####################################################+oOoXX",
"XXoOo+####################################################+oOOXX",
"XXoOo+####################################################+oOOXX",
".XoOo+####################################################+oOOXX",
"XXoOo+####################################################+oOOXX",
".XoOo+@##################################################@+oOoX.",
".XoOo+@##################################################@+oooXX",
"XXOOo++##################################################++o  X.",
"XXOOOo+@################################################@+oOOOX.",
"XXoOOo+@################################################@+oOOOXX",
"XXoooo++################################################++oOOOXX",
"XX    o+@##############################################@+oOOOOXX",
"XXOOOOo++##############################################++oOOOOXX",
"XXOOOOOo+@############################################@+oOOOOoXX",
"XXOOOOOo++############################################++oOOOOoXX",
"XXoOOOOOo+@##########################################@+oOOOOOOXX",
"XXoOOOOOo++@########################################@++oOOOOOoXX",
"XXoOOOOOOo++@######################################@++oOOOOOOoXX",
"XXoOOOOOOOo++@####################################@++oOOOOOOOoXX",
"XXOOOOOOOOOo++@##################################@++oOOOOOOOOoXX",
"XXOOOOOOOOOOo++@################################@++oOOOOOOOOOoXX",
".XOOOOOOOOOOOo+++@############################@+++oOOOOOOOOOOOXX",
".XOOOOOOOOOOOOoo+++@########################@+++ooOOOOOOOOOOOOXX",
"XXoOOOOOOOOOOOOOoo+++@@##################@@+++ooOOOOOOOOOOOOOOX.",
"XXoOOOOOOOOOOOOOOOoo++++@@############@@++++ooOOOOOOOOOOOOOOOOX.",
".XoOOOOOOOOOOOOOOOOOooo++++++++++++++++++oooOOOOOOOOOOOOOOOOOOX.",
".XooOOOOOOOOOOOOOOOOOOOooooooooooooooooooOOOOOOOOOOOOOOOOOOOOo..",
" XooooOOOOOOOOOOOOOOOOOo OOOOOOOOOO    OOOOOOOOOOOOOOOOOOOOOoo. ",
" .ooooooOOOOoooooooOOOoo OOOooOOOoooOo OooooooooOOOOOOooOooooo. ",
"  ...XXXXXXXXXXXXXXXXXXXXXXXXXXXXXXXXXXXXXXXXXXXXXXXXXXXXXXXX.  ",
"    ....X..XXXXXXXXXXX..XXXXXXXXXXXX.X...XXXXXXXXXXXXX..XX..    "
};
