/* XPM */
static char *edc3507b01c04d61b36798bdd992b780xq3Smw9ZcTuw63lv[] = {
/* columns rows colors chars-per-pixel */
"64 64 215 2 ",
"   c #131313",
".  c #151515",
"X  c gray9",
"o  c #181818",
"O  c #191919",
"+  c gray10",
"@  c #1B1B1B",
"#  c #1C1C1A",
"$  c gray11",
"%  c #1D1D1D",
"&  c #1E1E1C",
"*  c #1F1F1D",
"=  c #1D1D1F",
"-  c #1E1E1E",
";  c gray12",
":  c #20201E",
">  c #21211F",
",  c #1E1E20",
"<  c #1F1F21",
"1  c #202020",
"2  c gray13",
"3  c #222220",
"4  c #232321",
"5  c #202022",
"6  c #212123",
"7  c #222222",
"8  c #232323",
"9  c #242422",
"0  c #252523",
"q  c #222224",
"w  c #232325",
"e  c gray14",
"r  c #252525",
"t  c #262624",
"y  c #272725",
"u  c #242426",
"i  c #252527",
"p  c gray15",
"a  c #272727",
"s  c #292927",
"d  c #262628",
"f  c #272729",
"g  c #282828",
"h  c gray16",
"j  c #2A2A28",
"k  c #28282A",
"l  c #29292B",
"z  c #2A2A2A",
"x  c gray17",
"c  c #2D2D2B",
"v  c #2A2A2C",
"b  c #2B2B2D",
"n  c #2C2C2C",
"m  c #2D2D2D",
"M  c #2F2F2D",
"N  c #2C2C2E",
"B  c #2D2D2F",
"V  c gray18",
"C  c #2F2F2F",
"Z  c #2E2E30",
"A  c #2E2F31",
"S  c #2F2F31",
"D  c gray19",
"F  c #313131",
"G  c #303032",
"H  c #313133",
"J  c #323232",
"K  c gray20",
"L  c #323234",
"P  c #333335",
"I  c #333436",
"U  c #343434",
"Y  c #353535",
"T  c #343436",
"R  c #353537",
"E  c gray21",
"W  c #373737",
"Q  c #363638",
"!  c #363739",
"~  c #373739",
"^  c #38373C",
"/  c #37383A",
"(  c gray22",
")  c #393939",
"_  c #38383A",
"`  c #38393B",
"'  c #39393B",
"]  c #3A3A3A",
"[  c gray23",
"{  c #3D3D3B",
"}  c #3A3A3C",
"|  c #3A3B3D",
" . c #3B3B3D",
".. c #3B3A3F",
"X. c #3B3C3E",
"o. c #3C3C3C",
"O. c gray24",
"+. c #3C3C3E",
"@. c #3D3D3F",
"#. c #3D3F3E",
"$. c #3E3E3E",
"%. c #3F3F3F",
"&. c #3C3B40",
"*. c #3D3E40",
"=. c #3E3E40",
"-. c #3E3F41",
";. c #3F3F41",
":. c #3E3D42",
">. c #3F4042",
",. c gray25",
"<. c #414141",
"1. c #404042",
"2. c #414143",
"3. c gray26",
"4. c #434343",
"5. c #424443",
"6. c #424244",
"7. c #424345",
"8. c #434345",
"9. c #434544",
"0. c #434446",
"q. c #444444",
"w. c gray27",
"e. c #444645",
"r. c #444446",
"t. c #444547",
"y. c #454547",
"u. c #464646",
"i. c gray28",
"p. c #454648",
"a. c #464648",
"s. c #464749",
"d. c #474749",
"f. c #47484A",
"g. c #484848",
"h. c #494949",
"j. c #48484A",
"k. c #48494B",
"l. c #49494B",
"z. c gray29",
"x. c #4B4B4B",
"c. c #494A4C",
"v. c #4A4A4C",
"b. c #4A4B4D",
"n. c #4B4B4D",
"m. c #4B4C4E",
"M. c #4C4C4C",
"N. c gray30",
"B. c #4C4C4E",
"V. c #4C4D4F",
"C. c #4D4D4F",
"Z. c #4E4E4E",
"A. c gray31",
"S. c #4D4E50",
"D. c #4E4E50",
"F. c #4F4F51",
"G. c #4F5052",
"H. c #505050",
"J. c #515151",
"K. c #505052",
"L. c #515153",
"P. c gray32",
"I. c #535353",
"U. c #525254",
"Y. c #535355",
"T. c #535554",
"R. c gray33",
"E. c #555555",
"W. c #545456",
"Q. c #555557",
"!. c #565656",
"~. c gray34",
"^. c #565658",
"/. c #575759",
"(. c #585858",
"). c gray35",
"_. c #585A59",
"`. c #58585A",
"'. c #59595B",
"]. c #595B5A",
"[. c #5A5A5A",
"{. c #5B5B5B",
"}. c #595A5C",
"|. c #5A5A5C",
" X c #5A5B5D",
".X c #5B5B5D",
"XX c #5B5D5C",
"oX c #5B5C5E",
"OX c gray36",
"+X c #5D5D5D",
"@X c #5C5C5E",
"#X c #5C5D5F",
"$X c #5D5D5F",
"%X c gray37",
"&X c #5F5F5F",
"*X c #5E5E60",
"=X c #5F5F61",
"-X c #5F6062",
";X c #606060",
":X c gray38",
">X c #606062",
",X c #606163",
"<X c #616163",
"1X c #626262",
"2X c gray39",
"3X c #626264",
"4X c #636365",
"5X c #656565",
"6X c #646466",
"7X c #646567",
"8X c #656567",
"9X c #666668",
"0X c #666769",
"qX c #676769",
"wX c #68686A",
/* pixels */
"<.u.P.5X&Xg.u.O.O.6.a.3X5X5Xv.3XwX*Xa.;.a.E.5X5X<.a - a O.u.<X[.&X<X*X<X9X3Xu.<.u.g a O.u.<Xu.u.5X9X<X&Xv.<X<Xa.9X&X6.J , a 9XwX",
"u.O.J O.N.g.<.J ~ .Xv.N.v.g.g.a.v.N.<.O.O.6.N.D.O.a - 2 u.g.g.g.g.N.v.u.a.D.a.v.O.- g &Xu.O.O.N.G.9. .m.v.N.;.) v.D.6.w - g [.[.",
"g.<.u.u.U ) u.) ) &XN.6.6.O.;.O.;.u.a.a.6.;.u.a.u.J 2 2 E.g.O.u.;.u.u.;.O.a.O.~ g.J m 5X<.U <.O.>.;.~ ;.a.9.S X.<.u.6.m f f E.v.",
"U O.<.) J g g g J N.O.O.u.O.O.<.;.;.;.6.6.<.<.6.u.) - a [.O.O.O.U ) ) U J <.O.U <.U g E.<.O.u.U ) <.O.J U O.m O.m J U J a 2 [.O.",
") J ) <.U U U 2 J [.U ) O.U <.U O.~ U ~ )  .)  .) J - g N.) ) U g J U O.U ) O.) U a a E.<.g J O.) U J m J ) g m g J U g - a E.U ",
"m J U U U U m J m g.U ) U J U J ) J J J J J J U J - 2 a U U J U ) U m U g m U U U o a u.J a m J U m J J J U a - m U U 2 2 a U J ",
"m g m g g m g g o 2 g g m m g J m g m g g g g m g . 2 - - g a g g g 2 m g g a 2 g . - 2 a m J a g m J m g g a o 2 2 a o 2 2 - m ",
"2 a g 2 g m 2 2 - 2 a 2 a 2 a 2 a 2 a 2 2 a 2 a a - 2 a - a a 2 a g 2 a 2 2 a 2 2 2 a 2 m 2 2 g a a 2 a 2 2 g a 2 g a 2 2 a a a ",
"a.P.6.<.[.&Xu.O.U O.<.O.<.<.O.O.O.<.;.<.<.O.<.<.O.- 2 2 m <.<.<.O.<.<.<.) g - a S <.6.<X[.<.6.6.O.u.&X<.2 m [.&X.X[.g.O.<.<.a..X",
"v.g.u.<.) <.u.O.<.N.E.g.g.N.<.N.u.g.u.g.g.g.g.g.J a 2 2 O.u.g.g.O.<.u.g.u.U 2 a a.u.<.v.P.D.N.u.O.u.g.<.2 g E.P.a.N.g.a.v.a.u.N.",
" . .a.u.m m U m O.<Xa.u.<.) 6.u.<.6.<.6.u.u.a.6.U J 2 a u.U O.u.u.u.u.u.g.) a a P.) O.6.a.6.<.a.<.<.O.u.J g [.u.;.u.a.a.g.u.6.6.",
"<.O.) O.O.<.U m L [.6.<.6.6.;.<.O.;.O.;.<.;.;. .) J - a u.m J O.<.<.O.) O.U - 2 g.O.u.O.) ) O.O.O.) ) <.U a [.O.O.<.<.;. .O.;.O.",
"~  .~ ) O.O.g a ~ ^. .)  . .)  . .O. .O.O. . .U U g 2 a <.U U ) ) ) O.U ) J - 2 u.O.O.) U U O.) ) ) ) U m a P.O.L ~ O. .U ~ ) U ",
") ) ~ U m m m U L D.L ~ U S  .~ ~ ) U ~ ~ U U S m 2 a 2 U U U g U U U U U g 2 2 ) J m U U g U J U U U m o a ) U J U ) U J J U J ",
"a 2 2 m m J g g o - m m m J g m m J m m m m m m 2 - 2 - g m m g m m a g a - 2 2 a J m m g g J g m m g a . 2 a g m J m m g m m g ",
"f v a g a 2 - g a 2 a a a a g a a a a a a a g a g 2 2 2 a 2 a g a a 2 m a - g a a g 2 a 2 a 2 a g a g a a a a a a a 2 2 a a a a ",
"<X<X*X<.m a <.<.g.P.O.[.&Xu.[.u.u.&Xu.O.<.<.<X<X&Xu.) m - O.u.[.5X<.6.&X*Xa..XE.&Xu.g - a O.<.u.XX-X.X&X5X5X.X9.<.m 2 ) u.g.&XE.",
"N.P.P.u.a - <.u.g.u.) u.J <.J <.6.N.;.;.a.v.U.v.N.J J - m [.g.U u.v.v.N.U.g.a.v.N.u.g - g &XN.) >.a.f.D.G.N.G.m.O.2 a O.g.g.N.u.",
"6.6.<.u.U m N.) u.<.u.<.) ) m U  .O.<.<.u.v.u.6.O.m O.a a N.J g L <.;. .a.6.U <.u.u.m 2 a <XN.O.I / ) ;.6.6.a.9.<.) a [.<.) u.u.",
"O.;.;.U m a [.O.O.u.u.) u.m O.)  . .u.6.;.<.<.6.<.U <.U m E.J ) O.) ) O.<.O.O.<.<.u.) a a E.g.O.U  . . .<.u.<.U <.m a P.O.U O.<.",
" . . .J a a E.<.O.O.) J U ) ) O.;.O.O.O. . .O. .J J ) g a P.) O.) ) ) U J m O.U U ) J - a P.<.m J ~ O. . .O.) J ) g a P.<.) ) O.",
"~ ~ L U a a O.U U U U J U ) U U J U J U U U U J ) m m o g u.O.J U ) U J ) m ) J U U g a a u.) J J J U U U J m J J J a N.U J U U ",
"v S m m o o 2 J m m m g m g J g 2 g g g m g g m m g g o - - a m g g a a J g g a m a o 2 - a a g J g m g m m g m g . 2 2 g m g g ",
"w w f 2 2 g - 2 a 2 g m a a g a 0 s a > a a > a 2 a - 2 a 2 a 2 a 2 a a - 2 a a a a a 2 g 2 g 2 2 2 g 2 2 g a g 2 2 2 2 2 a a a ",
"<.<.P.u.O.<.2 a ;.<.*X3X5X&X5X*X&X<.O.<.<.) u.O.2 2 U <.<.<.<.O.O.O.<.O.a - <.<.<.g.[.O.u.E.<XO.O.u.O.<.O.<.&X&X<.a 2 J <.[.<.<.",
"P.u.g.N.g.<.2 g .Xa.6.N.a.D.v.g.N.<.O.u.O.<.u.O.2 a [.g.N.u.g.g.g.<.g.u.a a [.g.u.O.u.<.g.<.N.u.g.u.g.u.u.N.g.g.u.- g E.N.<.u.N.",
"u.<.u.<.<.g.U g E. .S O.U <.O.u.<.u.<.u.) <.g.u.U a [.N.u.<.) u.g.O.u.<.a a &Xg.u.;.<.<.u.O.;.6.a.6.L ~ <.<.u.g.u.m g &XN.) <.u.",
"O.O.O.O.) O.U g ^.~ m U ;.6.;. .O.u.<.<.) O.<.<.) 2 N.O.U O.U <.O.<.<.) m w E.<.;.6.<.O.;.O.O.<.O.6.S ~ 6.) ) ;.O.) 2 P.O.O.) g ",
") ) ) O.U ) J a D.) U J O.) ) U ) O.O.) ) U U J g a P.U ) ) O.) ) O.O.U J a P.O. .O. .O.O. .~ ;.O.)  .~ ;. .g ~ ) g a [.) O.) a ",
"J U U U J U m 2 U J U U J J J U U J J J U m m g o a O.U U m ) J U J J U g a P.U L ~ U U ~ U L ) ) L S m U U S ~ U - 2 <.) J m a ",
"J g g J m g o 2 J m v J J U g g m m g g a a m g o - o m g g m m m g g m g a <.J g m m g g m m m m m g m m m J g a - - - g a - 2 ",
"2 g g 2 2 m 2 g g 2 a w 2 2 2 g 2 g a g 2 a a 2 2 2 - 2 g 2 a a a m a a g 2 g a g a a 2 a 2 a a a 2 m 2 - a w a a 2 a a a a a a ",
"<.O.&X[.O.P.<X&X&X<.c 2 2 { <.<X*XE.<X<X6.;.6.;.2 2 a O.<.u.<X<X[.*X3X&X*X&X*X*X[..X<.m a ;.<.&X*Xa.^.u.U 2 O.O.<.O.<.E.P.<.N.<X",
"u.g.N.<.<.N.g.g.v.<.- # s O.N.g.u.u.u.g.g.N.u.u.2 - a &XP.g.g.v.v.v.v.a.U.P.v.;.N.N.u.2 w [.U.N.a.v.v.u.O.a <.g.g.6.<.g.<.J ~ 6.",
") <.<.J O.g.<.g.a.6.) 2 m E.N.u.J S L ) ~ u.u.u.U 2 a [.N.u.g.g.<.6.O.L O.6.a.<.) O.;.L J .XE.;.u.a.u.g.) a [.g.O.O.O.u.6.O.<.a.",
"O.) O.O.) O.O.u.;.6.) a g E.a. .m m ) O.J ) O.O.U 2 a E.u.;.6.;.u.;.<.6.6.U ~ 6.) m U U a E.O.u.;.u.<.) ) a E.)  .O.;.6.u.<.;.O.",
"<.U ) O.) ) O.) &.) f 2 a U.;.^ g ) ) ) O.O.g J J 2 2 E.) ) U ;.U  .;. .;.~ ~ L O.) a g g P.<.O.) ) <.U m g N.m ~ )  . . . .U S ",
"J U U U U ) ) U  .L - 2 a u.) ) m J J J J J a a o - a u.) ) L J a J J 2 g J ) J J m m . a g.U J ~ S  .U . a <.g J J U J J ) U U ",
"g J m g g g g m g J   > > 2 m f J g m J 2 a g a o - a - g g J m g a g g g - 2 m g a - . - 2 m m g J g 2 o 2 - g m m m g g m g g ",
"a 2 2 a a 2 g g g a a - > > 2 a 2 2 a a a a - a 2 a 2 - g f 2 a a a g a a - 2 2 a a 2 g 2 2 2 a w a a a g a , a > - 0 2 0 s a g ",
"O.<.O.O.O.<.<.[.N.P.) a - 2 U O.u.O.<.*X^.O.g - w U 6.;.6..X;.;.6.<X*Xu.U a a 2 U u.[.u.O.<.O.<.;.<.a.<X5XN.u.O.- a J <.u.<.[.<X",
"N.g.<.<.<.u.) <.) O.U - - 2 O.J <.g.u.g.u.v.;.w f <.a.D.v.P.a.v.6.D.v.<.O.m 2 2 <.g.N.g.O.g.<.g.v.a.;.v.D.g.N.v.2 a E.N.g.g.O.g.",
"<.u.<.<.u.<.) ) O.O.O.a 2 a P.) ;.g.6.;.O.g.O.2 2 a.;.a.6.6.u.~ u.a.u.<.<.U 2 a N.O.u.u.u.u.<.u.6.u.;.6.a.a.g.;.U g [.g.u.O.) g.",
") <.u.<.<.) U U <.O.O.U 2 a P.<.O.<.O.O.O.<.J 2 a P.u.<.J J u.<.;.<.6.<.) U 2 a N.U O.O.<.) O.) <.u.;.O.;.;.O.J U a E.u.<.U ) O.",
"O.O.O.) O.) J g U J ) J 2 a P.O.U O.) ) U O.J a a O.U ) ) J U J O.) ) O.) U 2 a N.O.J O.U ) U ) O.;. .) ) ~ L v m g [.) U ) ) U ",
"U U J J U J J g J g J - - a g.) J U U J m J a 2 a U U g g g J O.~ L L ) U g - a O.U J U J U U U L U ~ ) ~ J v f o 2 u.) J m J g ",
"m m m m m a g a m a g   - a U m m m m m g a o - 2 m g - a m g g v v v m g o - a m g m g J g m m S m S m v g g v o - - g - o m m ",
"2 2 a g g 2 g a a a a 2 a m a a a g g a a m 2 g a a a 2 a 2 - a a f a a g 2 g 2 2 a 2 a 2 a a g g g v f w w w a 2 2 a g 2 m a a ",
";.;.*X5X*X[.g..Xu.g 2 a O.<.&X&X*X<X*X3X9X.X^.*X5X<X6.S , a O.<.O.9.XXu.[.[.T.5.O.m a <.<.u.<X<X5X<X*X*Xu.g 2 O.6.u.*X5X<X6.v.u.",
"N.g.v.g.v.D.6.O.O.g - 2 <.) g.u.g.N.v.g.g.;.;.v.a.g.u.2 w f  .u.6.>.D.6.D.v.u.u.u.2 2 E.P.u.u.P.N.g.P.N.u.a 2 <.v.u.N.g.g.O.N.g.",
"6.g.6.;.;.<.<.L <.J 2 g P.<.u.u.u.u.<.<.u.6.;.u.u.<.g.U 2 a .Xu.u.>.u.u.a.u.;.g.O.g g [.u.u.<.O.g.u.a.;.;.g g E.a.u.a.u.u.6.a.~ ",
"O.O.J ) O.O.O.J O.U 2 a [.<.<.<.<.<.O.O.u.u.<.;.) u.<.U 2 2 [.O.;.<.6.<.;.<.) O.) J a [.O.J O.) ;.6.<.<.<.J a E.O.O.O.O.O.<.O.g ",
"U U ) U m m L O.U J 2 a N.O.) )  .O. .)  . .) ) m J O.m 2 g P.O.) O.;. .O. .U L m J g E.) U O.U U  .) ) ) J a g.J U U ) ) ) ) J ",
"U m J g g U J J U g - 2 ) U U U U U U L J U U U m a J g 2 a E.) J J J J ) J J J m . - u.) J m ) L L J m J a a U m J J U U J J J ",
"a g J g a m v S g - - 2 - a g m g a a a g g m g 2 g - . a - ) m a a 2 a g a g S 2 . - 2 a m g a a g g g g - - - g m g a a 2 g m ",
"g a a 2 2 a 2 a a - g J - g a a 2 a a a 2 2 2 2 2 2 a a a m g a 0 a 2 2 2 > 0 g J a a 2 g 2 a w g g 2 g 2 - a > 2 a a a a 2 a a ",
".XE.a.a.O.a g g.<.O.u.E.u.<.u.u.O.<.[.<.a - 2 J <.O.u.E.P.<X<X&X9X<X<.a , 2 J <.[.g.E.g.&XO.u.<.3XE.a.&Xu.w w ) <.u.[.g.<.<.O.<.",
"a.N.v.6.~ 2 a u.g.O.<.N.u.N.N.u.N.O.g.u.) 2 2 <.u.<.u.g.O.) <.N.a.E.D.O.f w ;.6.u.u.N.g.N.g.u.;.g.v.u.P.g.) g <.a.<.N.a.a.g.u.6.",
"O.O.u.v.6.g g [.O.U O.<.u.u.) J ) U u.u.) a g [.g.O.O.<.u.) U m J <.u. .w w P.;.L ;.<.<. .u.<.O.u.g.u.6.u. .g .Xv.;.<.<.a.g.6.6.",
"~ O.6.O.O.U m N.) m O.<.g.) g g m ) u.O.J - a E.u.O.) U <.O.<.) g U ) J a g E.J  .O.;.O.O.;.<.<.O.<.O.O.O.J 2 E.u.)  .O.;.<.<.<.",
"~ ~  .U U g g g.O.J ) ) O.U J ) ) ) ) U J 2 2 N.O.U ) m U U O.O.U <.U a - a N.) O. .O.) ;.) O.O.O.O.J m m m m N.) ~ )  .) O. . .",
"~ S J ) J o 2 N.U m J g m J U ) U U U J g 2 g P.U m J J ) m J m J ) J a a a U a J L L L L U U J U J J ) U g g U U U U ) U ) J g ",
"m m J m 2 o - m g m g a a m m g g J J m - - g O.m a m m m a m m m m a - - 2 a - a g g g g S m f m g g m a o - g m S m J g m g 2 ",
"a 2 2 a a 2 2 > 2 2 2 g - 2 2 2 a 2 2 a - 2 a g g - a 2 2 a m 2 a 2 a 2 - a 2 2 2 2 2 2 2 2 2 2 2 2 a 2 2 2 - 2 2 0 > a - 2 2 > "
};
