/* XPM */
static char *_cd007830d294e16fb14d116dfe7ddc4azQBWUB1VDfqWmgM[] = {
/* columns rows colors chars-per-pixel */
"64 64 61 1 ",
"  c #4B4B48",
". c #464744",
"X c #4D4E4B",
"o c #5D5E5B",
"O c #42433E",
"+ c #616966",
"@ c #717978",
"# c #666F6B",
"$ c #78807C",
"% c #6A6F71",
"& c #636C69",
"* c #6C7673",
"= c #545552",
"- c #616563",
"; c #68726F",
": c #565852",
"> c #60635F",
", c #747C79",
"< c #5A5C58",
"1 c #6D7278",
"2 c #4F514B",
"3 c #868B86",
"4 c #676C70",
"5 c #8A8E87",
"6 c #696B69",
"7 c #7D8382",
"8 c #666867",
"9 c #929589",
"0 c #51524F",
"q c #595957",
"w c #6E726F",
"e c #5F605F",
"r c #71767C",
"t c #818783",
"y c #747671",
"u c #3D3E39",
"i c #8F9186",
"p c #8F928E",
"a c #98998F",
"s c #7B7D76",
"d c #81827A",
"f c #464B3E",
"g c #767B80",
"h c #555F4D",
"j c #5E6E57",
"k c #59654F",
"l c #636E61",
"z c #9E9F92",
"x c #6F7B6F",
"c c #64755F",
"v c #697966",
"b c #85897E",
"n c #61646C",
"m c #49533E",
"M c #4F5946",
"N c #7C8679",
"B c #60675A",
"V c #383832",
"C c #75846C",
"Z c #87927B",
"A c #7B8085",
/* pixels */
".XX ...OO..fXf   f2X..OuVVuOuuVV.0000XX Off fOuu.X uuO..... ....",
"0o-666ww60.Mhhhkkk:. 0:o6ydss>V d5iiii5NMhxsdsyyd3s.X6wy@ssssy>.",
"pazzzzaz9oBZZZZZCNxX69aappp33y.ep53t@7N,mli9aa9iaa3069iii9zzza70",
"app537$C,0+xvvvccvv:wpp3AAg1%62#33Ar1g*&.o$7t$x;;,; lCC$77777,&2",
"5@rrr11&+0Bcccvccv#X8,$Ag1nn882-,*441*#+X>##;;;#&#+ lcc@,@*##;eX",
"t1rrrrr%62>cvxCCxx6 e*@r14nn48 o#4%%%#l+0e+-#xgr&&+ -##111r;;;<2",
"7#1rrr1%6Xh#wxxx*w80<;%%44446e.q#%%41148X:++&;r1&&-.<#&nnnn4%4<X",
"+>-88888>.:&8->>>e<0Xooo<eooqX. q<qqq<q=..=<ooeooo=O0>e<qqqooq2 ",
":=0  .   OXq:=00:q=0.O. 0==0=2X ...OuuuOO..OOOOOOOOOO.  XXX00X00",
"i53$>OX8yystdddyqe6686ydbw=osb55355d<u:vdNCssye.ewyywyyys>X,35i9",
"ppp3;O-azzzzzzz3os99pazzps<tp7$A$$$$+OwCNt5p9p@=ti5359p53#Xtpppp",
"gg@*-O>t37$t337#0w@1g733$8q7*#;r11**>.%*,g,$$@-:xCt$g$$*;>X777g@",
"1%%%-.>*@@@@x*#<fB11111r*<2,*41rr*@*<.&;AAAg;&e2x$7grrg,#<X@;111",
"14%%- -,,@@r14+hf++1r1%*%:2**%1rr@r*<.-&v,gg;&oX;*;4nnn4&qX*##11",
"4444- 8$yww1%BkhXllrrw%%6:Mj;#%1r116:.ejjc%%##hml;#+nnnn6=X;##44",
"oooq0.q+--->kkhmfB;w8eoo<:MkBo<<<<<=2X0Mh:qo<ohmh<q<<qq<<  eeooo",
"uuuOO  OOO :kkhmf2qo<==MM<kkk<<hMmX X  .OO.XX2m20 .     ........",
"OOo8wyyssysxkjvxsdb5333BlNb5555NvMMjl++-oko=2mhBB>ooeo0=-66-<=0 ",
"e>aaaaazzapNkc9aa999zz9o,p53$$NCvMlZZ9999ZZ;0BZ9aaa99$=wp555i995",
"=8377ttttt$lMjbN7,cj,,wXwv,,**xvjmjvv$77$**62l9ipp3t7,=w,@,,$7t7",
"=8@&;@@@g*&BmB$,xvc*;l82#c*@;##jkmjcv7tAg*;82l37tt77$w06*@$7Agg@",
"X>*&;@gg@;+-X>,@*vvv;#8:;;#;&+&lkmjcv,ggr*;- 6$@AA$,*826@$ttt7Ag",
"fh;4#1*yy%6-Xo**ccll6%8q&#66666lhmkc**1r1%6e +*rgA,*;8X>w@,$$$sy",
"mM>eo>>>ee>o =>>BBB>oo<X:oooo<<qmf2>868eeo<= <+->-888o =>--BjBBk",
"f.X.Of.O. XX.XX20=:<o<<=2 ... 0===q<qq= ...O.XXXX2XXX OOO.ffffmf",
"CCdsw2O6ddyyyyxy=qd5pp9i3d02si999ppp3-0=ooo<-6e008#ww%8oq0fMccvv",
"ZZ53t< p5355iiZZ86apppp5bboeaaaaa5333>q5azzzzza6e9aazzzaa$2j9ZZ9",
"N$7$@:.,+-++&;;*e6t,$7g@vvq>33537@g$*=qt7355337o>N$t7$r@,#XBN$$N",
";#;;60O#+-+44#;;ew$@,7tt,#2>ttNxrgAAw0q$$777$$*:>$x77g%#*82Bvcll",
"v;&+60O+#&4+4;;#o%,*@$$,x+2-,**;rrgg%2<,@@g@@@*:>,#@r14+&>X>vccc",
"###ll2uh;lhk4%;#o-*;#&##6-=>*;#4%11w8Xo@@@@rr*4:e@#%%44-+> oxccc",
"oeBjj.ufMk<o>->>::->oqq::=2q->oeeee<= q##%%46880=&+8--n>eqO >>hh",
"uuOfOVVVVu.f 2 .X=X  .O.. X000X 2<o>ee86oXX0=::=0=0=XX0X .. 02fO",
"V.oe-88>hMf 8yww,sy8  >sdbbbbbw20d99ii9i5oX,ddCNtdt7q=dtbb5555bs",
"uszaa9aaiN:09azzzzzp<qpa57*11w#h:N$*&#*;#=qp53t33t7,==5$7777$$N,",
".xi7,@,$g%2=b3777t3$o<3$@%+nn+l::$@;+&;;+2:t357A$,#+X:7;11rg@@*#",
" wN&>+#%%- :37;%1rrwq=@#+&4n8++:<$@;&#1;&X0$$7@1r%++Xo7%%%1rr;#&",
"X#,#+&%rr;f=3$#44%1wqX&++&#&&+8::@*&+#;#&XX#+4444nn+0e,+nn444+&8",
"X-;&+&*,@w0X$*&44%1wqOe+8866--eXX&&--+4%6XOeo>-n8ne>2<;+-nnn-++-",
"Xq<:00:::0..>----88-=u ==02X .OuO   ..202.VuO. XXX XX0q0XXXXXXX2",
"e<= .....OOO.XX=0   .uuOOuuVuuO 2==XOuuOX::===0XO. 2XX OOO.O. =o",
"a9i3bsX 8wyyydbby X6yssdby<u.sb5iii5tyO:59a9i9it:+NNCCdsdbdqo39a",
"t7dddy2Xt33bd$,,@=-a9bbiai,Oop33tt333,.q533*&,77>;NNNbbtt3tq%p,,",
"%444--02@@@%4+--+06p,+&@,*-Oo3$$@*$$,+Oqtt$&&$$@<lCCxxx*,@#=%@+6",
"w%%4>>==@@@1%8e>-X63****#+-fh$x@,gg**-O=;;&&#;;lmBxxvx**g,+0#w4%",
"w%%8-8=08444neee>X6$*r11&+Bmhc#xAAA,,6O0&+#***cjmkljll#%4+<28#6%",
"%%6666=2>>nnnnn-8X>*;%44#ljmmjjv,Ag,@8.0&+w,@xvlMhjjjc&+--:Xe&86",
"===000 X:qqoooeeo 2eeeeokkkmmMM::<o<0.OO2==<o>BhfffmMM02X X 0:==",
"  .O...       X......OO.fmhkkhM:=.uVVuO.OuuuuOOOOuuu..OOuuO     ",
"q0X%ssddddddy= 6sddddsds:obZZ99a9yOuwbbbbdsy-.Ohjkkk--> u0o868>e",
"5%o9a9999ii3s<X39aai3ds@o69553ttt,X2pii995Zb7oXZ9Z999p5e=3ipppZ9",
"w>ep5@w%46666q03t33t,#++q8t$@@g7t,0:$&;114+--203tt$$@,@::$@$77,*",
"-eq5t*rgr4-88==tvCC$x#&&=o*+&%A33,0:w-+rr%4+-f27$$gr4@*:2**@@;&+",
"8oq57@r1%8+66q:Cjcccl###=:;+;g337*2=&-+114&+>O0*#ggr+&#=X&&&ljj+",
"6<=7,%48n8#66:Mvjjjll&8-X=#&+&**#80 >--+#%46<uMl+rgr4+&:0+++jjjj",
"o:X<h:=qqqqq:2MkkkkhhMX ..==0X22X .O. XX0:02fVfho-8-e>e02<<kkkkh",
"<<q<h:   X2  2MMhMmMMM:0X2XOuVO .XX 2.OOfmuVVVVVuuuuO....OOfmm2:",
"i9a9i5>OqwyssdNCCcMvCZ99i5tqO6d5iii553-u<yyyw6wB u>wwyyyy6BmMxN5",
"555777-Osaazzzz9ZChNbi9p3@w:Odbd$sdd,@ouy3335ppp+.5piii999ZjhZ55",
"$$g11*>.$53$,tNCxl:N$N7g%n8=Ow&&#;@@;#:uy$@,77@;<X$@*%&%@$xkhbN$",
"@@1%4#>.st,#;@@*;>=$x**14n8=O&+#@@@@;l=uy,@,AA@&< %#%441r,*<otx*",
";##444> w@;*x@*%#oX,;;%%4n8=O++*,@@@*#=Oy;#1g$@+<.#4%4%1%cl0ot@*",
"%##666> e;#wy*%44eX;*%444880O-+w@*www60.##+&@,;+q.&+4%11lcl20@;;",
":q<qoe: 0ok>eoe>eq=+&-<=002.u0q<<<<<q0 O>&++&+-e0.ooe>->BkoX.q::"
};
